<?xml version="1.0" standalone="no"?>
<!DOCTYPE svg PUBLIC "-//W3C//DTD SVG 1.1//EN" "http://www.w3.org/Graphics/SVG/1.1/DTD/svg11.dtd" >
<svg xmlns="http://www.w3.org/2000/svg" xmlns:xlink="http://www.w3.org/1999/xlink" version="1.1">
<metadata>
Created by FontForge 20170731 at Fri Mar  4 14:54:17 2016
 By ,,,
Copyright (c) 2013 by Type Dynamic. All rights reserved.
</metadata>
<defs>
<font id="Larsseit-Light" horiz-adv-x="230" >
  <font-face 
    font-family="Larsseit Light"
    font-weight="400"
    font-stretch="normal"
    units-per-em="1000"
    panose-1="0 0 0 0 0 0 0 0 0 0"
    ascent="765"
    descent="-235"
    x-height="502"
    cap-height="700"
    bbox="-200 -258 2918 973"
    underline-thickness="50"
    underline-position="-150"
    unicode-range="U+0020-FB01"
  />
<missing-glyph horiz-adv-x="600" 
d="M68 700h465v-700h-465v700zM465 654h-333l167 -265zM487 603l-162 -257l162 -257v514zM299 303l-163 -257h325zM114 598v-504l158 252z" />
    <glyph glyph-name=".notdef" horiz-adv-x="600" 
d="M68 700h465v-700h-465v700zM465 654h-333l167 -265zM487 603l-162 -257l162 -257v514zM299 303l-163 -257h325zM114 598v-504l158 252z" />
    <glyph glyph-name=".null" horiz-adv-x="0" 
 />
    <glyph glyph-name="nonmarkingreturn" horiz-adv-x="333" 
 />
    <glyph glyph-name="space" unicode=" " horiz-adv-x="211" 
 />
    <glyph glyph-name="exclam" unicode="!" 
d="M147 700v-507h-63v507h63zM170 42q0 -22 -15.5 -37.5t-38.5 -15.5t-38.5 15t-15.5 38t15.5 38.5t38.5 15.5t38.5 -15.5t15.5 -38.5z" />
    <glyph glyph-name="quotedbl" unicode="&#x22;" horiz-adv-x="288" 
d="M108 718l-16 -200h-43l-6 200h65zM249 718l-16 -200h-43l-6 200h65z" />
    <glyph glyph-name="numbersign" unicode="#" horiz-adv-x="646" 
d="M585 259v-59h-144l-35 -200h-62l35 200h-170l-35 -200h-62l35 200h-132v59h142l37 209h-133v58h143l31 174h62l-31 -174h170l31 174h62l-31 -174h133v-58h-143l-37 -209h134zM256 468l-37 -209h170l37 209h-170z" />
    <glyph glyph-name="dollar" unicode="$" horiz-adv-x="534" 
d="M302 798v-88q73 -9 116 -58t44 -131h-67q-1 52 -25.5 85t-67.5 43v-268q100 -40 142 -82.5t42 -113.5q0 -86 -50 -137.5t-134 -59.5v-85h-55v86q-91 8 -142 65t-52 148h67q1 -66 34 -105.5t93 -47.5v281q-90 37 -131 78.5t-41 117.5t45 128t127 58v86h55zM419 182
q0 43 -27 71.5t-90 54.5v-260q57 7 87 43.5t30 90.5zM142 529q0 -47 23.5 -73t81.5 -52v248q-50 -5 -77.5 -37t-27.5 -86z" />
    <glyph glyph-name="percent" unicode="%" horiz-adv-x="820" 
d="M668 700l-443 -700h-73l443 700h73zM196 713q71 0 117.5 -49t46.5 -123t-46.5 -122t-117.5 -48t-117 48t-46 122t46.5 123t116.5 49zM87 541q0 -50 31 -83t78 -33t77 33t30 83q0 51 -30 84.5t-77 33.5t-78 -33.5t-31 -84.5zM625 329q70 0 116.5 -49t46.5 -123t-46.5 -122
t-116.5 -48q-71 0 -117.5 48t-46.5 122t46.5 123t117.5 49zM625 275q-48 0 -78.5 -33.5t-30.5 -84.5q0 -50 30.5 -83t78.5 -33q46 0 76.5 33t30.5 83q0 51 -30.5 84.5t-76.5 33.5z" />
    <glyph glyph-name="ampersand" unicode="&#x26;" horiz-adv-x="613" 
d="M264 713q72 0 116 -41.5t44 -113.5q0 -21 -5 -40t-10 -32t-20 -29.5t-21 -22.5q-6 -7 -28.5 -22.5t-26.5 -17.5q-3 -2 -10.5 -6.5t-20.5 -13.5l-2 -2l170 -190q4 13 7 29.5t4 36.5q2 31 -1.5 60t-12.5 56l63 10q9 -29 13 -61.5t2 -68.5q-1 -31 -8 -59.5t-20 -55.5
l117 -129h-85l-67 74q-37 -43 -86.5 -65t-112.5 -22q-103 0 -166 51t-63 143q0 66 36 110t103 85l12 7l-17 19q-35 39 -52.5 78t-17.5 78q0 67 45 111t121 44zM264 45q53 0 92.5 18.5t64.5 55.5l-196 219l-6 -3q-60 -37 -88.5 -70t-28.5 -83q0 -67 43 -102t119 -35zM164 558
q0 -28 14.5 -58.5t43.5 -62.5l18 -21l6 4q31 19 51 33.5t29 23.5q16 17 23.5 36.5t7.5 42.5q0 45 -25 72t-67 27q-44 0 -72 -26.5t-29 -70.5z" />
    <glyph glyph-name="quotesingle" unicode="'" horiz-adv-x="147" 
d="M108 718l-16 -200h-43l-6 200h65z" />
    <glyph glyph-name="parenleft" unicode="(" horiz-adv-x="262" 
d="M203 733l46 -34q-71 -89 -103 -176t-32 -202t32 -202t103 -176l-46 -34q-75 95 -113 193t-38 219t38 219t113 193z" />
    <glyph glyph-name="parenright" unicode=")" horiz-adv-x="262" 
d="M59 733q75 -95 113 -193t38 -219t-38 -219t-113 -193l-46 34q71 89 103 176t32 202t-32 202t-103 176z" />
    <glyph glyph-name="asterisk" unicode="*" horiz-adv-x="350" 
d="M200 737l-1 -133l122 42l18 -49l-123 -40l80 -107l-42 -31l-78 107l-77 -107l-42 30l78 106l-124 40l16 50l122 -41l-1 133h52z" />
    <glyph glyph-name="plus" unicode="+" horiz-adv-x="472" 
d="M266 556v-177h176v-58h-176v-177h-60v177h-176v58h176v177h60z" />
    <glyph glyph-name="comma" unicode="," horiz-adv-x="186" 
d="M144 37q0 -43 -19 -88.5t-49 -78.5l-23 9q15 25 24 53t13 60q-21 2 -34.5 15.5t-13.5 34.5t14.5 35.5t36.5 14.5t36.5 -15.5t14.5 -39.5z" />
    <glyph glyph-name="hyphen" unicode="-" horiz-adv-x="365" 
d="M340 288v-57h-315v57h315z" />
    <glyph glyph-name="period" unicode="." horiz-adv-x="191" 
d="M149 42q0 -22 -15.5 -37.5t-37.5 -15.5q-23 0 -38.5 15t-15.5 38t15.5 38.5t38.5 15.5t38 -15.5t15 -38.5z" />
    <glyph glyph-name="slash" unicode="/" horiz-adv-x="381" 
d="M376 700l-309 -700h-62l308 700h63z" />
    <glyph glyph-name="zero" unicode="0" horiz-adv-x="549" 
d="M503 351q0 -167 -60 -265.5t-168 -98.5q-109 0 -168.5 98.5t-59.5 265.5t59.5 264.5t168.5 97.5t168.5 -98t59.5 -264zM275 651q-79 0 -120 -80t-41 -220q0 -141 41 -221.5t120 -80.5q78 0 119 81t41 221t-41 220t-119 80z" />
    <glyph glyph-name="one" unicode="1" horiz-adv-x="319" 
d="M239 700v-700h-66v564h-147v56q82 0 115 16t45 64h53z" />
    <glyph glyph-name="two" unicode="2" horiz-adv-x="482" 
d="M243 713q90 0 138.5 -50.5t48.5 -138.5q0 -48 -20.5 -99.5t-62.5 -106.5l-197 -256h296v-62h-387v49l231 299q41 52 57 90t16 84q0 65 -30 97t-91 32q-56 0 -90.5 -37t-34.5 -110h-66q0 96 52.5 152.5t139.5 56.5z" />
    <glyph glyph-name="three" unicode="3" horiz-adv-x="524" 
d="M446 520q0 -64 -30.5 -104t-73.5 -54q53 -13 90.5 -60t37.5 -117q0 -86 -58.5 -142t-150.5 -56q-98 0 -156 55t-58 152h65q1 -74 42 -109.5t108 -35.5q63 0 101.5 37t38.5 100q0 71 -49 108.5t-140 37.5h-13v60h13q86 0 125.5 30t39.5 97q0 62 -31 97t-90 35
q-56 0 -91.5 -36t-35.5 -107h-66q0 94 52.5 149.5t140.5 55.5t138.5 -54.5t50.5 -138.5z" />
    <glyph glyph-name="four" unicode="4" horiz-adv-x="523" 
d="M391 700v-486h103v-61h-103v-153h-66v153h-293v54l288 493h71zM325 592l-24 -45l-195 -333h219v378z" />
    <glyph glyph-name="five" unicode="5" horiz-adv-x="528" 
d="M452 700v-62h-294v-238q24 15 55 22.5t69 7.5q95 0 151.5 -59.5t56.5 -155.5q0 -98 -57.5 -163t-155.5 -65q-94 0 -150 50.5t-56 146.5h66q1 -68 38.5 -101.5t101.5 -33.5q68 0 106.5 45t38.5 119q0 70 -38.5 112.5t-107.5 42.5q-35 0 -67 -8.5t-60 -26.5h-58v367h361z
" />
    <glyph glyph-name="six" unicode="6" horiz-adv-x="538" 
d="M287 713q81 0 134 -49.5t57 -133.5h-67q-6 61 -37.5 91t-88.5 30q-81 0 -121.5 -75t-41.5 -239q20 37 65 62t97 25q97 0 153.5 -61.5t56.5 -153.5q0 -95 -58 -158.5t-154 -63.5q-48 0 -88 17t-71 51q-34 38 -51 107t-17 168q0 189 55.5 286t176.5 97zM281 363
q-61 0 -105.5 -44.5t-44.5 -109.5q0 -62 42 -111.5t108 -49.5q65 0 105 45.5t40 114.5q0 65 -40 110t-105 45z" />
    <glyph glyph-name="seven" unicode="7" horiz-adv-x="476" 
d="M447 700v-54l-295 -646h-72l291 637h-331v63h407z" />
    <glyph glyph-name="eight" unicode="8" horiz-adv-x="540" 
d="M270 713q86 0 139.5 -55t53.5 -137q0 -63 -29 -104.5t-63 -55.5q45 -18 80 -61t35 -112q0 -87 -61.5 -144t-154.5 -57t-155 57t-62 144q0 65 33.5 111t81.5 62q-35 15 -63 56.5t-28 103.5q0 82 53 137t140 55zM270 48q61 0 105 38.5t44 102.5t-44 103t-105 39t-105.5 -39
t-44.5 -103t44 -102.5t106 -38.5zM270 652q-56 0 -91.5 -36.5t-35.5 -95.5q0 -58 35.5 -93t91.5 -35t91 35t35 93q0 59 -35.5 95.5t-90.5 36.5z" />
    <glyph glyph-name="nine" unicode="9" horiz-adv-x="538" 
d="M250 -13q-81 0 -134 49.5t-57 133.5h67q7 -60 38.5 -90.5t87.5 -30.5q81 0 121.5 75t41.5 239q-20 -37 -65 -62t-97 -25q-97 0 -153.5 61.5t-56.5 153.5q0 95 58 158.5t154 63.5q49 0 88.5 -17t70.5 -51q34 -38 51 -106.5t17 -168.5q0 -189 -55.5 -286t-176.5 -97z
M256 337q61 0 105.5 44.5t44.5 109.5q0 62 -42 111.5t-108 49.5q-65 0 -105 -45.5t-40 -114.5q0 -65 40 -110t105 -45z" />
    <glyph glyph-name="colon" unicode=":" horiz-adv-x="191" 
d="M96 406q-23 0 -38.5 15t-15.5 38t15.5 38.5t38.5 15.5t38 -15.5t15 -38.5t-15.5 -38t-37.5 -15zM149 42q0 -22 -15.5 -37.5t-37.5 -15.5q-23 0 -38.5 15t-15.5 38t15.5 38.5t38.5 15.5t38 -15.5t15 -38.5z" />
    <glyph glyph-name="semicolon" unicode=";" horiz-adv-x="191" 
d="M96 406q-23 0 -38.5 15t-15.5 38t15.5 38.5t38.5 15.5t38 -15.5t15 -38.5t-15.5 -38t-37.5 -15zM96 92q21 0 35.5 -15.5t14.5 -39.5q0 -43 -19 -88.5t-48 -78.5l-23 9q15 25 24 53t13 60q-21 2 -35 15.5t-14 34.5t15 35.5t37 14.5z" />
    <glyph glyph-name="less" unicode="&#x3c;" horiz-adv-x="244" 
d="M230 446l-154 -196l154 -195h-67l-149 187v17l149 187h67z" />
    <glyph glyph-name="equal" unicode="=" horiz-adv-x="472" 
d="M442 481v-58h-412v58h412zM442 276v-58h-412v58h412z" />
    <glyph glyph-name="greater" unicode="&#x3e;" horiz-adv-x="244" 
d="M82 446l148 -187v-17l-148 -187h-68l155 195l-155 196h68z" />
    <glyph glyph-name="question" unicode="?" horiz-adv-x="400" 
d="M195 717q81 0 136.5 -50.5t55.5 -139.5q0 -49 -17 -88t-41 -63q-25 -25 -49 -46t-41 -45q-8 -12 -12.5 -24.5t-4.5 -26.5v-41h-63v42q0 35 17 64t42 51q24 22 48.5 44.5t41.5 56.5q9 16 13 35t4 39q0 65 -36.5 100.5t-92.5 35.5q-62 0 -97.5 -36.5t-35.5 -105.5h-62
q1 95 55 146.5t139 51.5zM245 42q0 -22 -15.5 -37.5t-38.5 -15.5t-38.5 15t-15.5 38t15.5 38.5t38.5 15.5t38.5 -15.5t15.5 -38.5z" />
    <glyph glyph-name="at" unicode="@" horiz-adv-x="798" 
d="M389 383q-62 0 -98 -42.5t-36 -110.5t35.5 -109.5t96.5 -41.5q56 0 95 36.5t39 100.5v23q0 67 -39 105.5t-93 38.5zM401 595q160 0 259 -103t99 -261q0 -105 -41 -154.5t-98 -49.5q-38 0 -62 16t-33 48q-18 -27 -55.5 -46.5t-87.5 -19.5q-83 0 -134 58t-51 147
q0 90 51 148t135 58q51 0 87 -22.5t51 -53.5l2 67h52v-297q0 -27 12.5 -40.5t37.5 -13.5q40 0 60 39t20 116q0 136 -84 224.5t-220 88.5q-139 0 -223.5 -88.5t-84.5 -224.5t84.5 -225t223.5 -89q38 0 72 7.5t64 21.5l18 -49q-35 -16 -73.5 -23.5t-80.5 -7.5
q-163 0 -262.5 103t-99.5 262q0 160 99.5 262t262.5 102z" />
    <glyph glyph-name="A" unicode="A" horiz-adv-x="675" 
d="M337 609l-13 -37l-126 -306h278l-126 306zM369 700l287 -700h-74l-83 203h-324l-81 -203h-74l286 700h63z" />
    <glyph glyph-name="B" unicode="B" horiz-adv-x="557" 
d="M262 700q98 0 155.5 -50t57.5 -135q0 -48 -20.5 -84.5t-61.5 -61.5q60 -19 93.5 -65t33.5 -107q0 -90 -60.5 -143.5t-166.5 -53.5h-211v700h180zM293 328h-145v-266h145q74 0 117 36t43 100q0 60 -42.5 95t-117.5 35zM262 638h-114v-248h119q64 0 103 34t39 89
q0 59 -39.5 92t-107.5 33z" />
    <glyph glyph-name="C" unicode="C" horiz-adv-x="723" 
d="M386 713q116 0 195.5 -56t109.5 -155h-74q-24 69 -82.5 109t-148.5 40q-120 0 -197.5 -85.5t-77.5 -215.5t77.5 -215.5t197.5 -85.5q91 0 149.5 41t82.5 110h74q-31 -102 -109.5 -157.5t-196.5 -55.5q-150 0 -247 103.5t-97 259.5t97 259.5t247 103.5z" />
    <glyph glyph-name="D" unicode="D" horiz-adv-x="727" 
d="M328 700q161 0 256.5 -95.5t95.5 -254.5t-95.5 -254.5t-256.5 -95.5h-246v700h246zM328 638h-180v-576h180q130 0 207.5 77t77.5 211q0 133 -77 210.5t-208 77.5z" />
    <glyph glyph-name="E" unicode="E" horiz-adv-x="505" 
d="M458 700v-62h-310v-246h275v-62h-275v-268h310v-62h-376v700h376z" />
    <glyph glyph-name="F" unicode="F" horiz-adv-x="475" 
d="M448 700v-62h-300v-255h255v-63h-255v-320h-66v700h366z" />
    <glyph glyph-name="G" unicode="G" horiz-adv-x="748" 
d="M386 713q116 0 195.5 -56t109.5 -155h-74q-24 69 -82.5 109t-148.5 40q-120 0 -197.5 -85.5t-77.5 -215.5t77.5 -215.5t198.5 -85.5q112 0 178.5 59t67.5 178h-232v63h301v-40q0 -150 -83 -236t-232 -86q-151 0 -248 103.5t-97 259.5t97 259.5t247 103.5z" />
    <glyph glyph-name="H" unicode="H" horiz-adv-x="704" 
d="M622 700v-700h-66v330h-408v-330h-66v700h66v-307h408v307h66z" />
    <glyph glyph-name="I" unicode="I" 
d="M148 700v-700h-66v700h66z" />
    <glyph glyph-name="J" unicode="J" horiz-adv-x="484" 
d="M411 700v-506q0 -100 -48 -153t-137 -53q-94 0 -143.5 53.5t-54.5 160.5h66q4 -76 37 -114t95 -38q57 0 88 37.5t31 108.5v504h66z" />
    <glyph glyph-name="K" unicode="K" horiz-adv-x="663" 
d="M569 700l-242 -307l315 -393h-83l-275 341l-128 -158v-183h-67v700h67v-418l330 418h83z" />
    <glyph glyph-name="L" unicode="L" horiz-adv-x="493" 
d="M147 700v-638h323v-62h-389v700h66z" />
    <glyph glyph-name="M" unicode="M" horiz-adv-x="867" 
d="M786 700v-700h-66v563l-19 -48l-242 -515h-50l-243 515l-18 48v-563h-66v700h68l262 -547l21 -48l22 48l262 547h69z" />
    <glyph glyph-name="N" unicode="N" horiz-adv-x="701" 
d="M619 700v-700h-64l-380 544l-27 41v-585h-66v700h63l378 -541l30 -44v585h66z" />
    <glyph glyph-name="O" unicode="O" horiz-adv-x="793" 
d="M751 351q0 -156 -100 -260t-254 -104t-254.5 104t-100.5 260q0 155 100.5 258.5t254.5 103.5t254 -103.5t100 -258.5zM397 651q-125 0 -205.5 -85.5t-80.5 -214.5q0 -130 80.5 -216t205.5 -86q124 0 204.5 86t80.5 216q0 129 -80.5 214.5t-204.5 85.5z" />
    <glyph glyph-name="P" unicode="P" horiz-adv-x="523" 
d="M279 700q100 0 160 -57.5t60 -151.5q0 -92 -59.5 -148.5t-160.5 -56.5h-131v-286h-66v700h197zM279 638h-131v-290h131q69 0 111.5 39t42.5 104q0 67 -42.5 107t-111.5 40z" />
    <glyph glyph-name="Q" unicode="Q" horiz-adv-x="791" 
d="M751 351q0 -97 -41 -176.5t-113 -128.5l150 -150h-93l-118 118q-33 -13 -68 -20t-71 -7q-154 0 -254.5 104t-100.5 260q0 155 100.5 258.5t254.5 103.5t254 -103.5t100 -258.5zM397 651q-125 0 -205.5 -85.5t-80.5 -214.5q0 -130 80.5 -216t205.5 -86q23 0 45.5 3.5
t44.5 10.5l-135 134h93l105 -105q62 39 97 107.5t35 151.5q0 129 -80.5 214.5t-204.5 85.5z" />
    <glyph glyph-name="R" unicode="R" horiz-adv-x="531" 
d="M259 700q101 0 160.5 -56t59.5 -149q0 -71 -36.5 -120t-102.5 -69l169 -306h-76l-161 295h-124v-295h-66v700h177zM259 638h-111v-282h111q69 0 111.5 37t42.5 102q0 66 -42 104.5t-112 38.5z" />
    <glyph glyph-name="S" unicode="S" horiz-adv-x="517" 
d="M257 713q89 0 142 -50t54 -142h-67q-1 63 -36 97.5t-94 34.5q-58 0 -90.5 -33t-32.5 -91q0 -54 31.5 -81t115.5 -62q108 -42 152.5 -84.5t44.5 -116.5q0 -92 -57.5 -145t-151.5 -53q-104 0 -163.5 58.5t-60.5 156.5h67q1 -74 42.5 -114.5t115.5 -40.5q68 0 104.5 37.5
t36.5 97.5q0 49 -36 80t-124 63q-97 39 -140.5 81t-43.5 120q0 80 50 133.5t141 53.5z" />
    <glyph glyph-name="T" unicode="T" horiz-adv-x="603" 
d="M593 700v-62h-259v-638h-66v638h-259v62h584z" />
    <glyph glyph-name="U" unicode="U" horiz-adv-x="684" 
d="M612 700v-426q0 -141 -70.5 -214t-199.5 -73q-128 0 -198.5 73t-70.5 214v426h66v-426q0 -225 203 -225t203 225v426h67z" />
    <glyph glyph-name="V" unicode="V" horiz-adv-x="670" 
d="M651 700l-287 -700h-58l-287 700h72l230 -565l14 -43l13 43l231 565h72z" />
    <glyph glyph-name="W" unicode="W" horiz-adv-x="980" 
d="M959 700l-228 -700h-60l-169 531l-12 46l-12 -46l-168 -531h-60l-229 700h70l178 -542l12 -50l12 50l171 542h52l172 -542l11 -50l13 50l178 542h69z" />
    <glyph glyph-name="X" unicode="X" horiz-adv-x="672" 
d="M628 700l-249 -342l262 -358h-79l-226 306l-225 -306h-80l261 358l-249 342h81l212 -289l212 289h80z" />
    <glyph glyph-name="Y" unicode="Y" horiz-adv-x="667" 
d="M650 700l-283 -432v-268h-67v268l-283 432h78l210 -320l28 -47l28 47l211 320h78z" />
    <glyph glyph-name="Z" unicode="Z" horiz-adv-x="584" 
d="M539 700v-52l-417 -586h428v-62h-515v52l418 586h-413v62h499z" />
    <glyph glyph-name="bracketleft" unicode="[" horiz-adv-x="265" 
d="M240 716v-58h-109v-677h109v-58h-170v793h170z" />
    <glyph glyph-name="backslash" unicode="\" horiz-adv-x="381" 
d="M67 700l309 -700h-63l-308 700h62z" />
    <glyph glyph-name="bracketright" unicode="]" horiz-adv-x="265" 
d="M195 716v-793h-170v58h108v677h-108v58h170z" />
    <glyph glyph-name="asciicircum" unicode="^" horiz-adv-x="539" 
d="M269 760l249 -298h-71l-178 214l-176 -214h-72z" />
    <glyph glyph-name="underscore" unicode="_" horiz-adv-x="635" 
d="M610 0v-58h-585v58h585z" />
    <glyph glyph-name="grave" unicode="`" horiz-adv-x="223" 
d="M91 732l122 -158h-66l-137 158h81z" />
    <glyph glyph-name="a" unicode="a" horiz-adv-x="482" 
d="M239 513q83 0 127.5 -46.5t44.5 -131.5v-335h-60l-2 73q-20 -36 -62 -60t-97 -24q-65 0 -103.5 37t-38.5 97q0 58 34 93.5t102 49.5l163 34v33q0 61 -27 91t-81 30q-50 0 -82 -27.5t-32 -80.5h-63q1 72 49.5 119.5t127.5 47.5zM347 243l-151 -33q-41 -10 -62.5 -29
t-21.5 -57q0 -36 22.5 -56t63.5 -20q36 0 65 13.5t51 40.5q17 22 25 46.5t8 52.5v42z" />
    <glyph glyph-name="b" unicode="b" horiz-adv-x="591" 
d="M143 730v-312q19 38 66 66.5t110 28.5q107 0 171.5 -74t64.5 -188t-64 -188t-170 -74q-64 0 -111.5 29t-68.5 67l-3 -85h-58v730h63zM313 453q-70 0 -120.5 -53t-50.5 -142v-21q0 -86 50.5 -137.5t122.5 -51.5q80 0 127.5 57t47.5 146t-49 145.5t-128 56.5z" />
    <glyph glyph-name="c" unicode="c" horiz-adv-x="537" 
d="M276 513q82 0 140.5 -40.5t78.5 -115.5h-65q-16 46 -57.5 71.5t-95.5 25.5q-76 0 -126 -58t-50 -146q0 -86 50.5 -144t126.5 -58q54 0 95 26t57 71h65q-21 -75 -79.5 -115.5t-139.5 -40.5q-104 0 -171.5 74.5t-67.5 186.5q0 114 67.5 188.5t171.5 74.5z" />
    <glyph glyph-name="d" unicode="d" horiz-adv-x="591" 
d="M511 730v-730h-58l-2 85q-22 -38 -69 -67t-111 -29q-107 0 -170.5 74t-63.5 188t64 188t171 74q63 0 110 -28t67 -67v312h62zM278 453q-79 0 -128 -57t-49 -145q0 -89 48 -146t128 -57q71 0 121.5 51.5t50.5 137.5v21q0 89 -50.5 142t-120.5 53z" />
    <glyph glyph-name="e" unicode="e" horiz-adv-x="550" 
d="M272 513q103 0 165.5 -65.5t62.5 -185.5v-35h-399q4 -82 52.5 -130.5t121.5 -48.5q59 0 97.5 23.5t56.5 70.5h65q-23 -73 -79.5 -113t-140.5 -40q-104 0 -170.5 72t-66.5 189q0 115 64.5 189t170.5 74zM272 454q-72 0 -118.5 -47.5t-52.5 -122.5h335q0 79 -44.5 124.5
t-119.5 45.5z" />
    <glyph glyph-name="f" unicode="f" horiz-adv-x="318" 
d="M244 737q21 0 38 -3t30 -10v-58q-14 7 -30.5 10t-34.5 3q-37 0 -55.5 -22t-18.5 -66v-89h130v-58h-130v-444h-63v444h-97v58h97v90q0 68 35.5 106.5t98.5 38.5z" />
    <glyph glyph-name="g" unicode="g" horiz-adv-x="489" 
d="M497 502v-57h-97q18 -23 26.5 -50.5t8.5 -60.5q0 -76 -51 -127t-136 -51q-34 0 -63.5 8.5t-54.5 25.5q-14 -12 -21.5 -27t-7.5 -33q0 -29 20.5 -44t53.5 -15h139q78 0 116.5 -36.5t38.5 -98.5q0 -76 -53.5 -119t-148.5 -43q-104 0 -159.5 39.5t-55.5 113.5q0 35 14.5 60
t42.5 39q-30 12 -50 38.5t-20 63.5q0 31 13.5 56t39.5 44q-16 22 -24.5 48.5t-8.5 57.5q0 79 51 129t138 50q19 0 37 -2.5t34 -8.5h178zM122 334q0 -53 34 -87t91 -34q58 0 92 34t34 87q0 55 -34 88.5t-92 33.5t-91.5 -33.5t-33.5 -88.5zM306 14h-107q-35 -1 -59.5 -23
t-24.5 -62q0 -49 38 -73.5t114 -24.5q70 0 104.5 26t34.5 78q0 38 -26.5 58.5t-73.5 20.5z" />
    <glyph glyph-name="h" unicode="h" horiz-adv-x="521" 
d="M143 730v-301q13 33 52 58.5t90 25.5q79 0 121.5 -52t42.5 -137v-324h-63v318q0 65 -29.5 99.5t-81.5 34.5q-58 0 -95 -47t-37 -126v-279h-63v730h63z" />
    <glyph glyph-name="i" unicode="i" 
d="M147 502v-502h-63v502h63zM116 710q20 0 34.5 -14.5t14.5 -34.5t-14.5 -34t-34.5 -14q-21 0 -35 14t-14 34t14 34.5t35 14.5z" />
    <glyph glyph-name="j" unicode="j" 
d="M147 502v-574q0 -89 -39.5 -121.5t-100.5 -32.5q-17 0 -31 1.5t-25 5.5v59q12 -4 24.5 -6t25.5 -2q46 0 64.5 25t18.5 72v573h63zM116 710q20 0 34.5 -14.5t14.5 -34.5t-14.5 -34t-34.5 -14q-21 0 -35 14t-14 34t14 34.5t35 14.5z" />
    <glyph glyph-name="k" unicode="k" horiz-adv-x="478" 
d="M151 730v-480l210 252h79l-171 -206l197 -296h-73l-168 247l-74 -89v-158h-63v730h63z" />
    <glyph glyph-name="l" unicode="l" 
d="M147 730v-730h-63v730h63z" />
    <glyph glyph-name="m" unicode="m" horiz-adv-x="822" 
d="M587 513q79 0 121 -51.5t42 -137.5v-324h-63v318q0 65 -29 99.5t-81 34.5q-56 0 -93 -44.5t-38 -120.5v-287h-62v318q0 65 -29.5 99.5t-81.5 34.5q-57 0 -93.5 -46.5t-36.5 -126.5v-279h-63v502h58l3 -76q15 35 53.5 61t88.5 26q56 0 93 -25.5t56 -76.5q20 42 60 72
t95 30z" />
    <glyph glyph-name="n" unicode="n" horiz-adv-x="521" 
d="M285 513q79 0 121.5 -52t42.5 -137v-324h-63v318q0 65 -29.5 99.5t-81.5 34.5q-58 0 -95 -47t-37 -126v-279h-63v502h58l3 -76q15 35 54 61t90 26z" />
    <glyph glyph-name="o" unicode="o" horiz-adv-x="573" 
d="M467 439q69 -74 69 -188t-69 -188t-180 -74t-180 74q-70 74 -70 188t70 188q69 74 180 74t180 -74zM288 454q-84 0 -135.5 -57.5t-51.5 -145.5t51.5 -145.5t135.5 -57.5q83 0 133.5 57.5t50.5 145.5t-50.5 145.5t-133.5 57.5z" />
    <glyph glyph-name="p" unicode="p" horiz-adv-x="601" 
d="M330 513q107 0 170.5 -74t63.5 -188t-64 -188t-171 -74q-64 0 -110.5 28t-65.5 67v-299h-64v717h60l1 -86q22 38 69 67.5t111 29.5zM324 453q-72 0 -122 -51t-50 -137v-21q0 -89 50.5 -142t120.5 -53q79 0 128 57t49 145q0 89 -47.5 145.5t-128.5 56.5z" />
    <glyph glyph-name="q" unicode="q" horiz-adv-x="601" 
d="M271 513q64 0 111 -29.5t69 -67.5l2 86h58v-717h-62v299q-20 -39 -67 -67t-110 -28q-107 0 -171 74t-64 188t63.5 188t170.5 74zM277 453q-81 0 -128.5 -56.5t-47.5 -145.5q0 -88 49 -145t128 -57q70 0 120.5 53t50.5 142v21q0 86 -50 137t-122 51z" />
    <glyph glyph-name="r" unicode="r" horiz-adv-x="324" 
d="M301 507v-62q-31 0 -56.5 -10t-45.5 -31q-24 -23 -36 -56t-12 -76v-272h-63v502h59l2 -91q15 40 53.5 68t98.5 28z" />
    <glyph glyph-name="s" unicode="s" horiz-adv-x="438" 
d="M216 513q71 0 114.5 -40.5t44.5 -110.5h-65q-1 46 -25 69t-71 23q-45 0 -69 -21.5t-24 -57.5q0 -37 22 -54.5t86 -34.5q87 -24 125 -57.5t38 -91.5q0 -68 -47.5 -108t-122.5 -40q-83 0 -130.5 43.5t-48.5 114.5h65q1 -47 31 -73t85 -26q51 0 77.5 24t26.5 62q0 37 -26 58
t-94 38q-78 20 -114.5 51.5t-36.5 90.5q0 60 42.5 100.5t116.5 40.5z" />
    <glyph glyph-name="t" unicode="t" horiz-adv-x="335" 
d="M170 630l-1 -128h136v-59h-137l-2 -305q0 -46 15.5 -66.5t59.5 -20.5q16 0 32 2.5t32 7.5v-57q-13 -6 -30.5 -8.5t-40.5 -2.5q-66 0 -98.5 32.5t-31.5 104.5l2 313h-100v59h100l1 128h63z" />
    <glyph glyph-name="u" unicode="u" horiz-adv-x="517" 
d="M437 502v-502h-59l-2 75q-15 -36 -53 -61t-89 -25q-79 0 -120.5 51.5t-41.5 137.5v324h63v-318q0 -66 29 -100.5t81 -34.5q57 0 93 46t36 123v284h63z" />
    <glyph glyph-name="v" unicode="v" horiz-adv-x="494" 
d="M476 502l-198 -502h-61l-198 502h67l151 -389l10 -35l11 35l150 389h68z" />
    <glyph glyph-name="w" unicode="w" horiz-adv-x="761" 
d="M742 502l-164 -502h-61l-137 393l-137 -393h-61l-163 502h67l119 -376l11 -42l11 42l127 376h53l127 -376l11 -42l11 42l119 376h67z" />
    <glyph glyph-name="x" unicode="x" horiz-adv-x="499" 
d="M459 502l-169 -241l183 -261h-76l-148 209l-147 -209h-76l182 261l-168 241h75l134 -191l135 191h75z" />
    <glyph glyph-name="y" unicode="y" horiz-adv-x="495" 
d="M476 502l-283 -717h-67l88 223l-195 494h67l151 -389l10 -35l11 35l150 389h68z" />
    <glyph glyph-name="z" unicode="z" horiz-adv-x="449" 
d="M408 502v-49l-289 -395h307v-58h-391v49l289 395h-286v58h370z" />
    <glyph glyph-name="braceleft" unicode="{" horiz-adv-x="271" 
d="M246 716v-58h-30q-32 0 -48.5 -18t-16.5 -54v-171q0 -36 -13.5 -60t-40.5 -36q27 -11 40.5 -35t13.5 -60v-171q0 -36 16.5 -54t48.5 -18h30v-58h-31q-61 0 -92.5 34.5t-31.5 95.5v166q0 36 -16 54t-49 18h-18v57h18q33 0 49 18t16 54v166q0 61 31.5 95.5t92.5 34.5h31z
" />
    <glyph glyph-name="bar" unicode="|" horiz-adv-x="204" 
d="M133 726v-793h-61v793h61z" />
    <glyph glyph-name="braceright" unicode="}" horiz-adv-x="271" 
d="M56 716q61 0 92.5 -34.5t31.5 -95.5v-166q0 -36 16.5 -54t48.5 -18h18v-57h-18q-32 0 -48.5 -18t-16.5 -54v-166q0 -61 -31.5 -95.5t-92.5 -34.5h-31v58h30q33 0 49 18t16 54v171q0 36 13.5 60t40.5 35q-27 12 -40.5 36t-13.5 60v171q0 36 -16 54t-49 18h-30v58h31z" />
    <glyph glyph-name="asciitilde" unicode="~" horiz-adv-x="571" 
d="M181 430q35 0 65 -14.5t48 -31.5q17 -18 43 -32.5t54 -14.5q38 0 64 21.5t40 64.5l47 -26q-21 -60 -59 -90t-93 -30q-36 0 -65.5 14.5t-46.5 32.5q-17 17 -43 31.5t-55 14.5q-38 0 -64 -21.5t-40 -64.5l-47 25q21 61 59 91t93 30z" />
    <glyph glyph-name="exclamdown" unicode="&#xa1;" 
d="M84 -199v507h63v-507h-63zM61 459q0 22 15.5 37.5t38.5 15.5t38.5 -15t15.5 -38t-15.5 -38.5t-38.5 -15.5t-38.5 15.5t-15.5 38.5z" />
    <glyph glyph-name="cent" unicode="&#xa2;" horiz-adv-x="537" 
d="M306 599v-88q70 -7 120.5 -47t68.5 -107h-65q-14 40 -45 64t-79 31v-402q44 6 77 31t47 64h65q-19 -67 -69 -107t-120 -47v-88h-56v88q-94 9 -153.5 81.5t-59.5 177.5q0 106 59.5 178.5t153.5 82.5v88h56zM101 250q0 -78 41.5 -133.5t107.5 -66.5v402
q-66 -11 -107.5 -66.5t-41.5 -135.5z" />
    <glyph glyph-name="sterling" unicode="&#xa3;" horiz-adv-x="494" 
d="M332 362v-55h-150q3 -14 4 -28t1 -28q0 -43 -12 -83.5t-37 -77.5l-17 -27h201q52 0 75 24t23 73h62q-2 -78 -44 -119t-117 -41h-289v34l39 56q26 39 39 79.5t13 82.5q0 15 -1.5 29t-4.5 26h-100v55h84q-3 9 -10.5 27.5t-11.5 30.5q-4 11 -9 27.5t-7 33.5q-2 8 -2.5 16.5
t-0.5 17.5q0 90 52.5 144t135.5 54q84 0 133.5 -47.5t51.5 -136.5h-63q0 58 -32.5 91t-87.5 33q-59 0 -91.5 -37.5t-32.5 -101.5q0 -21 4.5 -43t9.5 -35q4 -14 13.5 -38.5t13.5 -35.5h165z" />
    <glyph glyph-name="currency" unicode="&#xa4;" horiz-adv-x="615" 
d="M544 543l39 -40l-123 -123q19 -26 28.5 -55t9.5 -62q0 -34 -9.5 -63.5t-29.5 -55.5l124 -123l-39 -39l-125 123q-25 -18 -53 -27.5t-58 -9.5q-31 0 -58.5 9.5t-52.5 27.5l-124 -123l-41 39l124 123q-19 26 -28.5 55.5t-9.5 63.5q0 33 9.5 62t28.5 55l-124 123l41 40
l123 -124q25 20 53 29.5t59 9.5q30 0 57.5 -9.5t53.5 -29.5zM308 406q-58 0 -96 -41t-38 -102t38 -102t96 -41q57 0 95.5 41t38.5 102t-38.5 102t-95.5 41z" />
    <glyph glyph-name="yen" unicode="&#xa5;" horiz-adv-x="662" 
d="M497 296v-55h-132v-74h132v-55h-132v-112h-67v112h-134v55h134v74h-134v55h115l-264 404h78l210 -320l28 -47l28 47l211 320h78l-265 -404h114z" />
    <glyph glyph-name="brokenbar" unicode="&#xa6;" horiz-adv-x="204" 
d="M133 726v-280h-61v280h61zM133 213v-280h-61v280h61z" />
    <glyph glyph-name="section" unicode="&#xa7;" horiz-adv-x="500" 
d="M253 720q84 0 132.5 -42.5t49.5 -111.5h-66q0 48 -31 74t-86 26q-52 0 -79.5 -25.5t-27.5 -65.5q0 -38 29 -61t99 -37q98 -19 143 -52.5t45 -98.5q0 -37 -20.5 -67t-61.5 -54q31 -18 46.5 -45.5t15.5 -63.5q0 -68 -50.5 -107.5t-131.5 -39.5q-87 0 -139 43t-53 111h66
q0 -48 33.5 -74t93.5 -26q57 0 86.5 25.5t29.5 65.5q0 38 -31.5 61t-109.5 38q-99 20 -145.5 54t-46.5 98q0 40 21.5 71.5t64.5 54.5q-24 18 -36 43.5t-12 58.5q0 68 48 107.5t124 39.5zM261 244q13 -2 27.5 -5.5t31.5 -8.5q39 17 58 40t19 52q0 43 -31 65.5t-115 38.5
q-18 4 -35.5 8.5t-33.5 9.5q-37 -15 -56 -38.5t-19 -55.5q0 -43 33 -66t121 -40z" />
    <glyph glyph-name="dieresis" unicode="&#xa8;" horiz-adv-x="289" 
d="M88 664q13 -14 13 -33t-13 -32t-32 -13t-32 13q-14 13 -14 32t14 33q13 13 32 13t32 -13zM266 664q13 -14 13 -33t-13 -32t-32 -13t-32 13q-14 13 -14 32t14 33q13 13 32 13t32 -13z" />
    <glyph glyph-name="copyright" unicode="&#xa9;" horiz-adv-x="578" 
d="M293 621q50 0 81 -23.5t44 -70.5h-56q-8 23 -25 34.5t-44 11.5q-39 0 -63.5 -27.5t-24.5 -69.5t24.5 -69.5t63.5 -27.5q29 0 47 12t25 36h54q-11 -46 -43 -71t-83 -25q-62 0 -102 41t-40 104t40 104t102 41zM290 741q115 0 186.5 -75t71.5 -190q0 -114 -71.5 -189.5
t-186.5 -75.5q-116 0 -188 75.5t-72 189.5q0 115 72 190t188 75zM290 693q-94 0 -151.5 -61.5t-57.5 -155.5t57.5 -155.5t151.5 -61.5q93 0 150 61.5t57 155.5t-57 155.5t-150 61.5z" />
    <glyph glyph-name="ordfeminine" unicode="&#xaa;" horiz-adv-x="377" 
d="M187 708q61 0 94.5 -31t33.5 -90v-228h-49l-2 48q-18 -27 -45.5 -41t-65.5 -14q-48 0 -76 25t-28 67q0 39 25 63.5t75 33.5l112 22v22q0 38 -18.5 56.5t-55.5 18.5q-34 0 -54.5 -17t-20.5 -50h-54q2 51 36.5 83t92.5 32zM261 520l-101 -21q-28 -5 -42.5 -18t-14.5 -34
q0 -22 15.5 -35.5t42.5 -13.5q25 0 44.5 9t33.5 26q11 14 16.5 28.5t5.5 30.5v28z" />
    <glyph glyph-name="guillemotleft" unicode="&#xab;" horiz-adv-x="441" 
d="M225 446l-149 -196l149 -195h-67l-144 187v17l144 187h67zM427 446l-150 -196l150 -195h-68l-144 187v17l144 187h68z" />
    <glyph glyph-name="logicalnot" unicode="&#xac;" horiz-adv-x="563" 
d="M526 422v-260h-51v209h-437v51h488z" />
    <glyph glyph-name="registered" unicode="&#xae;" horiz-adv-x="578" 
d="M290 741q115 0 186.5 -75t71.5 -190q0 -114 -71.5 -189.5t-186.5 -75.5q-116 0 -188 75.5t-72 189.5q0 115 72 190t188 75zM290 693q-94 0 -151.5 -61.5t-57.5 -155.5t57.5 -155.5t151.5 -61.5q93 0 150 61.5t57 155.5t-57 155.5t-150 61.5zM293 616q45 0 71 -24t26 -65
q0 -27 -12.5 -46.5t-38.5 -30.5l63 -114h-59l-56 106h-37v-106h-51v280h94zM291 570h-41v-86h41q22 0 34.5 11.5t12.5 31.5t-12.5 31.5t-34.5 11.5z" />
    <glyph glyph-name="macron" unicode="&#xaf;" horiz-adv-x="273" 
d="M263 655v-55h-253v55h253z" />
    <glyph glyph-name="degree" unicode="&#xb0;" horiz-adv-x="335" 
d="M167 436q-62 0 -103 39.5t-41 103.5t41 103.5t103 39.5t103.5 -39.5t41.5 -103.5t-41 -103.5t-104 -39.5zM167 671q-39 0 -65 -25.5t-26 -66.5t26 -67t65 -26q40 0 66 26t26 67t-26 66.5t-66 25.5z" />
    <glyph glyph-name="plusminus" unicode="&#xb1;" horiz-adv-x="472" 
d="M266 642v-177h176v-58h-176v-177h-60v177h-176v58h176v177h60zM442 155v-58h-412v58h412z" />
    <glyph glyph-name="two.sups" unicode="&#xb2;" horiz-adv-x="320" 
d="M161 807q57 0 88 -29t31 -80q0 -27 -12.5 -55.5t-38.5 -58.5l-107 -124h164v-52h-240v40l135 156q22 25 32.5 48t10.5 43q0 31 -16 46t-48 15q-28 0 -46.5 -18t-18.5 -53h-55q0 56 33.5 89t87.5 33z" />
    <glyph glyph-name="three.sups" unicode="&#xb3;" horiz-adv-x="347" 
d="M171 807q55 0 87 -31.5t32 -78.5q0 -35 -17.5 -56.5t-41.5 -29.5q30 -8 51.5 -32.5t21.5 -62.5q0 -52 -36 -83.5t-94 -31.5q-62 0 -97.5 31.5t-35.5 88.5h55q0 -35 21.5 -52.5t57.5 -17.5q33 0 53.5 18.5t20.5 48.5q0 35 -24.5 52t-74.5 17h-15v47h14q43 0 64 15.5
t21 45.5q0 28 -16.5 44.5t-46.5 16.5q-29 0 -47.5 -17t-18.5 -50h-55q0 55 32.5 86.5t88.5 31.5z" />
    <glyph glyph-name="acute" unicode="&#xb4;" horiz-adv-x="223" 
d="M213 732l-137 -158h-66l122 158h81z" />
    <glyph glyph-name="mu" unicode="&#xb5;" horiz-adv-x="524" 
d="M444 502v-502h-58l-3 75q-15 -36 -52.5 -61t-88.5 -25q-30 0 -54.5 8t-44.5 23v-235h-63v717h63v-325q1 -62 29.5 -95t79.5 -33q57 0 93.5 46t36.5 123v284h62z" />
    <glyph glyph-name="paragraph" unicode="&#xb6;" horiz-adv-x="586" 
d="M562 700v-48h-89v-732h-50v732h-129v-732h-50v395h-17q-90 0 -146 53.5t-56 137.5q0 86 56 140t146 54h335z" />
    <glyph glyph-name="periodcentered" unicode="&#xb7;" horiz-adv-x="191" 
d="M96 313q22 0 37.5 -15.5t15.5 -37.5q0 -23 -15 -38.5t-38 -15.5t-38.5 15.5t-15.5 38.5t15.5 38t38.5 15z" />
    <glyph glyph-name="cedilla" unicode="&#xb8;" horiz-adv-x="212" 
d="M123 6l-17 -69h11q38 0 61.5 -22t23.5 -59q0 -40 -28 -63t-71 -23q-30 0 -53.5 9.5t-39.5 28.5l29 36q12 -15 28 -22t36 -7q23 0 37.5 11t14.5 29q0 19 -12.5 29.5t-32.5 10.5q-7 0 -16 -1.5t-20 -3.5l-22 7l28 109h43z" />
    <glyph glyph-name="one.sups" unicode="&#xb9;" horiz-adv-x="234" 
d="M174 800v-392h-55v301h-88v42q48 0 71 10.5t30 38.5h42z" />
    <glyph glyph-name="ordmasculine" unicode="&#xba;" horiz-adv-x="433" 
d="M394 529q0 -77 -50 -127t-128 -50t-127.5 50t-49.5 127q0 79 49 129t128 50t128.5 -50t49.5 -129zM217 659q-55 0 -89 -36.5t-34 -92.5t34 -92.5t89 -36.5q54 0 88 37t34 92q0 56 -34 92.5t-88 36.5z" />
    <glyph glyph-name="guillemotright" unicode="&#xbb;" horiz-adv-x="441" 
d="M82 446l143 -187v-17l-143 -187h-68l150 195l-150 196h68zM283 446l144 -187v-17l-144 -187h-68l150 195l-150 196h68z" />
    <glyph glyph-name="onequarter" unicode="&#xbc;" horiz-adv-x="660" 
d="M569 392v-264h58v-49h-58v-79h-55v79h-177v44l168 269h64zM514 316l-13 -24l-104 -164h117v188zM174 700v-392h-55v301h-88v42q48 0 71 10.5t30 38.5h42zM573 700l-443 -700h-73l443 700h73z" />
    <glyph glyph-name="onehalf" unicode="&#xbd;" horiz-adv-x="690" 
d="M573 700l-443 -700h-73l443 700h73zM174 700v-392h-55v301h-88v42q48 0 71 10.5t30 38.5h42zM530 399q57 0 88 -29t31 -80q0 -27 -12.5 -55.5t-38.5 -58.5l-107 -124h164v-52h-240v40l135 156q22 25 32.5 48t10.5 43q0 31 -16 46t-48 15q-29 0 -47 -18t-18 -53h-55
q0 56 33.5 89t87.5 33z" />
    <glyph glyph-name="threequarters" unicode="&#xbe;" horiz-adv-x="747" 
d="M171 707q55 0 87 -31.5t32 -78.5q0 -35 -17.5 -56.5t-41.5 -29.5q30 -8 51.5 -32.5t21.5 -62.5q0 -52 -36 -83.5t-94 -31.5q-62 0 -97.5 31.5t-35.5 88.5h55q0 -35 21.5 -52.5t57.5 -17.5q33 0 53.5 18.5t20.5 48.5q0 35 -24.5 52t-74.5 17h-15v47h14q43 0 64 15.5
t21 45.5q0 28 -16.5 44.5t-46.5 16.5q-29 0 -47.5 -17t-18.5 -50h-55q0 55 32.5 86.5t88.5 31.5zM656 392v-264h58v-49h-58v-79h-55v79h-177v44l168 269h64zM601 316l-13 -24l-104 -164h117v188zM659 700l-443 -700h-73l443 700h73z" />
    <glyph glyph-name="questiondown" unicode="&#xbf;" horiz-adv-x="400" 
d="M205 -216q-81 0 -136.5 50.5t-55.5 139.5q0 49 17 88t42 64q24 24 48 45t41 45q9 12 13 25t4 26v41h63v-42q0 -35 -17 -64t-41 -51q-25 -22 -49.5 -44.5t-41.5 -55.5q-8 -17 -12.5 -35.5t-4.5 -39.5q0 -65 36.5 -100.5t92.5 -35.5q62 0 97.5 36.5t35.5 105.5h62
q-1 -95 -55 -146.5t-139 -51.5zM155 459q0 22 15.5 37.5t38.5 15.5t38.5 -15t15.5 -38t-15.5 -38.5t-38.5 -15.5t-38.5 15.5t-15.5 38.5z" />
    <glyph glyph-name="Agrave" unicode="&#xc0;" horiz-adv-x="675" 
d="M337 609l-13 -37l-126 -306h278l-126 306zM369 700l287 -700h-74l-83 203h-324l-81 -203h-74l286 700h63zM274 834l107 -103h-79l-126 103h98z" />
    <glyph glyph-name="Aacute" unicode="&#xc1;" horiz-adv-x="675" 
d="M337 609l-13 -37l-126 -306h278l-126 306zM369 700l287 -700h-74l-83 203h-324l-81 -203h-74l286 700h63zM493 834l-125 -103h-80l107 103h98z" />
    <glyph glyph-name="Acircumflex" unicode="&#xc2;" horiz-adv-x="675" 
d="M337 609l-13 -37l-126 -306h278l-126 306zM369 700l287 -700h-74l-83 203h-324l-81 -203h-74l286 700h63zM361 835l137 -105h-88l-73 57l-73 -57h-87l138 105h46z" />
    <glyph glyph-name="Atilde" unicode="&#xc3;" horiz-adv-x="675" 
d="M337 609l-13 -37l-126 -306h278l-126 306zM369 700l287 -700h-74l-83 203h-324l-81 -203h-74l286 700h63zM276 848q27 0 46.5 -11t28.5 -23q9 -13 22 -24t28 -11q23 0 34.5 15t11.5 45h48q0 -51 -24.5 -81.5t-72.5 -30.5q-27 0 -47 11t-29 24t-22 24t-28 11
q-23 0 -34.5 -15t-11.5 -46h-48q0 51 24.5 81.5t73.5 30.5z" />
    <glyph glyph-name="Adieresis" unicode="&#xc4;" horiz-adv-x="675" 
d="M337 609l-13 -37l-126 -306h278l-126 306zM369 700l287 -700h-74l-83 203h-324l-81 -203h-74l286 700h63zM247 824q19 0 32 -13t13 -32t-13 -32t-32 -13t-32.5 13t-13.5 32t13 32t33 13zM425 824q19 0 32 -13t13 -32t-13 -32t-32 -13t-32.5 13t-13.5 32t13 32t33 13z" />
    <glyph glyph-name="Aring" unicode="&#xc5;" horiz-adv-x="675" 
d="M337 609l-13 -37l-126 -306h278l-126 306zM369 700l287 -700h-74l-83 203h-324l-81 -203h-74l286 700h63zM336 770q20 0 32.5 13t12.5 32t-13 32t-32 13t-31.5 -13t-12.5 -32t12.5 -32t31.5 -13zM336 903q40 0 66 -25t26 -63t-26 -63.5t-66 -25.5q-39 0 -65 25.5
t-26 63.5t26 63t65 25z" />
    <glyph glyph-name="AE" unicode="&#xc6;" horiz-adv-x="916" 
d="M868 700v-62h-310v-246h275v-62h-275v-268h310v-62h-376v205h-262l-140 -205h-77l467 700h388zM492 607l-20 -36l-203 -306h223v342z" />
    <glyph glyph-name="Ccedilla" unicode="&#xc7;" horiz-adv-x="723" 
d="M386 713q116 0 195.5 -56t109.5 -155h-74q-24 69 -82.5 109t-148.5 40q-120 0 -197.5 -85.5t-77.5 -215.5t77.5 -215.5t197.5 -85.5q91 0 149.5 41t82.5 110h74q-30 -99 -104.5 -154t-186.5 -59l-12 -50h11q38 0 61.5 -22t23.5 -59q0 -40 -28 -63t-71 -23
q-30 0 -53.5 9.5t-39.5 28.5l29 36q12 -15 28 -22t36 -7q23 0 37.5 11t14.5 29q0 19 -12.5 29.5t-32.5 10.5q-6 0 -15 -1.5l-21 -3.5l-22 7l23 91q-139 10 -227.5 111.5t-88.5 250.5q0 156 97 259.5t247 103.5z" />
    <glyph glyph-name="Egrave" unicode="&#xc8;" horiz-adv-x="505" 
d="M458 700v-62h-310v-246h275v-62h-275v-268h310v-62h-376v700h376zM214 834l107 -103h-79l-126 103h98z" />
    <glyph glyph-name="Eacute" unicode="&#xc9;" horiz-adv-x="505" 
d="M458 700v-62h-310v-246h275v-62h-275v-268h310v-62h-376v700h376zM432 834l-125 -103h-80l107 103h98z" />
    <glyph glyph-name="Ecircumflex" unicode="&#xca;" horiz-adv-x="505" 
d="M300 835l137 -105h-88l-73 57l-73 -57h-87l138 105h46zM458 700v-62h-310v-246h275v-62h-275v-268h310v-62h-376v700h376z" />
    <glyph glyph-name="Edieresis" unicode="&#xcb;" horiz-adv-x="505" 
d="M458 700v-62h-310v-246h275v-62h-275v-268h310v-62h-376v700h376zM187 824q19 0 32 -13t13 -32t-13 -32t-32 -13t-32.5 13t-13.5 32t13 32t33 13zM365 824q19 0 32 -13t13 -32t-13 -32t-32 -13t-32.5 13t-13.5 32t13 32t33 13z" />
    <glyph glyph-name="Igrave" unicode="&#xcc;" 
d="M52 834l107 -103h-79l-126 103h98zM148 700v-700h-66v700h66z" />
    <glyph glyph-name="Iacute" unicode="&#xcd;" 
d="M270 834l-125 -103h-80l107 103h98zM148 700v-700h-66v700h66z" />
    <glyph glyph-name="Icircumflex" unicode="&#xce;" 
d="M139 835l137 -105h-88l-73 57l-73 -57h-87l138 105h46zM148 700v-700h-66v700h66z" />
    <glyph glyph-name="Idieresis" unicode="&#xcf;" 
d="M26 824q19 0 32 -13t13 -32t-13 -32t-32 -13t-32.5 13t-13.5 32t13 32t33 13zM204 824q19 0 32 -13t13 -32t-13 -32t-32 -13t-32.5 13t-13.5 32t13 32t33 13zM148 700v-700h-66v700h66z" />
    <glyph glyph-name="Eth" unicode="&#xd0;" horiz-adv-x="736" 
d="M337 700q161 0 256.5 -95.5t95.5 -254.5t-95.5 -254.5t-256.5 -95.5h-246v321h-93v55h93v324h246zM337 638h-180v-262h148v-55h-148v-259h180q131 0 208 77t77 211q0 133 -77 210.5t-208 77.5z" />
    <glyph glyph-name="Ntilde" unicode="&#xd1;" horiz-adv-x="701" 
d="M619 700v-700h-64l-380 544l-27 41v-585h-66v700h63l378 -541l30 -44v585h66zM290 848q27 0 46.5 -11t28.5 -23q9 -13 22 -24t28 -11q23 0 34.5 15t11.5 45h48q0 -51 -24.5 -81.5t-72.5 -30.5q-27 0 -47 11t-29 24t-22 24t-28 11q-23 0 -34.5 -15t-11.5 -46h-48
q0 51 24.5 81.5t73.5 30.5z" />
    <glyph glyph-name="Ograve" unicode="&#xd2;" horiz-adv-x="793" 
d="M751 351q0 -156 -100 -260t-254 -104t-254.5 104t-100.5 260q0 155 100.5 258.5t254.5 103.5t254 -103.5t100 -258.5zM397 651q-125 0 -205.5 -85.5t-80.5 -214.5q0 -130 80.5 -216t205.5 -86q124 0 204.5 86t80.5 216q0 129 -80.5 214.5t-204.5 85.5zM333 844l107 -103
h-79l-126 103h98z" />
    <glyph glyph-name="Oacute" unicode="&#xd3;" horiz-adv-x="793" 
d="M751 351q0 -156 -100 -260t-254 -104t-254.5 104t-100.5 260q0 155 100.5 258.5t254.5 103.5t254 -103.5t100 -258.5zM397 651q-125 0 -205.5 -85.5t-80.5 -214.5q0 -130 80.5 -216t205.5 -86q124 0 204.5 86t80.5 216q0 129 -80.5 214.5t-204.5 85.5zM552 844l-125 -103
h-80l107 103h98z" />
    <glyph glyph-name="Ocircumflex" unicode="&#xd4;" horiz-adv-x="793" 
d="M420 845l137 -105h-88l-73 57l-73 -57h-87l138 105h46zM751 351q0 -156 -100 -260t-254 -104t-254.5 104t-100.5 260q0 155 100.5 258.5t254.5 103.5t254 -103.5t100 -258.5zM397 651q-125 0 -205.5 -85.5t-80.5 -214.5q0 -130 80.5 -216t205.5 -86q124 0 204.5 86
t80.5 216q0 129 -80.5 214.5t-204.5 85.5z" />
    <glyph glyph-name="Otilde" unicode="&#xd5;" horiz-adv-x="793" 
d="M335 858q27 0 46.5 -11t28.5 -23q9 -13 22 -24t28 -11q23 0 34.5 15t11.5 45h48q0 -51 -24.5 -81.5t-72.5 -30.5q-27 0 -47 11t-29 24t-22 24t-28 11q-23 0 -34.5 -15t-11.5 -46h-48q0 51 24.5 81.5t73.5 30.5zM751 351q0 -156 -100 -260t-254 -104t-254.5 104
t-100.5 260q0 155 100.5 258.5t254.5 103.5t254 -103.5t100 -258.5zM397 651q-125 0 -205.5 -85.5t-80.5 -214.5q0 -130 80.5 -216t205.5 -86q124 0 204.5 86t80.5 216q0 129 -80.5 214.5t-204.5 85.5z" />
    <glyph glyph-name="Odieresis" unicode="&#xd6;" horiz-adv-x="793" 
d="M751 351q0 -156 -100 -260t-254 -104t-254.5 104t-100.5 260q0 155 100.5 258.5t254.5 103.5t254 -103.5t100 -258.5zM397 651q-125 0 -205.5 -85.5t-80.5 -214.5q0 -130 80.5 -216t205.5 -86q124 0 204.5 86t80.5 216q0 129 -80.5 214.5t-204.5 85.5zM306 834
q19 0 32 -13t13 -32t-13 -32t-32 -13t-32.5 13t-13.5 32t13 32t33 13zM484 834q19 0 32 -13t13 -32t-13 -32t-32 -13t-32.5 13t-13.5 32t13 32t33 13z" />
    <glyph glyph-name="multiply" unicode="&#xd7;" horiz-adv-x="410" 
d="M339 526l42 -43l-134 -135l134 -134l-42 -41l-133 134l-135 -134l-42 42l134 135l-134 134l41 42l134 -134z" />
    <glyph glyph-name="Oslash" unicode="&#xd8;" horiz-adv-x="793" 
d="M397 713q39 0 75.5 -7.5t70.5 -22.5l43 78l54 -26l-44 -80q72 -49 113.5 -128.5t41.5 -175.5q0 -156 -100 -260t-254 -104q-40 0 -77.5 8t-72.5 23l-44 -82l-54 26l46 84q-72 48 -112.5 128t-40.5 177q0 155 100.5 258.5t254.5 103.5zM682 351q0 78 -31 142.5t-86 104.5
l-287 -525q26 -12 56 -18t63 -6q124 0 204.5 86t80.5 216zM397 651q-125 0 -205.5 -85.5t-80.5 -214.5q0 -78 30 -142t85 -105l287 523q-28 12 -57 18t-59 6z" />
    <glyph glyph-name="Ugrave" unicode="&#xd9;" horiz-adv-x="684" 
d="M612 700v-426q0 -141 -70.5 -214t-199.5 -73q-128 0 -198.5 73t-70.5 214v426h66v-426q0 -225 203 -225t203 225v426h67zM279 834l107 -103h-79l-126 103h98z" />
    <glyph glyph-name="Uacute" unicode="&#xda;" horiz-adv-x="684" 
d="M612 700v-426q0 -141 -70.5 -214t-199.5 -73q-128 0 -198.5 73t-70.5 214v426h66v-426q0 -225 203 -225t203 225v426h67zM498 834l-125 -103h-80l107 103h98z" />
    <glyph glyph-name="Ucircumflex" unicode="&#xdb;" horiz-adv-x="684" 
d="M366 835l137 -105h-88l-73 57l-73 -57h-87l138 105h46zM612 700v-426q0 -141 -70.5 -214t-199.5 -73q-128 0 -198.5 73t-70.5 214v426h66v-426q0 -225 203 -225t203 225v426h67z" />
    <glyph glyph-name="Udieresis" unicode="&#xdc;" horiz-adv-x="684" 
d="M252 824q19 0 32 -13t13 -32t-13 -32t-32 -13t-32.5 13t-13.5 32t13 32t33 13zM430 824q19 0 32 -13t13 -32t-13 -32t-32 -13t-32.5 13t-13.5 32t13 32t33 13zM612 700v-426q0 -141 -70.5 -214t-199.5 -73q-128 0 -198.5 73t-70.5 214v426h66v-426q0 -225 203 -225
t203 225v426h67z" />
    <glyph glyph-name="Yacute" unicode="&#xdd;" horiz-adv-x="667" 
d="M650 700l-283 -432v-268h-67v268l-283 432h78l210 -320l28 -47l28 47l211 320h78zM489 834l-125 -103h-80l107 103h98z" />
    <glyph glyph-name="Thorn" unicode="&#xde;" horiz-adv-x="549" 
d="M148 700v-115h144q100 0 157.5 -53t57.5 -141t-57.5 -140t-157.5 -52h-144v-199h-66v700h66zM292 522h-144v-260h144q68 0 108.5 34t40.5 95t-40 96t-109 35z" />
    <glyph glyph-name="germandbls" unicode="&#xdf;" horiz-adv-x="540" 
d="M268 732v-61q-59 0 -89 -31t-30 -101v-37h332v-51l-167 -242q101 -7 158 -68t57 -143q0 -101 -60 -159.5t-174 -58.5q-20 0 -40.5 2t-41.5 6l6 64q22 -6 40 -8.5t32 -2.5q83 0 128 39.5t45 117.5q0 71 -50 112t-132 41h-47v41l171 251h-257v-443h-65v539q0 97 46 145
t138 48z" />
    <glyph glyph-name="agrave" unicode="&#xe0;" horiz-adv-x="482" 
d="M239 513q83 0 127.5 -46.5t44.5 -131.5v-335h-60l-2 73q-20 -36 -62 -60t-97 -24q-65 0 -103.5 37t-38.5 97q0 58 34 93.5t102 49.5l163 34v33q0 61 -27 91t-81 30q-50 0 -82 -27.5t-32 -80.5h-63q1 72 49.5 119.5t127.5 47.5zM347 243l-151 -33q-41 -10 -62.5 -29
t-21.5 -57q0 -36 22.5 -56t63.5 -20q36 0 65 13.5t51 40.5q17 22 25 46.5t8 52.5v42zM155 732l122 -158h-66l-137 158h81z" />
    <glyph glyph-name="aacute" unicode="&#xe1;" horiz-adv-x="482" 
d="M239 513q83 0 127.5 -46.5t44.5 -131.5v-335h-60l-2 73q-20 -36 -62 -60t-97 -24q-65 0 -103.5 37t-38.5 97q0 58 34 93.5t102 49.5l163 34v33q0 61 -27 91t-81 30q-50 0 -82 -27.5t-32 -80.5h-63q1 72 49.5 119.5t127.5 47.5zM347 243l-151 -33q-41 -10 -62.5 -29
t-21.5 -57q0 -36 22.5 -56t63.5 -20q36 0 65 13.5t51 40.5q17 22 25 46.5t8 52.5v42zM405 732l-137 -158h-66l122 158h81z" />
    <glyph glyph-name="acircumflex" unicode="&#xe2;" horiz-adv-x="482" 
d="M239 513q83 0 127.5 -46.5t44.5 -131.5v-335h-60l-2 73q-20 -36 -62 -60t-97 -24q-65 0 -103.5 37t-38.5 97q0 58 34 93.5t102 49.5l163 34v33q0 61 -27 91t-81 30q-50 0 -82 -27.5t-32 -80.5h-63q1 72 49.5 119.5t127.5 47.5zM347 243l-151 -33q-41 -10 -62.5 -29
t-21.5 -57q0 -36 22.5 -56t63.5 -20q36 0 65 13.5t51 40.5q17 22 25 46.5t8 52.5v42zM259 732l134 -158h-73l-78 99l-79 -99h-73l134 158h35z" />
    <glyph glyph-name="atilde" unicode="&#xe3;" horiz-adv-x="482" 
d="M239 513q83 0 127.5 -46.5t44.5 -131.5v-335h-60l-2 73q-20 -36 -62 -60t-97 -24q-65 0 -103.5 37t-38.5 97q0 58 34 93.5t102 49.5l163 34v33q0 61 -27 91t-81 30q-50 0 -82 -27.5t-32 -80.5h-63q1 72 49.5 119.5t127.5 47.5zM347 243l-151 -33q-41 -10 -62.5 -29
t-21.5 -57q0 -36 22.5 -56t63.5 -20q36 0 65 13.5t51 40.5q17 22 25 46.5t8 52.5v42zM185 698q26 0 45.5 -12t28.5 -26q9 -15 22.5 -27t28.5 -12q23 0 34.5 17t11.5 51h48q0 -54 -24.5 -87t-72.5 -33q-27 0 -46.5 12t-28.5 27t-22.5 27t-28.5 12q-23 0 -34.5 -17t-11.5 -52
h-48q0 55 24.5 87.5t73.5 32.5z" />
    <glyph glyph-name="adieresis" unicode="&#xe4;" horiz-adv-x="482" 
d="M239 513q83 0 127.5 -46.5t44.5 -131.5v-335h-60l-2 73q-20 -36 -62 -60t-97 -24q-65 0 -103.5 37t-38.5 97q0 58 34 93.5t102 49.5l163 34v33q0 61 -27 91t-81 30q-50 0 -82 -27.5t-32 -80.5h-63q1 72 49.5 119.5t127.5 47.5zM347 243l-151 -33q-41 -10 -62.5 -29
t-21.5 -57q0 -36 22.5 -56t63.5 -20q36 0 65 13.5t51 40.5q17 22 25 46.5t8 52.5v42zM185 664q13 -14 13 -33t-13 -32t-32 -13t-32 13q-14 13 -14 32t14 33q13 13 32 13t32 -13zM363 664q13 -14 13 -33t-13 -32t-32 -13t-32 13q-14 13 -14 32t14 33q13 13 32 13t32 -13z" />
    <glyph glyph-name="aring" unicode="&#xe5;" horiz-adv-x="482" 
d="M239 513q83 0 127.5 -46.5t44.5 -131.5v-335h-60l-2 73q-20 -36 -62 -60t-97 -24q-65 0 -103.5 37t-38.5 97q0 58 34 93.5t102 49.5l163 34v33q0 61 -27 91t-81 30q-50 0 -82 -27.5t-32 -80.5h-63q1 72 49.5 119.5t127.5 47.5zM347 243l-151 -33q-41 -10 -62.5 -29
t-21.5 -57q0 -36 22.5 -56t63.5 -20q36 0 65 13.5t51 40.5q17 22 25 46.5t8 52.5v42zM347 656q0 -42 -28.5 -70t-73.5 -28t-73.5 28t-28.5 70q0 44 28.5 72.5t73.5 28.5t73.5 -28.5t28.5 -72.5zM190 657q0 -22 16 -38.5t39 -16.5q24 0 39.5 16.5t15.5 38.5q0 24 -15.5 39.5
t-39.5 15.5t-39.5 -16t-15.5 -39z" />
    <glyph glyph-name="ae" unicode="&#xe6;" horiz-adv-x="860" 
d="M582 513q103 0 165.5 -65.5t62.5 -185.5v-35h-399q4 -82 52.5 -130.5t121.5 -48.5q59 0 97.5 23.5t56.5 70.5h65q-23 -73 -79.5 -113t-140.5 -40q-68 0 -121.5 32t-83.5 89q-30 -60 -78.5 -90.5t-105.5 -30.5q-69 0 -108 37t-39 97q0 58 34.5 93.5t102.5 49.5l162 33v33
q0 61 -27 91.5t-82 30.5q-50 0 -81.5 -27.5t-31.5 -80.5h-63q1 72 48.5 119.5t127.5 47.5q59 0 98.5 -23.5t58.5 -70.5q33 47 80 70.5t107 23.5zM582 454q-72 0 -118.5 -47.5t-52.5 -122.5h335q0 79 -44.5 124.5t-119.5 45.5zM347 243l-143 -31q-48 -11 -70 -31t-22 -58
q0 -34 22.5 -54.5t66.5 -20.5q36 0 64 13t48 39q17 23 25.5 47t8.5 49v47z" />
    <glyph glyph-name="ccedilla" unicode="&#xe7;" horiz-adv-x="537" 
d="M276 513q82 0 140.5 -40.5t78.5 -115.5h-65q-16 46 -57.5 71.5t-95.5 25.5q-76 0 -126 -58t-50 -146q0 -86 50.5 -144t126.5 -58q54 0 95 26t57 71h65q-20 -71 -73.5 -111t-128.5 -44l-13 -53h11q38 0 61.5 -22t23.5 -59q0 -40 -28 -63t-71 -23q-30 0 -53.5 9.5
t-39.5 28.5l29 36q12 -15 28 -22t36 -7q23 0 37.5 11t14.5 29q0 19 -12.5 29.5t-32.5 10.5q-7 0 -16 -1.5t-20 -3.5l-22 7l24 94q-94 9 -153.5 81.5t-59.5 177.5q0 114 67.5 188.5t171.5 74.5z" />
    <glyph glyph-name="egrave" unicode="&#xe8;" horiz-adv-x="550" 
d="M272 513q103 0 165.5 -65.5t62.5 -185.5v-35h-399q4 -82 52.5 -130.5t121.5 -48.5q59 0 97.5 23.5t56.5 70.5h65q-23 -73 -79.5 -113t-140.5 -40q-104 0 -170.5 72t-66.5 189q0 115 64.5 189t170.5 74zM272 454q-72 0 -118.5 -47.5t-52.5 -122.5h335q0 79 -44.5 124.5
t-119.5 45.5zM182 732l122 -158h-66l-137 158h81z" />
    <glyph glyph-name="eacute" unicode="&#xe9;" horiz-adv-x="550" 
d="M272 513q103 0 165.5 -65.5t62.5 -185.5v-35h-399q4 -82 52.5 -130.5t121.5 -48.5q59 0 97.5 23.5t56.5 70.5h65q-23 -73 -79.5 -113t-140.5 -40q-104 0 -170.5 72t-66.5 189q0 115 64.5 189t170.5 74zM272 454q-72 0 -118.5 -47.5t-52.5 -122.5h335q0 79 -44.5 124.5
t-119.5 45.5zM432 732l-137 -158h-66l122 158h81z" />
    <glyph glyph-name="ecircumflex" unicode="&#xea;" horiz-adv-x="550" 
d="M272 513q103 0 165.5 -65.5t62.5 -185.5v-35h-399q4 -82 52.5 -130.5t121.5 -48.5q59 0 97.5 23.5t56.5 70.5h65q-23 -73 -79.5 -113t-140.5 -40q-104 0 -170.5 72t-66.5 189q0 115 64.5 189t170.5 74zM272 454q-72 0 -118.5 -47.5t-52.5 -122.5h335q0 79 -44.5 124.5
t-119.5 45.5zM286 732l134 -158h-73l-78 99l-79 -99h-73l134 158h35z" />
    <glyph glyph-name="edieresis" unicode="&#xeb;" horiz-adv-x="550" 
d="M272 513q103 0 165.5 -65.5t62.5 -185.5v-35h-399q4 -82 52.5 -130.5t121.5 -48.5q59 0 97.5 23.5t56.5 70.5h65q-23 -73 -79.5 -113t-140.5 -40q-104 0 -170.5 72t-66.5 189q0 115 64.5 189t170.5 74zM272 454q-72 0 -118.5 -47.5t-52.5 -122.5h335q0 79 -44.5 124.5
t-119.5 45.5zM218 664q13 -14 13 -33t-13 -32t-32 -13t-32 13q-14 13 -14 32t14 33q13 13 32 13t32 -13zM396 664q13 -14 13 -33t-13 -32t-32 -13t-32 13q-14 13 -14 32t14 33q13 13 32 13t32 -13z" />
    <glyph glyph-name="igrave" unicode="&#xec;" 
d="M29 732l122 -158h-66l-137 158h81zM147 502v-502h-63v502h63z" />
    <glyph glyph-name="iacute" unicode="&#xed;" 
d="M278 732l-137 -158h-66l122 158h81zM147 502v-502h-63v502h63z" />
    <glyph glyph-name="icircumflex" unicode="&#xee;" 
d="M133 732l134 -158h-73l-78 99l-79 -99h-73l134 158h35zM147 502v-502h-63v502h63z" />
    <glyph glyph-name="idieresis" unicode="&#xef;" 
d="M59 664q13 -14 13 -33t-13 -32t-32 -13t-32 13q-14 13 -14 32t14 33q13 13 32 13t32 -13zM237 664q13 -14 13 -33t-13 -32t-32 -13t-32 13q-14 13 -14 32t14 33q13 13 32 13t32 -13zM147 502v-502h-63v502h63z" />
    <glyph glyph-name="eth" unicode="&#xf0;" horiz-adv-x="549" 
d="M411 624v-59h-100l132 -160q34 -40 50.5 -83.5t16.5 -91.5q0 -104 -65.5 -172.5t-169.5 -68.5q-105 0 -170 68t-65 173t65 172.5t170 67.5q7 0 15.5 -0.5t19.5 -1.5l-80 97h-152v59h104l-87 106h80l87 -106h149zM446 230q0 37 -12.5 71t-38.5 64q-23 23 -53 34.5
t-67 11.5q-76 0 -123.5 -51t-47.5 -130t47.5 -131t123.5 -52t123.5 52t47.5 131z" />
    <glyph glyph-name="ntilde" unicode="&#xf1;" horiz-adv-x="523" 
d="M212 698q26 0 45.5 -12t28.5 -26q9 -15 22.5 -27t28.5 -12q23 0 34.5 17t11.5 51h48q0 -54 -24.5 -87t-72.5 -33q-27 0 -46.5 12t-28.5 27t-22.5 27t-28.5 12q-23 0 -34.5 -17t-11.5 -52h-48q0 55 24.5 87.5t73.5 32.5zM285 513q79 0 121.5 -52t42.5 -137v-324h-63v318
q0 65 -29.5 99.5t-81.5 34.5q-58 0 -95 -47t-37 -126v-279h-63v502h58l3 -76q15 35 54 61t90 26z" />
    <glyph glyph-name="ograve" unicode="&#xf2;" horiz-adv-x="573" 
d="M467 439q69 -74 69 -188t-69 -188t-180 -74t-180 74q-70 74 -70 188t70 188q69 74 180 74t180 -74zM288 454q-84 0 -135.5 -57.5t-51.5 -145.5t51.5 -145.5t135.5 -57.5q83 0 133.5 57.5t50.5 145.5t-50.5 145.5t-133.5 57.5zM200 732l122 -158h-66l-137 158h81z" />
    <glyph glyph-name="oacute" unicode="&#xf3;" horiz-adv-x="573" 
d="M467 439q69 -74 69 -188t-69 -188t-180 -74t-180 74q-70 74 -70 188t70 188q69 74 180 74t180 -74zM288 454q-84 0 -135.5 -57.5t-51.5 -145.5t51.5 -145.5t135.5 -57.5q83 0 133.5 57.5t50.5 145.5t-50.5 145.5t-133.5 57.5zM449 732l-137 -158h-66l122 158h81z" />
    <glyph glyph-name="ocircumflex" unicode="&#xf4;" horiz-adv-x="573" 
d="M303 732l134 -158h-73l-78 99l-79 -99h-73l134 158h35zM467 439q69 -74 69 -188t-69 -188t-180 -74t-180 74q-70 74 -70 188t70 188q69 74 180 74t180 -74zM288 454q-84 0 -135.5 -57.5t-51.5 -145.5t51.5 -145.5t135.5 -57.5q83 0 133.5 57.5t50.5 145.5t-50.5 145.5
t-133.5 57.5z" />
    <glyph glyph-name="otilde" unicode="&#xf5;" horiz-adv-x="573" 
d="M226 698q26 0 45.5 -12t28.5 -26q9 -15 22.5 -27t28.5 -12q23 0 34.5 17t11.5 51h48q0 -54 -24.5 -87t-72.5 -33q-27 0 -46.5 12t-28.5 27t-22.5 27t-28.5 12q-23 0 -34.5 -17t-11.5 -52h-48q0 55 24.5 87.5t73.5 32.5zM467 439q69 -74 69 -188t-69 -188t-180 -74
t-180 74q-70 74 -70 188t70 188q69 74 180 74t180 -74zM288 454q-84 0 -135.5 -57.5t-51.5 -145.5t51.5 -145.5t135.5 -57.5q83 0 133.5 57.5t50.5 145.5t-50.5 145.5t-133.5 57.5z" />
    <glyph glyph-name="odieresis" unicode="&#xf6;" horiz-adv-x="573" 
d="M467 439q69 -74 69 -188t-69 -188t-180 -74t-180 74q-70 74 -70 188t70 188q69 74 180 74t180 -74zM288 454q-84 0 -135.5 -57.5t-51.5 -145.5t51.5 -145.5t135.5 -57.5q83 0 133.5 57.5t50.5 145.5t-50.5 145.5t-133.5 57.5zM229 664q13 -14 13 -33t-13 -32t-32 -13
t-32 13q-14 13 -14 32t14 33q13 13 32 13t32 -13zM407 664q13 -14 13 -33t-13 -32t-32 -13t-32 13q-14 13 -14 32t14 33q13 13 32 13t32 -13z" />
    <glyph glyph-name="divide" unicode="&#xf7;" horiz-adv-x="472" 
d="M279 527q0 -20 -14.5 -34t-35.5 -14t-35 14t-14 34q0 21 14 35t35 14t35.5 -14t14.5 -35zM180 172q0 20 14 34.5t35 14.5t35.5 -14t14.5 -35t-14.5 -34.5t-35.5 -13.5t-35 13.5t-14 34.5zM442 379v-58h-412v58h412z" />
    <glyph glyph-name="oslash" unicode="&#xf8;" horiz-adv-x="573" 
d="M287 513q27 0 52.5 -5t49.5 -15l39 73l44 -21l-40 -76q52 -37 78 -91.5t26 -126.5q0 -114 -69 -188t-180 -74q-26 0 -51.5 4.5t-49.5 14.5l-39 -73l-45 22l40 75q-50 35 -77.5 92t-27.5 127q0 114 69.5 188t180.5 74zM288 454q-84 0 -135.5 -57.5t-51.5 -145.5
q0 -53 18 -94t53 -70l188 353q-16 7 -34 10.5t-38 3.5zM472 251q0 53 -17.5 94t-52.5 69l-188 -352q17 -7 35.5 -10.5t38.5 -3.5q83 0 133.5 57.5t50.5 145.5z" />
    <glyph glyph-name="ugrave" unicode="&#xf9;" horiz-adv-x="517" 
d="M437 502v-502h-59l-2 75q-15 -36 -53 -61t-89 -25q-79 0 -120.5 51.5t-41.5 137.5v324h63v-318q0 -66 29 -100.5t81 -34.5q57 0 93 46t36 123v284h63zM170 732l122 -158h-66l-137 158h81z" />
    <glyph glyph-name="uacute" unicode="&#xfa;" horiz-adv-x="517" 
d="M437 502v-502h-59l-2 75q-15 -36 -53 -61t-89 -25q-79 0 -120.5 51.5t-41.5 137.5v324h63v-318q0 -66 29 -100.5t81 -34.5q57 0 93 46t36 123v284h63zM420 732l-137 -158h-66l122 158h81z" />
    <glyph glyph-name="ucircumflex" unicode="&#xfb;" horiz-adv-x="517" 
d="M273 732l134 -158h-73l-78 99l-79 -99h-73l134 158h35zM437 502v-502h-59l-2 75q-15 -36 -53 -61t-89 -25q-79 0 -120.5 51.5t-41.5 137.5v324h63v-318q0 -66 29 -100.5t81 -34.5q57 0 93 46t36 123v284h63z" />
    <glyph glyph-name="udieresis" unicode="&#xfc;" horiz-adv-x="517" 
d="M437 502v-502h-59l-2 75q-15 -36 -53 -61t-89 -25q-79 0 -120.5 51.5t-41.5 137.5v324h63v-318q0 -66 29 -100.5t81 -34.5q57 0 93 46t36 123v284h63zM199 664q13 -14 13 -33t-13 -32t-32 -13t-32 13q-14 13 -14 32t14 33q13 13 32 13t32 -13zM377 664q13 -14 13 -33
t-13 -32t-32 -13t-32 13q-14 13 -14 32t14 33q13 13 32 13t32 -13z" />
    <glyph glyph-name="yacute" unicode="&#xfd;" horiz-adv-x="495" 
d="M476 502l-283 -717h-67l88 223l-195 494h67l151 -389l10 -35l11 35l150 389h68zM410 732l-137 -158h-66l122 158h81z" />
    <glyph glyph-name="thorn" unicode="&#xfe;" horiz-adv-x="601" 
d="M153 730v-311q21 37 68 65.5t110 28.5q107 0 170 -74t63 -188t-64 -188t-171 -74q-64 0 -109.5 27.5t-66.5 67.5v-299h-64v945h64zM325 453q-72 0 -122.5 -49t-50.5 -134v-31q0 -88 50 -139.5t121 -51.5q79 0 128 57t49 146t-47.5 145.5t-127.5 56.5z" />
    <glyph glyph-name="ydieresis" unicode="&#xff;" horiz-adv-x="495" 
d="M476 502l-283 -717h-67l88 223l-195 494h67l151 -389l10 -35l11 35l150 389h68zM190 664q13 -14 13 -33t-13 -32t-32 -13t-32 13q-14 13 -14 32t14 33q13 13 32 13t32 -13zM368 664q13 -14 13 -33t-13 -32t-32 -13t-32 13q-14 13 -14 32t14 33q13 13 32 13t32 -13z" />
    <glyph glyph-name="Amacron" unicode="&#x100;" horiz-adv-x="675" 
d="M337 609l-13 -37l-126 -306h278l-126 306zM369 700l287 -700h-74l-83 203h-324l-81 -203h-74l286 700h63zM463 797v-54h-253v54h253z" />
    <glyph glyph-name="amacron" unicode="&#x101;" horiz-adv-x="482" 
d="M239 513q83 0 127.5 -46.5t44.5 -131.5v-335h-60l-2 73q-20 -36 -62 -60t-97 -24q-65 0 -103.5 37t-38.5 97q0 58 34 93.5t102 49.5l163 34v33q0 61 -27 91t-81 30q-50 0 -82 -27.5t-32 -80.5h-63q1 72 49.5 119.5t127.5 47.5zM347 243l-151 -33q-41 -10 -62.5 -29
t-21.5 -57q0 -36 22.5 -56t63.5 -20q36 0 65 13.5t51 40.5q17 22 25 46.5t8 52.5v42zM376 655v-55h-253v55h253z" />
    <glyph glyph-name="Abreve" unicode="&#x102;" horiz-adv-x="675" 
d="M337 609l-13 -37l-126 -306h278l-126 306zM369 700l287 -700h-74l-83 203h-324l-81 -203h-74l286 700h63zM472 843q0 -51 -37.5 -82.5t-97.5 -31.5q-61 0 -98.5 31.5t-37.5 82.5h56q0 -29 21.5 -46.5t58.5 -17.5q36 0 57 17.5t21 46.5h57z" />
    <glyph glyph-name="abreve" unicode="&#x103;" horiz-adv-x="482" 
d="M239 513q83 0 127.5 -46.5t44.5 -131.5v-335h-60l-2 73q-20 -36 -62 -60t-97 -24q-65 0 -103.5 37t-38.5 97q0 58 34 93.5t102 49.5l163 34v33q0 61 -27 91t-81 30q-50 0 -82 -27.5t-32 -80.5h-63q1 72 49.5 119.5t127.5 47.5zM347 243l-151 -33q-41 -10 -62.5 -29
t-21.5 -57q0 -36 22.5 -56t63.5 -20q36 0 65 13.5t51 40.5q17 22 25 46.5t8 52.5v42zM381 705q0 -57 -37.5 -95t-97.5 -38q-61 0 -98.5 37.5t-37.5 95.5h56q0 -36 21.5 -59.5t58.5 -23.5q35 0 57 24t22 59h56z" />
    <glyph glyph-name="Aogonek" unicode="&#x104;" horiz-adv-x="675" 
d="M369 700l287 -700h-14q-30 -15 -45 -36t-15 -48q0 -29 15.5 -45t42.5 -16q13 0 23.5 2t19.5 7l14 -45q-10 -6 -25 -9t-34 -3q-46 0 -76 29t-30 79q0 28 11.5 51.5t34.5 41.5l-79 195h-324l-81 -203h-74l286 700h63zM337 609l-13 -37l-126 -306h278l-126 306z" />
    <glyph glyph-name="aogonek" unicode="&#x105;" horiz-adv-x="482" 
d="M239 513q83 0 127.5 -46.5t44.5 -131.5v-335h-4q-30 -15 -45 -36t-15 -48q0 -29 15.5 -45t42.5 -16q13 0 23.5 2t19.5 7l14 -45q-10 -6 -25 -9t-34 -3q-46 0 -76 29t-30 79q0 31 13.5 55.5t39.5 42.5l-1 60q-20 -36 -62 -60t-97 -24q-65 0 -103.5 37t-38.5 97
q0 58 34 93.5t102 49.5l163 34v33q0 61 -27 91t-81 30q-50 0 -82 -27.5t-32 -80.5h-63q1 72 49.5 119.5t127.5 47.5zM347 243l-151 -33q-41 -10 -62.5 -29t-21.5 -57q0 -36 22.5 -56t63.5 -20q36 0 65 13.5t51 40.5q17 22 25 46.5t8 52.5v42z" />
    <glyph glyph-name="Cacute" unicode="&#x106;" horiz-adv-x="723" 
d="M386 713q116 0 195.5 -56t109.5 -155h-74q-24 69 -82.5 109t-148.5 40q-120 0 -197.5 -85.5t-77.5 -215.5t77.5 -215.5t197.5 -85.5q91 0 149.5 41t82.5 110h74q-31 -102 -109.5 -157.5t-196.5 -55.5q-150 0 -247 103.5t-97 259.5t97 259.5t247 103.5zM541 844l-125 -103
h-80l107 103h98z" />
    <glyph glyph-name="cacute" unicode="&#x107;" horiz-adv-x="537" 
d="M276 513q82 0 140.5 -40.5t78.5 -115.5h-65q-16 46 -57.5 71.5t-95.5 25.5q-76 0 -126 -58t-50 -146q0 -86 50.5 -144t126.5 -58q54 0 95 26t57 71h65q-21 -75 -79.5 -115.5t-139.5 -40.5q-104 0 -171.5 74.5t-67.5 186.5q0 114 67.5 188.5t171.5 74.5zM439 732
l-137 -158h-66l122 158h81z" />
    <glyph glyph-name="Ccircumflex" unicode="&#x108;" horiz-adv-x="723" 
d="M386 713q116 0 195.5 -56t109.5 -155h-74q-24 69 -82.5 109t-148.5 40q-120 0 -197.5 -85.5t-77.5 -215.5t77.5 -215.5t197.5 -85.5q91 0 149.5 41t82.5 110h74q-31 -102 -109.5 -157.5t-196.5 -55.5q-150 0 -247 103.5t-97 259.5t97 259.5t247 103.5zM409 845l137 -105
h-88l-73 57l-73 -57h-87l138 105h46z" />
    <glyph glyph-name="ccircumflex" unicode="&#x109;" horiz-adv-x="537" 
d="M276 513q82 0 140.5 -40.5t78.5 -115.5h-65q-16 46 -57.5 71.5t-95.5 25.5q-76 0 -126 -58t-50 -146q0 -86 50.5 -144t126.5 -58q54 0 95 26t57 71h65q-21 -75 -79.5 -115.5t-139.5 -40.5q-104 0 -171.5 74.5t-67.5 186.5q0 114 67.5 188.5t171.5 74.5zM293 732l134 -158
h-73l-78 99l-79 -99h-73l134 158h35z" />
    <glyph glyph-name="Cdotaccent" unicode="&#x10a;" horiz-adv-x="723" 
d="M386 713q116 0 195.5 -56t109.5 -155h-74q-24 69 -82.5 109t-148.5 40q-120 0 -197.5 -85.5t-77.5 -215.5t77.5 -215.5t197.5 -85.5q91 0 149.5 41t82.5 110h74q-31 -102 -109.5 -157.5t-196.5 -55.5q-150 0 -247 103.5t-97 259.5t97 259.5t247 103.5zM385 839
q19 0 33 -13.5t14 -33.5t-13.5 -33.5t-33.5 -13.5t-34 13.5t-14 33.5t14 33.5t34 13.5z" />
    <glyph glyph-name="cdotaccent" unicode="&#x10b;" horiz-adv-x="537" 
d="M276 513q82 0 140.5 -40.5t78.5 -115.5h-65q-16 46 -57.5 71.5t-95.5 25.5q-76 0 -126 -58t-50 -146q0 -86 50.5 -144t126.5 -58q54 0 95 26t57 71h65q-21 -75 -79.5 -115.5t-139.5 -40.5q-104 0 -171.5 74.5t-67.5 186.5q0 114 67.5 188.5t171.5 74.5zM311 675
q14 -15 14 -35t-14 -34q-15 -14 -35 -14t-34 14q-15 14 -15 34t15 35q14 14 34 14t35 -14z" />
    <glyph glyph-name="Ccaron" unicode="&#x10c;" horiz-adv-x="723" 
d="M386 713q116 0 195.5 -56t109.5 -155h-74q-24 69 -82.5 109t-148.5 40q-120 0 -197.5 -85.5t-77.5 -215.5t77.5 -215.5t197.5 -85.5q91 0 149.5 41t82.5 110h74q-31 -102 -109.5 -157.5t-196.5 -55.5q-150 0 -247 103.5t-97 259.5t97 259.5t247 103.5zM546 842l-137 -105
h-46l-138 105h87l73 -56l73 56h88z" />
    <glyph glyph-name="ccaron" unicode="&#x10d;" horiz-adv-x="537" 
d="M276 513q82 0 140.5 -40.5t78.5 -115.5h-65q-16 46 -57.5 71.5t-95.5 25.5q-76 0 -126 -58t-50 -146q0 -86 50.5 -144t126.5 -58q54 0 95 26t57 71h65q-21 -75 -79.5 -115.5t-139.5 -40.5q-104 0 -171.5 74.5t-67.5 186.5q0 114 67.5 188.5t171.5 74.5zM427 720
l-134 -158h-35l-134 158h73l79 -99l78 99h73z" />
    <glyph glyph-name="Dcaron" unicode="&#x10e;" horiz-adv-x="727" 
d="M493 832l-137 -105h-46l-138 105h87l73 -56l73 56h88zM328 700q161 0 256.5 -95.5t95.5 -254.5t-95.5 -254.5t-256.5 -95.5h-246v700h246zM328 638h-180v-576h180q130 0 207.5 77t77.5 211q0 133 -77 210.5t-208 77.5z" />
    <glyph glyph-name="dcaron" unicode="&#x10f;" horiz-adv-x="709" 
d="M511 730v-730h-58l-2 85q-22 -38 -69 -67t-111 -29q-107 0 -170.5 74t-63.5 188t64 188t171 74q63 0 110 -28t67 -67v312h62zM278 453q-79 0 -128 -57t-49 -145q0 -89 48 -146t128 -57q71 0 121.5 51.5t50.5 137.5v21q0 89 -50.5 142t-120.5 53zM643 717q22 0 37 -15.5
t15 -39.5q0 -44 -17 -86t-51 -82l-23 10q15 25 24 53t13 59q-21 2 -34.5 15.5t-13.5 34.5t14.5 36t35.5 15z" />
    <glyph glyph-name="Dcroat" unicode="&#x110;" horiz-adv-x="736" 
d="M337 700q161 0 256.5 -95.5t95.5 -254.5t-95.5 -254.5t-256.5 -95.5h-246v321h-93v55h93v324h246zM337 638h-180v-262h148v-55h-148v-259h180q131 0 208 77t77 211q0 133 -77 210.5t-208 77.5z" />
    <glyph glyph-name="dcroat" unicode="&#x111;" horiz-adv-x="596" 
d="M511 730v-68h80v-53h-80v-609h-58l-2 85q-22 -38 -69 -67t-111 -29q-107 0 -170.5 74t-63.5 188t64 188t171 74q63 0 110 -28t67 -67v191h-112v53h112v68h62zM278 453q-79 0 -128 -57t-49 -145q0 -89 48 -146t128 -57q71 0 121.5 51.5t50.5 137.5v21q0 89 -50.5 142
t-120.5 53z" />
    <glyph glyph-name="Emacron" unicode="&#x112;" horiz-adv-x="505" 
d="M458 700v-62h-310v-246h275v-62h-275v-268h310v-62h-376v700h376zM401 797v-54h-253v54h253z" />
    <glyph glyph-name="emacron" unicode="&#x113;" horiz-adv-x="550" 
d="M272 513q103 0 165.5 -65.5t62.5 -185.5v-35h-399q4 -82 52.5 -130.5t121.5 -48.5q59 0 97.5 23.5t56.5 70.5h65q-23 -73 -79.5 -113t-140.5 -40q-104 0 -170.5 72t-66.5 189q0 115 64.5 189t170.5 74zM272 454q-72 0 -118.5 -47.5t-52.5 -122.5h335q0 79 -44.5 124.5
t-119.5 45.5zM396 655v-55h-253v55h253z" />
    <glyph glyph-name="Ebreve" unicode="&#x114;" horiz-adv-x="505" 
d="M458 700v-62h-310v-246h275v-62h-275v-268h310v-62h-376v700h376zM411 843q0 -51 -37.5 -82.5t-97.5 -31.5q-61 0 -98.5 31.5t-37.5 82.5h56q0 -29 21.5 -46.5t58.5 -17.5q36 0 57 17.5t21 46.5h57z" />
    <glyph glyph-name="ebreve" unicode="&#x115;" horiz-adv-x="550" 
d="M272 513q103 0 165.5 -65.5t62.5 -185.5v-35h-399q4 -82 52.5 -130.5t121.5 -48.5q59 0 97.5 23.5t56.5 70.5h65q-23 -73 -79.5 -113t-140.5 -40q-104 0 -170.5 72t-66.5 189q0 115 64.5 189t170.5 74zM272 454q-72 0 -118.5 -47.5t-52.5 -122.5h335q0 79 -44.5 124.5
t-119.5 45.5zM404 705q0 -57 -38 -95t-97 -38q-61 0 -98.5 37.5t-37.5 95.5h56q0 -36 21.5 -59.5t58.5 -23.5q35 0 57 24t22 59h56z" />
    <glyph glyph-name="Edotaccent" unicode="&#x116;" horiz-adv-x="505" 
d="M458 700v-62h-310v-246h275v-62h-275v-268h310v-62h-376v700h376zM277 829q19 0 33 -13.5t14 -33.5t-13.5 -33.5t-33.5 -13.5t-34 13.5t-14 33.5t14 33.5t34 13.5z" />
    <glyph glyph-name="edotaccent" unicode="&#x117;" horiz-adv-x="550" 
d="M272 513q103 0 165.5 -65.5t62.5 -185.5v-35h-399q4 -82 52.5 -130.5t121.5 -48.5q59 0 97.5 23.5t56.5 70.5h65q-23 -73 -79.5 -113t-140.5 -40q-104 0 -170.5 72t-66.5 189q0 115 64.5 189t170.5 74zM272 454q-72 0 -118.5 -47.5t-52.5 -122.5h335q0 79 -44.5 124.5
t-119.5 45.5zM304 675q14 -15 14 -35t-14 -34q-15 -14 -35 -14t-34 14q-15 14 -15 34t15 35q14 14 34 14t35 -14z" />
    <glyph glyph-name="Eogonek" unicode="&#x118;" horiz-adv-x="505" 
d="M458 700v-62h-310v-246h275v-62h-275v-268h310v-62h-42q-30 -15 -45 -36t-15 -48q0 -29 15.5 -45t42.5 -16q13 0 23.5 2t19.5 7l14 -45q-10 -6 -25 -9t-34 -3q-46 0 -76 29t-30 79q0 25 9.5 46.5t27.5 38.5h-261v700h376z" />
    <glyph glyph-name="eogonek" unicode="&#x119;" horiz-adv-x="550" 
d="M272 513q103 0 165.5 -65.5t62.5 -185.5v-35h-399q4 -82 52.5 -130.5t121.5 -48.5q59 0 97.5 23.5t56.5 70.5h65q-14 -46 -41 -78.5t-67 -51.5q-19 -13 -28.5 -31t-9.5 -40q0 -29 15.5 -45t42.5 -16q13 0 23.5 2t19.5 7l14 -45q-10 -6 -25 -9t-34 -3q-46 0 -76 29t-30 79
q0 14 3 27t8 24q-11 -1 -19.5 -1.5t-15.5 -0.5q-104 0 -170.5 72t-66.5 189q0 115 64.5 189t170.5 74zM272 454q-72 0 -118.5 -47.5t-52.5 -122.5h335q0 79 -44.5 124.5t-119.5 45.5z" />
    <glyph glyph-name="Ecaron" unicode="&#x11a;" horiz-adv-x="505" 
d="M437 832l-137 -105h-46l-138 105h87l73 -56l73 56h88zM458 700v-62h-310v-246h275v-62h-275v-268h310v-62h-376v700h376z" />
    <glyph glyph-name="ecaron" unicode="&#x11b;" horiz-adv-x="550" 
d="M272 513q103 0 165.5 -65.5t62.5 -185.5v-35h-399q4 -82 52.5 -130.5t121.5 -48.5q59 0 97.5 23.5t56.5 70.5h65q-23 -73 -79.5 -113t-140.5 -40q-104 0 -170.5 72t-66.5 189q0 115 64.5 189t170.5 74zM272 454q-72 0 -118.5 -47.5t-52.5 -122.5h335q0 79 -44.5 124.5
t-119.5 45.5zM420 720l-134 -158h-35l-134 158h73l79 -99l78 99h73z" />
    <glyph glyph-name="Gcircumflex" unicode="&#x11c;" horiz-adv-x="748" 
d="M386 713q116 0 195.5 -56t109.5 -155h-74q-24 69 -82.5 109t-148.5 40q-120 0 -197.5 -85.5t-77.5 -215.5t77.5 -215.5t198.5 -85.5q112 0 178.5 59t67.5 178h-232v63h301v-40q0 -150 -83 -236t-232 -86q-151 0 -248 103.5t-97 259.5t97 259.5t247 103.5zM409 845
l137 -105h-88l-73 57l-73 -57h-87l138 105h46z" />
    <glyph glyph-name="gcircumflex" unicode="&#x11d;" horiz-adv-x="489" 
d="M497 502v-57h-97q18 -23 26.5 -50.5t8.5 -60.5q0 -76 -51 -127t-136 -51q-34 0 -63.5 8.5t-54.5 25.5q-14 -12 -21.5 -27t-7.5 -33q0 -29 20.5 -44t53.5 -15h139q78 0 116.5 -36.5t38.5 -98.5q0 -76 -53.5 -119t-148.5 -43q-104 0 -159.5 39.5t-55.5 113.5q0 35 14.5 60
t42.5 39q-30 12 -50 38.5t-20 63.5q0 31 13.5 56t39.5 44q-16 22 -24.5 48.5t-8.5 57.5q0 79 51 129t138 50q19 0 37 -2.5t34 -8.5h178zM122 334q0 -53 34 -87t91 -34q58 0 92 34t34 87q0 55 -34 88.5t-92 33.5t-91.5 -33.5t-33.5 -88.5zM306 14h-107q-35 -1 -59.5 -23
t-24.5 -62q0 -49 38 -73.5t114 -24.5q70 0 104.5 26t34.5 78q0 38 -26.5 58.5t-73.5 20.5zM267 732l134 -158h-73l-78 99l-79 -99h-73l134 158h35z" />
    <glyph glyph-name="Gbreve" unicode="&#x11e;" horiz-adv-x="748" 
d="M386 713q116 0 195.5 -56t109.5 -155h-74q-24 69 -82.5 109t-148.5 40q-120 0 -197.5 -85.5t-77.5 -215.5t77.5 -215.5t198.5 -85.5q112 0 178.5 59t67.5 178h-232v63h301v-40q0 -150 -83 -236t-232 -86q-151 0 -248 103.5t-97 259.5t97 259.5t247 103.5zM521 853
q0 -51 -37.5 -82.5t-97.5 -31.5q-61 0 -98.5 31.5t-37.5 82.5h56q0 -29 21.5 -46.5t58.5 -17.5q36 0 57 17.5t21 46.5h57z" />
    <glyph glyph-name="gbreve" unicode="&#x11f;" horiz-adv-x="489" 
d="M497 502v-57h-97q18 -23 26.5 -50.5t8.5 -60.5q0 -76 -51 -127t-136 -51q-34 0 -63.5 8.5t-54.5 25.5q-14 -12 -21.5 -27t-7.5 -33q0 -29 20.5 -44t53.5 -15h139q78 0 116.5 -36.5t38.5 -98.5q0 -76 -53.5 -119t-148.5 -43q-104 0 -159.5 39.5t-55.5 113.5q0 35 14.5 60
t42.5 39q-30 12 -50 38.5t-20 63.5q0 31 13.5 56t39.5 44q-16 22 -24.5 48.5t-8.5 57.5q0 79 51 129t138 50q19 0 37 -2.5t34 -8.5h178zM122 334q0 -53 34 -87t91 -34q58 0 92 34t34 87q0 55 -34 88.5t-92 33.5t-91.5 -33.5t-33.5 -88.5zM306 14h-107q-35 -1 -59.5 -23
t-24.5 -62q0 -49 38 -73.5t114 -24.5q70 0 104.5 26t34.5 78q0 38 -26.5 58.5t-73.5 20.5zM386 705q0 -57 -38 -95t-97 -38q-61 0 -98.5 37.5t-37.5 95.5h56q0 -36 21.5 -59.5t58.5 -23.5q35 0 57 24t22 59h56z" />
    <glyph glyph-name="Gdotaccent" unicode="&#x120;" horiz-adv-x="748" 
d="M386 713q116 0 195.5 -56t109.5 -155h-74q-24 69 -82.5 109t-148.5 40q-120 0 -197.5 -85.5t-77.5 -215.5t77.5 -215.5t198.5 -85.5q112 0 178.5 59t67.5 178h-232v63h301v-40q0 -150 -83 -236t-232 -86q-151 0 -248 103.5t-97 259.5t97 259.5t247 103.5zM385 839
q19 0 33 -13.5t14 -33.5t-13.5 -33.5t-33.5 -13.5t-34 13.5t-14 33.5t14 33.5t34 13.5z" />
    <glyph glyph-name="gdotaccent" unicode="&#x121;" horiz-adv-x="489" 
d="M497 502v-57h-97q18 -23 26.5 -50.5t8.5 -60.5q0 -76 -51 -127t-136 -51q-34 0 -63.5 8.5t-54.5 25.5q-14 -12 -21.5 -27t-7.5 -33q0 -29 20.5 -44t53.5 -15h139q78 0 116.5 -36.5t38.5 -98.5q0 -76 -53.5 -119t-148.5 -43q-104 0 -159.5 39.5t-55.5 113.5q0 35 14.5 60
t42.5 39q-30 12 -50 38.5t-20 63.5q0 31 13.5 56t39.5 44q-16 22 -24.5 48.5t-8.5 57.5q0 79 51 129t138 50q19 0 37 -2.5t34 -8.5h178zM122 334q0 -53 34 -87t91 -34q58 0 92 34t34 87q0 55 -34 88.5t-92 33.5t-91.5 -33.5t-33.5 -88.5zM306 14h-107q-35 -1 -59.5 -23
t-24.5 -62q0 -49 38 -73.5t114 -24.5q70 0 104.5 26t34.5 78q0 38 -26.5 58.5t-73.5 20.5zM284 675q14 -15 14 -35t-14 -34q-15 -14 -35 -14t-34 14q-15 14 -15 34t15 35q14 14 34 14t35 -14z" />
    <glyph glyph-name="Gcommaaccent" unicode="&#x122;" horiz-adv-x="748" 
d="M386 713q116 0 195.5 -56t109.5 -155h-74q-24 69 -82.5 109t-148.5 40q-120 0 -197.5 -85.5t-77.5 -215.5t77.5 -215.5t198.5 -85.5q112 0 178.5 59t67.5 178h-232v63h301v-40q0 -150 -83 -236t-232 -86q-151 0 -248 103.5t-97 259.5t97 259.5t247 103.5zM445 -102
q0 -40 -19 -82.5t-49 -73.5l-21 11q15 22 23.5 47t11.5 52q-21 2 -34.5 15.5t-13.5 34.5q0 22 14.5 36.5t36.5 14.5t36.5 -15.5t14.5 -39.5z" />
    <glyph glyph-name="gcommaaccent" unicode="&#x123;" horiz-adv-x="489" 
d="M497 502v-57h-97q18 -23 26.5 -50.5t8.5 -60.5q0 -76 -51 -127t-136 -51q-34 0 -63.5 8.5t-54.5 25.5q-14 -12 -21.5 -27t-7.5 -33q0 -29 20.5 -44t53.5 -15h139q78 0 116.5 -36.5t38.5 -98.5q0 -76 -53.5 -119t-148.5 -43q-104 0 -159.5 39.5t-55.5 113.5q0 35 14.5 60
t42.5 39q-30 12 -50 38.5t-20 63.5q0 31 13.5 56t39.5 44q-16 22 -24.5 48.5t-8.5 57.5q0 79 51 129t138 50q19 0 37 -2.5t34 -8.5h178zM122 334q0 -53 34 -87t91 -34q58 0 92 34t34 87q0 55 -34 88.5t-92 33.5t-91.5 -33.5t-33.5 -88.5zM306 14h-107q-35 -1 -59.5 -23
t-24.5 -62q0 -49 38 -73.5t114 -24.5q70 0 104.5 26t34.5 78q0 38 -26.5 58.5t-73.5 20.5zM267 788l23 -9q-15 -27 -24 -55t-12 -58q20 -2 34 -16t14 -34q0 -21 -15 -36t-36 -15q-22 0 -36.5 15.5t-14.5 40.5q1 46 18 87.5t49 79.5z" />
    <glyph glyph-name="Hcircumflex" unicode="&#x124;" horiz-adv-x="704" 
d="M375 835l137 -105h-88l-73 57l-73 -57h-87l138 105h46zM622 700v-700h-66v330h-408v-330h-66v700h66v-307h408v307h66z" />
    <glyph glyph-name="hcircumflex" unicode="&#x125;" horiz-adv-x="521" 
d="M139 854l137 -105h-88l-73 57l-73 -57h-87l138 105h46zM143 730v-301q13 33 52 58.5t90 25.5q79 0 121.5 -52t42.5 -137v-324h-63v318q0 65 -29.5 99.5t-81.5 34.5q-58 0 -95 -47t-37 -126v-279h-63v730h63z" />
    <glyph glyph-name="Hbar" unicode="&#x126;" horiz-adv-x="717" 
d="M628 700v-120h83v-53h-83v-527h-66v330h-408v-330h-66v527h-82v53h82v120h66v-120h408v120h66zM154 393h408v134h-408v-134z" />
    <glyph glyph-name="hbar" unicode="&#x127;" horiz-adv-x="526" 
d="M148 730v-68h112v-53h-112v-180q13 33 52 58.5t90 25.5q79 0 121.5 -52t42.5 -137v-324h-63v318q0 65 -29.5 99.5t-81.5 34.5q-58 0 -95 -47t-37 -126v-279h-63v609h-80v53h80v68h63z" />
    <glyph glyph-name="Itilde" unicode="&#x128;" 
d="M55 848q27 0 46.5 -11t28.5 -23q9 -13 22 -24t28 -11q23 0 34.5 15t11.5 45h48q0 -51 -24.5 -81.5t-72.5 -30.5q-27 0 -47 11t-29 24t-22 24t-28 11q-23 0 -34.5 -15t-11.5 -46h-48q0 51 24.5 81.5t73.5 30.5zM148 700v-700h-66v700h66z" />
    <glyph glyph-name="itilde" unicode="&#x129;" 
d="M55 698q26 0 45.5 -12t28.5 -26q9 -15 22.5 -27t28.5 -12q23 0 34.5 17t11.5 51h48q0 -54 -24.5 -87t-72.5 -33q-27 0 -46.5 12t-28.5 27t-22.5 27t-28.5 12q-23 0 -34.5 -17t-11.5 -52h-48q0 55 24.5 87.5t73.5 32.5zM147 502v-502h-63v502h63z" />
    <glyph glyph-name="Imacron" unicode="&#x12a;" 
d="M148 700v-700h-66v700h66zM242 797v-54h-253v54h253z" />
    <glyph glyph-name="imacron" unicode="&#x12b;" 
d="M147 502v-502h-63v502h63zM242 655v-55h-253v55h253z" />
    <glyph glyph-name="Ibreve" unicode="&#x12c;" 
d="M250 843q0 -51 -37.5 -82.5t-97.5 -31.5q-61 0 -98.5 31.5t-37.5 82.5h56q0 -29 21.5 -46.5t58.5 -17.5q36 0 57 17.5t21 46.5h57zM148 700v-700h-66v700h66z" />
    <glyph glyph-name="ibreve" unicode="&#x12d;" 
d="M251 705q0 -57 -37.5 -95t-97.5 -38q-61 0 -98.5 37.5t-37.5 95.5h56q0 -36 21.5 -59.5t58.5 -23.5q35 0 57 24t22 59h56zM147 502v-502h-63v502h63z" />
    <glyph glyph-name="Iogonek" unicode="&#x12e;" 
d="M148 700v-700h-25q-30 -15 -45 -36t-15 -48q0 -29 15.5 -45t42.5 -16q13 0 23.5 2t19.5 7l14 -45q-10 -6 -25 -9t-34 -3q-46 0 -76 29t-30 79q0 34 17.5 61.5t51.5 46.5v677h66z" />
    <glyph glyph-name="iogonek" unicode="&#x12f;" 
d="M147 502v-502h-6q-30 -15 -45 -36t-15 -48q0 -29 15.5 -45t42.5 -16q13 0 23.5 2t19.5 7l14 -45q-10 -6 -25 -9t-34 -3q-46 0 -76 29t-30 79q0 31 13.5 55.5t39.5 42.5v489h63zM116 710q20 0 34.5 -14.5t14.5 -34.5t-14.5 -34t-34.5 -14q-21 0 -35 14t-14 34t14 34.5
t35 14.5z" />
    <glyph glyph-name="Idotaccent" unicode="&#x130;" 
d="M148 816q13 -14 13 -34t-13 -33q-14 -14 -34 -14t-34 14q-14 13 -14 33t14 34q14 13 34 13t34 -13zM148 700v-700h-66v700h66z" />
    <glyph glyph-name="dotlessi" unicode="&#x131;" 
d="M147 502v-502h-63v502h63z" />
    <glyph glyph-name="Jcircumflex" unicode="&#x134;" horiz-adv-x="484" 
d="M400 835l137 -105h-88l-73 57l-73 -57h-87l138 105h46zM411 700v-506q0 -100 -48 -153t-137 -53q-94 0 -143.5 53.5t-54.5 160.5h66q4 -76 37 -114t95 -38q57 0 88 37.5t31 108.5v504h66z" />
    <glyph glyph-name="jcircumflex" unicode="&#x135;" 
d="M147 502v-574q0 -89 -39.5 -121.5t-100.5 -32.5q-17 0 -31 1.5t-25 5.5v59q12 -4 24.5 -6t25.5 -2q46 0 64.5 25t18.5 72v573h63zM134 732l134 -158h-73l-78 99l-79 -99h-73l134 158h35z" />
    <glyph glyph-name="Kcommaaccent" unicode="&#x136;" horiz-adv-x="663" 
d="M569 700l-242 -307l315 -393h-83l-275 341l-128 -158v-183h-67v700h67v-418l330 418h83zM387 -92q0 -40 -19 -82.5t-49 -73.5l-21 11q15 22 23.5 47t11.5 52q-21 2 -34.5 15.5t-13.5 34.5q0 22 14.5 36.5t36.5 14.5t36.5 -15.5t14.5 -39.5z" />
    <glyph glyph-name="kcommaaccent" unicode="&#x137;" horiz-adv-x="478" 
d="M151 730v-480l210 252h79l-171 -206l197 -296h-73l-168 247l-74 -89v-158h-63v730h63zM312 -92q0 -40 -19 -82.5t-49 -73.5l-21 11q15 22 23.5 47t11.5 52q-21 2 -34.5 15.5t-13.5 34.5q0 22 14.5 36.5t36.5 14.5t36.5 -15.5t14.5 -39.5z" />
    <glyph glyph-name="Lacute" unicode="&#x139;" horiz-adv-x="493" 
d="M270 834l-125 -103h-80l107 103h98zM147 700v-638h323v-62h-389v700h66z" />
    <glyph glyph-name="lacute" unicode="&#x13a;" 
d="M283 873l-125 -103h-80l107 103h98zM147 730v-730h-63v730h63z" />
    <glyph glyph-name="Lcommaaccent" unicode="&#x13b;" horiz-adv-x="493" 
d="M328 -92q0 -40 -19 -82.5t-49 -73.5l-21 11q15 22 23.5 47t11.5 52q-21 2 -34.5 15.5t-13.5 34.5q0 22 14.5 36.5t36.5 14.5t36.5 -15.5t14.5 -39.5zM147 700v-638h323v-62h-389v700h66z" />
    <glyph glyph-name="lcommaaccent" unicode="&#x13c;" 
d="M165 -92q0 -40 -19 -82.5t-49 -73.5l-21 11q15 22 23.5 47t11.5 52q-21 2 -34.5 15.5t-13.5 34.5q0 22 14.5 36.5t36.5 14.5t36.5 -15.5t14.5 -39.5zM147 730v-730h-63v730h63z" />
    <glyph glyph-name="Lcaron" unicode="&#x13d;" horiz-adv-x="493" 
d="M433 705q22 0 37 -15.5t15 -39.5q0 -44 -17 -86t-51 -82l-23 10q15 25 24 53t13 59q-21 2 -34.5 15.5t-13.5 34.5t14.5 36t35.5 15zM147 700v-638h323v-62h-389v700h66z" />
    <glyph glyph-name="lcaron" unicode="&#x13e;" horiz-adv-x="344" 
d="M278 717q22 0 37 -15.5t15 -39.5q0 -44 -17 -86t-51 -82l-23 10q15 25 24 53t13 59q-21 2 -34.5 15.5t-13.5 34.5t14.5 36t35.5 15zM147 730v-730h-63v730h63z" />
    <glyph glyph-name="Ldot" unicode="&#x13f;" horiz-adv-x="493" 
d="M147 700v-638h323v-62h-389v700h66zM438 300q0 -23 -15 -38.5t-38 -15.5t-38.5 15.5t-15.5 38.5t15.5 38t38.5 15t38 -15.5t15 -37.5z" />
    <glyph glyph-name="ldot" unicode="&#x140;" horiz-adv-x="375" 
d="M147 730v-730h-63v730h63zM332 260q0 -23 -15 -38.5t-38 -15.5t-38.5 15.5t-15.5 38.5t15.5 38t38.5 15t38 -15.5t15 -37.5z" />
    <glyph glyph-name="Lslash" unicode="&#x141;" horiz-adv-x="501" 
d="M154 700v-344l92 44l22 -48l-114 -54v-236h323v-62h-389v266l-77 -36l-21 49l98 46v375h66z" />
    <glyph glyph-name="lslash" unicode="&#x142;" horiz-adv-x="248" 
d="M155 730v-372l84 41l22 -49l-106 -50v-300h-63v270l-84 -40l-21 48l105 50v402h63z" />
    <glyph glyph-name="Nacute" unicode="&#x143;" horiz-adv-x="701" 
d="M619 700v-700h-64l-380 544l-27 41v-585h-66v700h63l378 -541l30 -44v585h66zM506 834l-125 -103h-80l107 103h98z" />
    <glyph glyph-name="nacute" unicode="&#x144;" horiz-adv-x="523" 
d="M285 513q79 0 121.5 -52t42.5 -137v-324h-63v318q0 65 -29.5 99.5t-81.5 34.5q-58 0 -95 -47t-37 -126v-279h-63v502h58l3 -76q15 35 54 61t90 26zM436 732l-137 -158h-66l122 158h81z" />
    <glyph glyph-name="Ncommaaccent" unicode="&#x145;" horiz-adv-x="701" 
d="M619 700v-700h-64l-380 544l-27 41v-585h-66v700h63l378 -541l30 -44v585h66zM401 -92q0 -40 -19 -82.5t-49 -73.5l-21 11q15 22 23.5 47t11.5 52q-21 2 -34.5 15.5t-13.5 34.5q0 22 14.5 36.5t36.5 14.5t36.5 -15.5t14.5 -39.5z" />
    <glyph glyph-name="ncommaaccent" unicode="&#x146;" horiz-adv-x="523" 
d="M285 513q79 0 121.5 -52t42.5 -137v-324h-63v318q0 65 -29.5 99.5t-81.5 34.5q-58 0 -95 -47t-37 -126v-279h-63v502h58l3 -76q15 35 54 61t90 26zM316 -92q0 -40 -19 -82.5t-49 -73.5l-21 11q15 22 23.5 47t11.5 52q-21 2 -34.5 15.5t-13.5 34.5q0 22 14.5 36.5
t36.5 14.5t36.5 -15.5t14.5 -39.5z" />
    <glyph glyph-name="Ncaron" unicode="&#x147;" horiz-adv-x="701" 
d="M619 700v-700h-64l-380 544l-27 41v-585h-66v700h63l378 -541l30 -44v585h66zM511 832l-137 -105h-46l-138 105h87l73 -56l73 56h88z" />
    <glyph glyph-name="ncaron" unicode="&#x148;" horiz-adv-x="523" 
d="M423 720l-134 -158h-35l-134 158h73l79 -99l78 99h73zM285 513q79 0 121.5 -52t42.5 -137v-324h-63v318q0 65 -29.5 99.5t-81.5 34.5q-58 0 -95 -47t-37 -126v-279h-63v502h58l3 -76q15 35 54 61t90 26z" />
    <glyph glyph-name="Eng" unicode="&#x14a;" horiz-adv-x="701" 
d="M619 700v-709q0 -100 -48.5 -153t-138.5 -53v60q59 0 90 37t31 107v14l-378 541l-27 41v-585h-66v700h63l378 -541l30 -44v585h66z" />
    <glyph glyph-name="eng" unicode="&#x14b;" horiz-adv-x="521" 
d="M285 513q79 0 121.5 -52t42.5 -137v-396q0 -89 -41.5 -121.5t-106.5 -32.5v58q48 0 66.5 25t18.5 72v389q0 65 -29.5 99.5t-81.5 34.5q-58 0 -95 -47t-37 -126v-279h-63v502h58l3 -76q15 35 54 61t90 26z" />
    <glyph glyph-name="Omacron" unicode="&#x14c;" horiz-adv-x="793" 
d="M751 351q0 -156 -100 -260t-254 -104t-254.5 104t-100.5 260q0 155 100.5 258.5t254.5 103.5t254 -103.5t100 -258.5zM397 651q-125 0 -205.5 -85.5t-80.5 -214.5q0 -130 80.5 -216t205.5 -86q124 0 204.5 86t80.5 216q0 129 -80.5 214.5t-204.5 85.5zM522 807v-54h-253
v54h253z" />
    <glyph glyph-name="omacron" unicode="&#x14d;" horiz-adv-x="573" 
d="M467 439q69 -74 69 -188t-69 -188t-180 -74t-180 74q-70 74 -70 188t70 188q69 74 180 74t180 -74zM288 454q-84 0 -135.5 -57.5t-51.5 -145.5t51.5 -145.5t135.5 -57.5q83 0 133.5 57.5t50.5 145.5t-50.5 145.5t-133.5 57.5zM413 655v-55h-253v55h253z" />
    <glyph glyph-name="Obreve" unicode="&#x14e;" horiz-adv-x="793" 
d="M751 351q0 -156 -100 -260t-254 -104t-254.5 104t-100.5 260q0 155 100.5 258.5t254.5 103.5t254 -103.5t100 -258.5zM397 651q-125 0 -205.5 -85.5t-80.5 -214.5q0 -130 80.5 -216t205.5 -86q124 0 204.5 86t80.5 216q0 129 -80.5 214.5t-204.5 85.5zM531 853
q0 -51 -37.5 -82.5t-97.5 -31.5q-61 0 -98.5 31.5t-37.5 82.5h56q0 -29 21.5 -46.5t58.5 -17.5q36 0 57 17.5t21 46.5h57z" />
    <glyph glyph-name="obreve" unicode="&#x14f;" horiz-adv-x="573" 
d="M467 439q69 -74 69 -188t-69 -188t-180 -74t-180 74q-70 74 -70 188t70 188q69 74 180 74t180 -74zM288 454q-84 0 -135.5 -57.5t-51.5 -145.5t51.5 -145.5t135.5 -57.5q83 0 133.5 57.5t50.5 145.5t-50.5 145.5t-133.5 57.5zM422 705q0 -57 -38 -95t-97 -38
q-61 0 -98.5 37.5t-37.5 95.5h56q0 -36 21.5 -59.5t58.5 -23.5q35 0 57 24t22 59h56z" />
    <glyph glyph-name="Ohungarumlaut" unicode="&#x150;" horiz-adv-x="793" 
d="M437 843l-91 -105h-62l81 105h72zM579 843l-90 -105h-64l82 105h72zM751 351q0 -156 -100 -260t-254 -104t-254.5 104t-100.5 260q0 155 100.5 258.5t254.5 103.5t254 -103.5t100 -258.5zM397 651q-125 0 -205.5 -85.5t-80.5 -214.5q0 -130 80.5 -216t205.5 -86
q124 0 204.5 86t80.5 216q0 129 -80.5 214.5t-204.5 85.5z" />
    <glyph glyph-name="ohungarumlaut" unicode="&#x151;" horiz-adv-x="573" 
d="M334 732l-103 -158h-61l94 158h70zM489 732l-103 -158h-61l94 158h70zM467 439q69 -74 69 -188t-69 -188t-180 -74t-180 74q-70 74 -70 188t70 188q69 74 180 74t180 -74zM288 454q-84 0 -135.5 -57.5t-51.5 -145.5t51.5 -145.5t135.5 -57.5q83 0 133.5 57.5t50.5 145.5
t-50.5 145.5t-133.5 57.5z" />
    <glyph glyph-name="OE" unicode="&#x152;" horiz-adv-x="1109" 
d="M1060 700v-62h-310v-246h275v-62h-275v-268h310v-62h-376v133q-47 -69 -121 -107.5t-165 -38.5q-155 0 -254.5 104t-99.5 260t99.5 259t254.5 103q91 0 165 -38.5t121 -107.5v133h376zM398 651q-125 0 -205.5 -85.5t-80.5 -214.5q0 -130 80.5 -216t205.5 -86
q121 0 201 82t85 207v25q-5 125 -85 206.5t-201 81.5z" />
    <glyph glyph-name="oe" unicode="&#x153;" horiz-adv-x="985" 
d="M287 513q72 0 128 -33t87 -90q30 58 82.5 90.5t121.5 32.5q103 0 165.5 -65.5t62.5 -185.5v-35h-399v-3q4 -80 53 -128t121 -48q59 0 97.5 23.5t56.5 70.5h65q-23 -73 -79.5 -113t-140.5 -40q-69 0 -123 32t-83 91q-32 -57 -88 -90t-127 -33q-111 0 -180.5 74t-69.5 188
t69.5 188t180.5 74zM288 454q-84 0 -135.5 -57.5t-51.5 -145.5t51.5 -145.5t135.5 -57.5q77 0 127 51.5t56 131.5v39q-5 81 -55 132.5t-128 51.5zM706 454q-72 0 -118.5 -47.5t-52.5 -122.5h335q0 79 -44.5 124.5t-119.5 45.5z" />
    <glyph glyph-name="Racute" unicode="&#x154;" horiz-adv-x="531" 
d="M259 700q101 0 160.5 -56t59.5 -149q0 -71 -36.5 -120t-102.5 -69l169 -306h-76l-161 295h-124v-295h-66v700h177zM259 638h-111v-282h111q69 0 111.5 37t42.5 102q0 66 -42 104.5t-112 38.5zM414 834l-125 -103h-80l107 103h98z" />
    <glyph glyph-name="racute" unicode="&#x155;" horiz-adv-x="324" 
d="M301 507v-62q-31 0 -56.5 -10t-45.5 -31q-24 -23 -36 -56t-12 -76v-272h-63v502h59l2 -91q15 40 53.5 68t98.5 28zM342 732l-137 -158h-66l122 158h81z" />
    <glyph glyph-name="Rcommaaccent" unicode="&#x156;" horiz-adv-x="531" 
d="M259 700q101 0 160.5 -56t59.5 -149q0 -71 -36.5 -120t-102.5 -69l169 -306h-76l-161 295h-124v-295h-66v700h177zM259 638h-111v-282h111q69 0 111.5 37t42.5 102q0 66 -42 104.5t-112 38.5zM330 -92q0 -40 -19 -82.5t-49 -73.5l-21 11q15 22 23.5 47t11.5 52
q-21 2 -34.5 15.5t-13.5 34.5q0 22 14.5 36.5t36.5 14.5t36.5 -15.5t14.5 -39.5z" />
    <glyph glyph-name="rcommaaccent" unicode="&#x157;" horiz-adv-x="324" 
d="M301 507v-62q-31 0 -56.5 -10t-45.5 -31q-24 -23 -36 -56t-12 -76v-272h-63v502h59l2 -91q15 40 53.5 68t98.5 28zM168 -92q0 -40 -19 -82.5t-49 -73.5l-21 11q15 22 23.5 47t11.5 52q-21 2 -34.5 15.5t-13.5 34.5q0 22 14.5 36.5t36.5 14.5t36.5 -15.5t14.5 -39.5z" />
    <glyph glyph-name="Rcaron" unicode="&#x158;" horiz-adv-x="531" 
d="M259 700q101 0 160.5 -56t59.5 -149q0 -71 -36.5 -120t-102.5 -69l169 -306h-76l-161 295h-124v-295h-66v700h177zM259 638h-111v-282h111q69 0 111.5 37t42.5 102q0 66 -42 104.5t-112 38.5zM418 832l-137 -105h-46l-138 105h87l73 -56l73 56h88z" />
    <glyph glyph-name="rcaron" unicode="&#x159;" horiz-adv-x="324" 
d="M330 720l-134 -158h-35l-134 158h73l79 -99l78 99h73zM301 507v-62q-31 0 -56.5 -10t-45.5 -31q-24 -23 -36 -56t-12 -76v-272h-63v502h59l2 -91q15 40 53.5 68t98.5 28z" />
    <glyph glyph-name="Sacute" unicode="&#x15a;" horiz-adv-x="517" 
d="M257 713q89 0 142 -50t54 -142h-67q-1 63 -36 97.5t-94 34.5q-58 0 -90.5 -33t-32.5 -91q0 -54 31.5 -81t115.5 -62q108 -42 152.5 -84.5t44.5 -116.5q0 -92 -57.5 -145t-151.5 -53q-104 0 -163.5 58.5t-60.5 156.5h67q1 -74 42.5 -114.5t115.5 -40.5q68 0 104.5 37.5
t36.5 97.5q0 49 -36 80t-124 63q-97 39 -140.5 81t-43.5 120q0 80 50 133.5t141 53.5zM415 844l-125 -103h-80l107 103h98z" />
    <glyph glyph-name="sacute" unicode="&#x15b;" horiz-adv-x="438" 
d="M216 513q71 0 114.5 -40.5t44.5 -110.5h-65q-1 46 -25 69t-71 23q-45 0 -69 -21.5t-24 -57.5q0 -37 22 -54.5t86 -34.5q87 -24 125 -57.5t38 -91.5q0 -68 -47.5 -108t-122.5 -40q-83 0 -130.5 43.5t-48.5 114.5h65q1 -47 31 -73t85 -26q51 0 77.5 24t26.5 62q0 37 -26 58
t-94 38q-78 20 -114.5 51.5t-36.5 90.5q0 60 42.5 100.5t116.5 40.5zM381 732l-137 -158h-66l122 158h81z" />
    <glyph glyph-name="Scircumflex" unicode="&#x15c;" horiz-adv-x="517" 
d="M257 713q89 0 142 -50t54 -142h-67q-1 63 -36 97.5t-94 34.5q-58 0 -90.5 -33t-32.5 -91q0 -54 31.5 -81t115.5 -62q108 -42 152.5 -84.5t44.5 -116.5q0 -92 -57.5 -145t-151.5 -53q-104 0 -163.5 58.5t-60.5 156.5h67q1 -74 42.5 -114.5t115.5 -40.5q68 0 104.5 37.5
t36.5 97.5q0 49 -36 80t-124 63q-97 39 -140.5 81t-43.5 120q0 80 50 133.5t141 53.5zM283 845l137 -105h-88l-73 57l-73 -57h-87l138 105h46z" />
    <glyph glyph-name="scircumflex" unicode="&#x15d;" horiz-adv-x="438" 
d="M216 513q71 0 114.5 -40.5t44.5 -110.5h-65q-1 46 -25 69t-71 23q-45 0 -69 -21.5t-24 -57.5q0 -37 22 -54.5t86 -34.5q87 -24 125 -57.5t38 -91.5q0 -68 -47.5 -108t-122.5 -40q-83 0 -130.5 43.5t-48.5 114.5h65q1 -47 31 -73t85 -26q51 0 77.5 24t26.5 62q0 37 -26 58
t-94 38q-78 20 -114.5 51.5t-36.5 90.5q0 60 42.5 100.5t116.5 40.5zM234 732l134 -158h-73l-78 99l-79 -99h-73l134 158h35z" />
    <glyph glyph-name="Scedilla" unicode="&#x15e;" horiz-adv-x="517" 
d="M257 713q89 0 142 -50t54 -142h-67q-1 63 -36 97.5t-94 34.5q-58 0 -90.5 -33t-32.5 -91q0 -54 31.5 -81t115.5 -62q108 -42 152.5 -84.5t44.5 -116.5q0 -89 -54 -141.5t-143 -56.5l-12 -50h11q38 0 61.5 -22t23.5 -59q0 -40 -28 -63t-71 -23q-30 0 -53.5 9.5t-39.5 28.5
l29 36q12 -15 28 -22t36 -7q23 0 37.5 11t14.5 29q0 19 -12.5 29.5t-32.5 10.5q-7 0 -16 -1.5t-20 -3.5l-22 7l23 92q-91 8 -141.5 65t-51.5 148h67q1 -74 42.5 -114.5t115.5 -40.5q68 0 104.5 37.5t36.5 97.5q0 49 -36 80t-124 63q-97 39 -140.5 81t-43.5 120
q0 80 50 133.5t141 53.5z" />
    <glyph glyph-name="scedilla" unicode="&#x15f;" horiz-adv-x="438" 
d="M216 513q71 0 114.5 -40.5t44.5 -110.5h-65q-1 46 -25 69t-71 23q-45 0 -69 -21.5t-24 -57.5q0 -37 22 -54.5t86 -34.5q87 -24 125 -57.5t38 -91.5q0 -65 -42.5 -104t-112.5 -43l-13 -53h11q38 0 61.5 -22t23.5 -59q0 -40 -28 -63t-71 -23q-30 0 -53.5 9.5t-39.5 28.5
l29 36q12 -15 28 -22t36 -7q23 0 37.5 11t14.5 29q0 19 -12.5 29.5t-32.5 10.5q-7 0 -16 -1.5t-20 -3.5l-22 7l24 94q-71 7 -110.5 49t-40.5 107h65q1 -47 31 -73t85 -26q51 0 77.5 24t26.5 62q0 37 -26 58t-94 38q-78 20 -114.5 51.5t-36.5 90.5q0 60 42.5 100.5
t116.5 40.5z" />
    <glyph glyph-name="Scaron" unicode="&#x160;" horiz-adv-x="517" 
d="M257 713q89 0 142 -50t54 -142h-67q-1 63 -36 97.5t-94 34.5q-58 0 -90.5 -33t-32.5 -91q0 -54 31.5 -81t115.5 -62q108 -42 152.5 -84.5t44.5 -116.5q0 -92 -57.5 -145t-151.5 -53q-104 0 -163.5 58.5t-60.5 156.5h67q1 -74 42.5 -114.5t115.5 -40.5q68 0 104.5 37.5
t36.5 97.5q0 49 -36 80t-124 63q-97 39 -140.5 81t-43.5 120q0 80 50 133.5t141 53.5zM420 842l-137 -105h-46l-138 105h87l73 -56l73 56h88z" />
    <glyph glyph-name="scaron" unicode="&#x161;" horiz-adv-x="438" 
d="M216 513q71 0 114.5 -40.5t44.5 -110.5h-65q-1 46 -25 69t-71 23q-45 0 -69 -21.5t-24 -57.5q0 -37 22 -54.5t86 -34.5q87 -24 125 -57.5t38 -91.5q0 -68 -47.5 -108t-122.5 -40q-83 0 -130.5 43.5t-48.5 114.5h65q1 -47 31 -73t85 -26q51 0 77.5 24t26.5 62q0 37 -26 58
t-94 38q-78 20 -114.5 51.5t-36.5 90.5q0 60 42.5 100.5t116.5 40.5zM368 720l-134 -158h-35l-134 158h73l79 -99l78 99h73z" />
    <glyph glyph-name="Tcommaaccent" unicode="&#x162;" horiz-adv-x="603" 
d="M593 700v-62h-259v-638h-66v638h-259v62h584zM351 -92q0 -40 -19 -82.5t-49 -73.5l-21 11q15 22 23.5 47t11.5 52q-21 2 -34.5 15.5t-13.5 34.5q0 22 14.5 36.5t36.5 14.5t36.5 -15.5t14.5 -39.5z" />
    <glyph glyph-name="tcommaaccent" unicode="&#x163;" horiz-adv-x="335" 
d="M170 630l-1 -128h136v-59h-137l-2 -305q0 -46 15.5 -66.5t59.5 -20.5q16 0 32 2.5t32 7.5v-57q-13 -6 -30.5 -8.5t-40.5 -2.5q-66 0 -98.5 32.5t-31.5 104.5l2 313h-100v59h100l1 128h63zM241 -99q0 -40 -19 -82.5t-49 -73.5l-21 11q15 22 23.5 47t11.5 52
q-21 2 -34.5 15.5t-13.5 34.5q0 22 14.5 36.5t36.5 14.5t36.5 -15.5t14.5 -39.5z" />
    <glyph glyph-name="Tcaron" unicode="&#x164;" horiz-adv-x="603" 
d="M461 832l-137 -105h-46l-138 105h87l73 -56l73 56h88zM593 700v-62h-259v-638h-66v638h-259v62h584z" />
    <glyph glyph-name="tcaron" unicode="&#x165;" horiz-adv-x="459" 
d="M170 630l-1 -128h136v-59h-137l-2 -305q0 -46 15.5 -66.5t59.5 -20.5q16 0 32 2.5t32 7.5v-57q-13 -6 -30.5 -8.5t-40.5 -2.5q-66 0 -98.5 32.5t-31.5 104.5l2 313h-100v59h100l1 128h63zM393 717q22 0 37 -15.5t15 -39.5q0 -44 -17 -86t-51 -82l-23 10q15 25 24 53
t13 59q-21 2 -34.5 15.5t-13.5 34.5t14.5 36t35.5 15z" />
    <glyph glyph-name="Tbar" unicode="&#x166;" horiz-adv-x="603" 
d="M593 700v-62h-259v-251h160v-53h-160v-334h-66v334h-160v53h160v251h-259v62h584z" />
    <glyph glyph-name="tbar" unicode="&#x167;" horiz-adv-x="335" 
d="M170 630l-1 -128h136v-55h-137l-1 -135h138v-55h-138l-1 -119q0 -46 15.5 -66.5t59.5 -20.5q16 0 32 2.5t32 7.5v-57q-13 -6 -30.5 -8.5t-40.5 -2.5q-66 0 -98.5 32.5t-31.5 104.5l1 127h-99v55h99l1 135h-100v55h100l1 128h63z" />
    <glyph glyph-name="Utilde" unicode="&#x168;" horiz-adv-x="684" 
d="M281 848q27 0 46.5 -11t28.5 -23q9 -13 22 -24t28 -11q23 0 34.5 15t11.5 45h48q0 -51 -24.5 -81.5t-72.5 -30.5q-27 0 -47 11t-29 24t-22 24t-28 11q-23 0 -34.5 -15t-11.5 -46h-48q0 51 24.5 81.5t73.5 30.5zM612 700v-426q0 -141 -70.5 -214t-199.5 -73
q-128 0 -198.5 73t-70.5 214v426h66v-426q0 -225 203 -225t203 225v426h67z" />
    <glyph glyph-name="utilde" unicode="&#x169;" horiz-adv-x="517" 
d="M196 698q26 0 45.5 -12t28.5 -26q9 -15 22.5 -27t28.5 -12q23 0 34.5 17t11.5 51h48q0 -54 -24.5 -87t-72.5 -33q-27 0 -46.5 12t-28.5 27t-22.5 27t-28.5 12q-23 0 -34.5 -17t-11.5 -52h-48q0 55 24.5 87.5t73.5 32.5zM437 502v-502h-59l-2 75q-15 -36 -53 -61t-89 -25
q-79 0 -120.5 51.5t-41.5 137.5v324h63v-318q0 -66 29 -100.5t81 -34.5q57 0 93 46t36 123v284h63z" />
    <glyph glyph-name="Umacron" unicode="&#x16a;" horiz-adv-x="684" 
d="M612 700v-426q0 -141 -70.5 -214t-199.5 -73q-128 0 -198.5 73t-70.5 214v426h66v-426q0 -225 203 -225t203 225v426h67zM468 797v-54h-253v54h253z" />
    <glyph glyph-name="umacron" unicode="&#x16b;" horiz-adv-x="517" 
d="M437 502v-502h-59l-2 75q-15 -36 -53 -61t-89 -25q-79 0 -120.5 51.5t-41.5 137.5v324h63v-318q0 -66 29 -100.5t81 -34.5q57 0 93 46t36 123v284h63zM383 655v-55h-253v55h253z" />
    <glyph glyph-name="Ubreve" unicode="&#x16c;" horiz-adv-x="684" 
d="M477 843q0 -51 -37.5 -82.5t-97.5 -31.5q-61 0 -98.5 31.5t-37.5 82.5h56q0 -29 21.5 -46.5t58.5 -17.5q36 0 57 17.5t21 46.5h57zM612 700v-426q0 -141 -70.5 -214t-199.5 -73q-128 0 -198.5 73t-70.5 214v426h66v-426q0 -225 203 -225t203 225v426h67z" />
    <glyph glyph-name="ubreve" unicode="&#x16d;" horiz-adv-x="517" 
d="M437 502v-502h-59l-2 75q-15 -36 -53 -61t-89 -25q-79 0 -120.5 51.5t-41.5 137.5v324h63v-318q0 -66 29 -100.5t81 -34.5q57 0 93 46t36 123v284h63zM392 705q0 -57 -38 -95t-97 -38q-61 0 -98.5 37.5t-37.5 95.5h56q0 -36 21.5 -59.5t58.5 -23.5q35 0 57 24t22 59h56z
" />
    <glyph glyph-name="Uring" unicode="&#x16e;" horiz-adv-x="684" 
d="M310 847q-13 -13 -13 -32t13 -32q12 -13 31 -13t32 13t13 32t-13 32t-32 13t-31 -13zM341 903q40 0 66 -25t26 -63t-26 -63.5t-66 -25.5q-39 0 -65 25.5t-26 63.5t26 63t65 25zM612 700v-426q0 -141 -70.5 -214t-199.5 -73q-128 0 -198.5 73t-70.5 214v426h66v-426
q0 -225 203 -225t203 225v426h67z" />
    <glyph glyph-name="uring" unicode="&#x16f;" horiz-adv-x="517" 
d="M358 656q0 -42 -28.5 -70t-73.5 -28t-73.5 28t-28.5 70q0 44 28.5 72.5t73.5 28.5t73.5 -28.5t28.5 -72.5zM201 657q0 -22 16 -38.5t39 -16.5q24 0 39.5 16.5t15.5 38.5q0 24 -15.5 39.5t-39.5 15.5t-39.5 -16t-15.5 -39zM437 502v-502h-59l-2 75q-15 -36 -53 -61
t-89 -25q-79 0 -120.5 51.5t-41.5 137.5v324h63v-318q0 -66 29 -100.5t81 -34.5q57 0 93 46t36 123v284h63z" />
    <glyph glyph-name="Uhungarumlaut" unicode="&#x170;" horiz-adv-x="684" 
d="M383 833l-91 -105h-62l81 105h72zM525 833l-90 -105h-64l82 105h72zM612 700v-426q0 -141 -70.5 -214t-199.5 -73q-128 0 -198.5 73t-70.5 214v426h66v-426q0 -225 203 -225t203 225v426h67z" />
    <glyph glyph-name="uhungarumlaut" unicode="&#x171;" horiz-adv-x="517" 
d="M304 732l-103 -158h-61l94 158h70zM459 732l-103 -158h-61l94 158h70zM437 502v-502h-59l-2 75q-15 -36 -53 -61t-89 -25q-79 0 -120.5 51.5t-41.5 137.5v324h63v-318q0 -66 29 -100.5t81 -34.5q57 0 93 46t36 123v284h63z" />
    <glyph glyph-name="Uogonek" unicode="&#x172;" horiz-adv-x="684" 
d="M612 700v-426q0 -116 -48.5 -186.5t-139.5 -91.5q-20 -14 -30 -32t-10 -41q0 -29 15.5 -45t42.5 -16q13 0 23.5 2t19.5 7l14 -45q-10 -6 -25 -9t-34 -3q-46 0 -76 29t-30 79q0 19 5 35t14 30h-11q-128 0 -198.5 73t-70.5 214v426h66v-426q0 -225 203 -225t203 225v426h67
z" />
    <glyph glyph-name="uogonek" unicode="&#x173;" horiz-adv-x="517" 
d="M437 502v-502h-1q-30 -15 -45 -36t-15 -48q0 -29 15.5 -45t42.5 -16q13 0 23.5 2t19.5 7l14 -45q-10 -6 -25 -9t-34 -3q-46 0 -76 29t-30 79q0 30 13 54.5t38 42.5l-1 63q-15 -36 -53 -61t-89 -25q-79 0 -120.5 51.5t-41.5 137.5v324h63v-318q0 -66 29 -100.5t81 -34.5
q57 0 93 46t36 123v284h63z" />
    <glyph glyph-name="Wcircumflex" unicode="&#x174;" horiz-adv-x="980" 
d="M959 700l-228 -700h-60l-169 531l-12 46l-12 -46l-168 -531h-60l-229 700h70l178 -542l12 -50l12 50l171 542h52l172 -542l11 -50l13 50l178 542h69zM514 835l137 -105h-88l-73 57l-73 -57h-87l138 105h46z" />
    <glyph glyph-name="wcircumflex" unicode="&#x175;" horiz-adv-x="761" 
d="M742 502l-164 -502h-61l-137 393l-137 -393h-61l-163 502h67l119 -376l11 -42l11 42l127 376h53l127 -376l11 -42l11 42l119 376h67zM397 732l134 -158h-73l-78 99l-79 -99h-73l134 158h35z" />
    <glyph glyph-name="Ycircumflex" unicode="&#x176;" horiz-adv-x="667" 
d="M650 700l-283 -432v-268h-67v268l-283 432h78l210 -320l28 -47l28 47l211 320h78zM357 835l137 -105h-88l-73 57l-73 -57h-87l138 105h46z" />
    <glyph glyph-name="ycircumflex" unicode="&#x177;" horiz-adv-x="495" 
d="M476 502l-283 -717h-67l88 223l-195 494h67l151 -389l10 -35l11 35l150 389h68zM264 732l134 -158h-73l-78 99l-79 -99h-73l134 158h35z" />
    <glyph glyph-name="Ydieresis" unicode="&#x178;" horiz-adv-x="667" 
d="M650 700l-283 -432v-268h-67v268l-283 432h78l210 -320l28 -47l28 47l211 320h78zM243 824q19 0 32 -13t13 -32t-13 -32t-32 -13t-32.5 13t-13.5 32t13 32t33 13zM421 824q19 0 32 -13t13 -32t-13 -32t-32 -13t-32.5 13t-13.5 32t13 32t33 13z" />
    <glyph glyph-name="Zacute" unicode="&#x179;" horiz-adv-x="584" 
d="M539 700v-52l-417 -586h428v-62h-515v52l418 586h-413v62h499zM447 834l-125 -103h-80l107 103h98z" />
    <glyph glyph-name="zacute" unicode="&#x17a;" horiz-adv-x="449" 
d="M408 502v-49l-289 -395h307v-58h-391v49l289 395h-286v58h370zM393 732l-137 -158h-66l122 158h81z" />
    <glyph glyph-name="Zdotaccent" unicode="&#x17b;" horiz-adv-x="584" 
d="M539 700v-52l-417 -586h428v-62h-515v52l418 586h-413v62h499zM291 829q19 0 33 -13.5t14 -33.5t-13.5 -33.5t-33.5 -13.5t-34 13.5t-14 33.5t14 33.5t34 13.5z" />
    <glyph glyph-name="zdotaccent" unicode="&#x17c;" horiz-adv-x="449" 
d="M408 502v-49l-289 -395h307v-58h-391v49l289 395h-286v58h370zM265 675q14 -15 14 -35t-14 -34q-15 -14 -35 -14t-34 14q-15 14 -15 34t15 35q14 14 34 14t35 -14z" />
    <glyph glyph-name="Zcaron" unicode="&#x17d;" horiz-adv-x="584" 
d="M452 832l-137 -105h-46l-138 105h87l73 -56l73 56h88zM539 700v-52l-417 -586h428v-62h-515v52l418 586h-413v62h499z" />
    <glyph glyph-name="zcaron" unicode="&#x17e;" horiz-adv-x="449" 
d="M381 720l-134 -158h-35l-134 158h73l79 -99l78 99h73zM408 502v-49l-289 -395h307v-58h-391v49l289 395h-286v58h370z" />
    <glyph glyph-name="florin" unicode="&#x192;" horiz-adv-x="342" 
d="M298 737q21 0 39 -3t33 -10l-7 -58q-14 7 -29.5 10t-33.5 3q-37 0 -58 -22t-26 -66l-9 -89h139l-6 -58h-139l-57 -530q-7 -66 -44.5 -103t-98.5 -37q-20 0 -37.5 3t-33.5 10l6 58q16 -7 31.5 -10t31.5 -3q37 0 58 22t25 66l56 524h-102l6 58h102l11 95q7 66 44.5 103
t98.5 37z" />
    <glyph glyph-name="Aringacute" unicode="&#x1fa;" horiz-adv-x="675" 
d="M369 700l287 -700h-74l-83 203h-324l-81 -203h-74l286 700h63zM337 609l-13 -37l-126 -306h278l-126 306zM474 973l-96 -79q23 -11 36.5 -32t13.5 -47q0 -38 -26 -63.5t-66 -25.5q-39 0 -65 25.5t-26 63.5q0 28 12 47.5t36 30.5l83 80h98zM336 770q20 0 32.5 13t12.5 32
t-13 32t-32 13t-31.5 -13t-12.5 -32t12.5 -32t31.5 -13z" />
    <glyph glyph-name="aringacute" unicode="&#x1fb;" horiz-adv-x="482" 
d="M239 513q83 0 127.5 -46.5t44.5 -131.5v-335h-60l-2 73q-20 -36 -62 -60t-97 -24q-65 0 -103.5 37t-38.5 97q0 58 34 93.5t102 49.5l163 34v33q0 61 -27 91t-81 30q-50 0 -82 -27.5t-32 -80.5h-63q1 72 49.5 119.5t127.5 47.5zM385 834l-101 -83q29 -11 46.5 -36
t17.5 -59q0 -42 -28.5 -70t-73.5 -28t-73.5 28t-28.5 70q0 31 12.5 53t37.5 35l93 90h98zM347 243l-151 -33q-41 -10 -62.5 -29t-21.5 -57q0 -36 22.5 -56t63.5 -20q36 0 65 13.5t51 40.5q17 22 25 46.5t8 52.5v42zM191 657q0 -22 16 -38.5t39 -16.5q24 0 39.5 16.5
t15.5 38.5q0 24 -15.5 39.5t-39.5 15.5t-39.5 -16t-15.5 -39z" />
    <glyph glyph-name="AEacute" unicode="&#x1fc;" horiz-adv-x="916" 
d="M868 700v-62h-310v-246h275v-62h-275v-268h310v-62h-376v205h-262l-140 -205h-77l467 700h388zM492 607l-20 -36l-203 -306h223v342zM732 834l-125 -103h-80l107 103h98z" />
    <glyph glyph-name="aeacute" unicode="&#x1fd;" horiz-adv-x="851" 
d="M573 513q103 0 165.5 -65.5t62.5 -185.5v-35h-399q4 -82 52.5 -130.5t121.5 -48.5q59 0 97.5 23.5t56.5 70.5h65q-23 -73 -79.5 -113t-140.5 -40q-68 0 -121.5 32t-83.5 89q-29 -60 -74.5 -90.5t-106.5 -30.5q-67 0 -104 36.5t-37 97.5q0 57 34 92.5t102 50.5l154 33v33
q0 61 -26 91.5t-79 30.5q-48 0 -78 -27.5t-30 -80.5h-63q1 72 47 119.5t124 47.5q59 0 97.5 -23t56.5 -70q34 47 80.5 70t105.5 23zM573 454q-72 0 -118.5 -47.5t-52.5 -122.5h335q0 79 -44.5 124.5t-119.5 45.5zM338 243l-137 -32q-45 -10 -67 -30.5t-22 -57.5
q0 -34 21.5 -54.5t61.5 -20.5q34 0 61.5 13t47.5 39q17 23 25.5 47t8.5 49v47zM561 732l-137 -158h-66l122 158h81z" />
    <glyph glyph-name="Oslashacute" unicode="&#x1fe;" horiz-adv-x="793" 
d="M397 713q39 0 75.5 -7.5t70.5 -22.5l43 78l54 -26l-44 -80q72 -49 113.5 -128.5t41.5 -175.5q0 -156 -100 -260t-254 -104q-40 0 -77.5 8t-72.5 23l-44 -82l-54 26l46 84q-72 48 -112.5 128t-40.5 177q0 155 100.5 258.5t254.5 103.5zM682 351q0 78 -31 142.5t-86 104.5
l-287 -525q26 -12 56 -18t63 -6q124 0 204.5 86t80.5 216zM397 651q-125 0 -205.5 -85.5t-80.5 -214.5q0 -78 30 -142t85 -105l287 523q-28 12 -57 18t-59 6zM552 842l-125 -103h-80l107 103h98z" />
    <glyph glyph-name="oslashacute" unicode="&#x1ff;" horiz-adv-x="573" 
d="M287 513q27 0 52.5 -5t49.5 -15l39 73l44 -21l-40 -76q52 -37 78 -91.5t26 -126.5q0 -114 -69 -188t-180 -74q-26 0 -51.5 4.5t-49.5 14.5l-39 -73l-45 22l40 75q-50 35 -77.5 92t-27.5 127q0 114 69.5 188t180.5 74zM288 454q-84 0 -135.5 -57.5t-51.5 -145.5
q0 -53 18 -94t53 -70l188 353q-16 7 -34 10.5t-38 3.5zM472 251q0 53 -17.5 94t-52.5 69l-188 -352q17 -7 35.5 -10.5t38.5 -3.5q83 0 133.5 57.5t50.5 145.5zM449 732l-137 -158h-66l122 158h81z" />
    <glyph glyph-name="Scommaaccent" unicode="&#x218;" horiz-adv-x="517" 
d="M257 713q89 0 142 -50t54 -142h-67q-1 63 -36 97.5t-94 34.5q-58 0 -90.5 -33t-32.5 -91q0 -54 31.5 -81t115.5 -62q108 -42 152.5 -84.5t44.5 -116.5q0 -92 -57.5 -145t-151.5 -53q-104 0 -163.5 58.5t-60.5 156.5h67q1 -74 42.5 -114.5t115.5 -40.5q68 0 104.5 37.5
t36.5 97.5q0 49 -36 80t-124 63q-97 39 -140.5 81t-43.5 120q0 80 50 133.5t141 53.5zM310 -102q0 -40 -19 -82.5t-49 -73.5l-21 11q15 22 23.5 47t11.5 52q-21 2 -34.5 15.5t-13.5 34.5q0 22 14.5 36.5t36.5 14.5t36.5 -15.5t14.5 -39.5z" />
    <glyph glyph-name="scommaaccent" unicode="&#x219;" horiz-adv-x="438" 
d="M216 513q71 0 114.5 -40.5t44.5 -110.5h-65q-1 46 -25 69t-71 23q-45 0 -69 -21.5t-24 -57.5q0 -37 22 -54.5t86 -34.5q87 -24 125 -57.5t38 -91.5q0 -68 -47.5 -108t-122.5 -40q-83 0 -130.5 43.5t-48.5 114.5h65q1 -47 31 -73t85 -26q51 0 77.5 24t26.5 62q0 37 -26 58
t-94 38q-78 20 -114.5 51.5t-36.5 90.5q0 60 42.5 100.5t116.5 40.5zM270 -93q0 -40 -19 -82.5t-49 -73.5l-21 11q15 22 23.5 47t11.5 52q-21 2 -34.5 15.5t-13.5 34.5q0 22 14.5 36.5t36.5 14.5t36.5 -15.5t14.5 -39.5z" />
    <glyph glyph-name="circumflex" unicode="&#x2c6;" horiz-adv-x="323" 
d="M179 732l134 -158h-73l-78 99l-79 -99h-73l134 158h35z" />
    <glyph glyph-name="caron" unicode="&#x2c7;" horiz-adv-x="323" 
d="M313 720l-134 -158h-35l-134 158h73l79 -99l78 99h73z" />
    <glyph glyph-name="breve" unicode="&#x2d8;" horiz-adv-x="291" 
d="M281 705q0 -57 -37.5 -95t-97.5 -38q-61 0 -98.5 37.5t-37.5 95.5h56q0 -36 21.5 -59.5t58.5 -23.5q35 0 57 24t22 59h56z" />
    <glyph glyph-name="dotaccent" unicode="&#x2d9;" horiz-adv-x="118" 
d="M94 675q14 -15 14 -35t-14 -34q-15 -14 -35 -14t-34 14q-15 14 -15 34t15 35q14 14 34 14t35 -14z" />
    <glyph glyph-name="ring" unicode="&#x2da;" horiz-adv-x="224" 
d="M214 656q0 -42 -28.5 -70t-73.5 -28t-73.5 28t-28.5 70q0 44 28.5 72.5t73.5 28.5t73.5 -28.5t28.5 -72.5zM57 657q0 -22 16 -38.5t39 -16.5q24 0 39.5 16.5t15.5 38.5q0 24 -15.5 39.5t-39.5 15.5t-39.5 -16t-15.5 -39z" />
    <glyph glyph-name="ogonek" unicode="&#x2db;" horiz-adv-x="183" 
d="M90 30l28 -30q-30 -15 -45 -36t-15 -48q0 -29 15.5 -45t42.5 -16q13 0 23.5 2t19.5 7l14 -45q-10 -6 -25 -9t-34 -3q-46 0 -76 29t-30 79q0 36 20.5 65t61.5 50z" />
    <glyph glyph-name="tilde" unicode="&#x2dc;" horiz-adv-x="337" 
d="M108 698q26 0 45.5 -12t28.5 -26q9 -15 22.5 -27t28.5 -12q23 0 34.5 17t11.5 51h48q0 -54 -24.5 -87t-72.5 -33q-27 0 -46.5 12t-28.5 27t-22.5 27t-28.5 12q-23 0 -34.5 -17t-11.5 -52h-48q0 55 24.5 87.5t73.5 32.5z" />
    <glyph glyph-name="hungarumlaut" unicode="&#x2dd;" horiz-adv-x="339" 
d="M174 732l-103 -158h-61l94 158h70zM329 732l-103 -158h-61l94 158h70z" />
    <glyph glyph-name="uni03A9" unicode="&#x3a9;" horiz-adv-x="858" 
d="M757 394q0 -94 -42 -176t-126 -153h232v-65h-330v59q99 67 148.5 150t49.5 183q0 124 -68 202t-186 78t-186.5 -78.5t-68.5 -201.5q0 -100 49.5 -183t148.5 -150v-59h-330v65h233q-84 71 -126 153t-42 176q0 150 88 246.5t234 96.5t234 -96.5t88 -246.5z" />
    <glyph glyph-name="pi" unicode="&#x3c0;" horiz-adv-x="689" 
d="M620 575l52 -29q-24 -56 -58 -80.5t-108 -24.5h-17l-39 -295q-6 -46 4.5 -67.5t41.5 -21.5q20 0 38.5 8t36.5 23q12 -20 18.5 -32t7.5 -15q-29 -22 -58 -33t-59 -11q-58 0 -79 35t-12 107l39 302h-137l-36 -267q-7 -49 -18.5 -92.5t-27.5 -81.5h-69q20 40 34 86t21 99
l34 256h-20q-46 0 -84.5 -16t-69.5 -49l-32 46q44 43 84.5 60.5t116.5 17.5h250q70 0 97 15.5t49 59.5z" />
    <glyph glyph-name="Wgrave" unicode="&#x1e80;" horiz-adv-x="980" 
d="M959 700l-228 -700h-60l-169 531l-12 46l-12 -46l-168 -531h-60l-229 700h70l178 -542l12 -50l12 50l171 542h52l172 -542l11 -50l13 50l178 542h69zM427 834l107 -103h-79l-126 103h98z" />
    <glyph glyph-name="wgrave" unicode="&#x1e81;" horiz-adv-x="761" 
d="M742 502l-164 -502h-61l-137 393l-137 -393h-61l-163 502h67l119 -376l11 -42l11 42l127 376h53l127 -376l11 -42l11 42l119 376h67zM293 732l122 -158h-66l-137 158h81z" />
    <glyph glyph-name="Wacute" unicode="&#x1e82;" horiz-adv-x="980" 
d="M959 700l-228 -700h-60l-169 531l-12 46l-12 -46l-168 -531h-60l-229 700h70l178 -542l12 -50l12 50l171 542h52l172 -542l11 -50l13 50l178 542h69zM648 834l-125 -103h-80l107 103h98z" />
    <glyph glyph-name="wacute" unicode="&#x1e83;" horiz-adv-x="761" 
d="M742 502l-164 -502h-61l-137 393l-137 -393h-61l-163 502h67l119 -376l11 -42l11 42l127 376h53l127 -376l11 -42l11 42l119 376h67zM542 732l-137 -158h-66l122 158h81z" />
    <glyph glyph-name="Wdieresis" unicode="&#x1e84;" horiz-adv-x="980" 
d="M959 700l-228 -700h-60l-169 531l-12 46l-12 -46l-168 -531h-60l-229 700h70l178 -542l12 -50l12 50l171 542h52l172 -542l11 -50l13 50l178 542h69zM401 824q19 0 32 -13t13 -32t-13 -32t-32 -13t-32.5 13t-13.5 32t13 32t33 13zM579 824q19 0 32 -13t13 -32t-13 -32
t-32 -13t-32.5 13t-13.5 32t13 32t33 13z" />
    <glyph glyph-name="wdieresis" unicode="&#x1e85;" horiz-adv-x="761" 
d="M742 502l-164 -502h-61l-137 393l-137 -393h-61l-163 502h67l119 -376l11 -42l11 42l127 376h53l127 -376l11 -42l11 42l119 376h67zM322 664q13 -14 13 -33t-13 -32t-32 -13t-32 13q-14 13 -14 32t14 33q13 13 32 13t32 -13zM500 664q13 -14 13 -33t-13 -32t-32 -13
t-32 13q-14 13 -14 32t14 33q13 13 32 13t32 -13z" />
    <glyph glyph-name="Ygrave" unicode="&#x1ef2;" horiz-adv-x="667" 
d="M650 700l-283 -432v-268h-67v268l-283 432h78l210 -320l28 -47l28 47l211 320h78zM270 834l107 -103h-79l-126 103h98z" />
    <glyph glyph-name="ygrave" unicode="&#x1ef3;" horiz-adv-x="495" 
d="M476 502l-283 -717h-67l88 223l-195 494h67l151 -389l10 -35l11 35l150 389h68zM160 732l122 -158h-66l-137 158h81z" />
    <glyph glyph-name="endash" unicode="&#x2013;" horiz-adv-x="515" 
d="M490 288v-57h-465v57h465z" />
    <glyph glyph-name="emdash" unicode="&#x2014;" horiz-adv-x="705" 
d="M680 288v-57h-655v57h655z" />
    <glyph glyph-name="quoteleft" unicode="&#x2018;" horiz-adv-x="169" 
d="M101 723l23 -9q-15 -27 -24 -55t-12 -58q20 -2 34 -15.5t14 -34.5t-15 -36t-36 -15q-22 0 -36.5 15.5t-14.5 40.5q1 46 18 87.5t49 79.5z" />
    <glyph glyph-name="quoteright" unicode="&#x2019;" horiz-adv-x="169" 
d="M84 717q22 0 37 -15.5t15 -39.5q0 -44 -17 -86t-51 -82l-23 10q15 25 24 53t13 59q-21 2 -34.5 15.5t-13.5 34.5t14.5 36t35.5 15z" />
    <glyph glyph-name="quotesinglbase" unicode="&#x201a;" horiz-adv-x="169" 
d="M84 92q22 0 37 -15.5t15 -39.5q0 -43 -19 -88t-49 -79l-23 9q15 25 24 53t13 60q-21 2 -34.5 15.5t-13.5 34.5t14.5 35.5t35.5 14.5z" />
    <glyph glyph-name="quotedblleft" unicode="&#x201c;" horiz-adv-x="331" 
d="M101 723l23 -9q-15 -27 -24 -55t-12 -58q20 -2 34 -15.5t14 -34.5t-15 -36t-36 -15q-22 0 -36.5 15.5t-14.5 40.5q1 46 18 87.5t49 79.5zM261 723l23 -9q-15 -27 -24 -55t-12 -58q20 -2 34 -15.5t14 -34.5t-15 -36t-36 -15q-22 0 -36.5 15.5t-14.5 40.5q1 46 18 87.5
t49 79.5z" />
    <glyph glyph-name="quotedblright" unicode="&#x201d;" horiz-adv-x="331" 
d="M84 717q22 0 37 -15.5t15 -39.5q0 -44 -17 -86t-51 -82l-23 10q15 25 24 53t13 59q-21 2 -34.5 15.5t-13.5 34.5t14.5 36t35.5 15zM244 717q22 0 37 -15.5t15 -39.5q0 -44 -17 -86t-51 -82l-23 10q15 25 24 53t13 59q-21 2 -34.5 15.5t-13.5 34.5t14.5 36t35.5 15z" />
    <glyph glyph-name="quotedblbase" unicode="&#x201e;" horiz-adv-x="339" 
d="M84 92q22 0 37 -15.5t15 -39.5q0 -43 -19 -88t-49 -79l-23 9q15 25 24 53t13 60q-21 2 -34.5 15.5t-13.5 34.5t14.5 35.5t35.5 14.5zM253 92q22 0 37 -15.5t15 -39.5q0 -43 -19 -88t-49 -79l-23 9q15 25 24 53t13 60q-21 2 -34.5 15.5t-13.5 34.5t14.5 35.5t35.5 14.5z
" />
    <glyph glyph-name="dagger" unicode="&#x2020;" horiz-adv-x="441" 
d="M252 726v-204h173v-60h-173v-529h-63v529h-173v60h173v204h63z" />
    <glyph glyph-name="daggerdbl" unicode="&#x2021;" horiz-adv-x="441" 
d="M252 726v-204h173v-60h-173v-265h173v-60h-173v-204h-63v204h-173v60h173v265h-173v60h173v204h63z" />
    <glyph glyph-name="bullet" unicode="&#x2022;" horiz-adv-x="355" 
d="M278 360q41 -41 41 -101t-41 -100q-41 -41 -101 -41t-100 41q-41 40 -41 100t41 101q40 41 100 41t101 -41z" />
    <glyph glyph-name="ellipsis" unicode="&#x2026;" horiz-adv-x="588" 
d="M149 42q0 -22 -15.5 -37.5t-37.5 -15.5q-23 0 -38.5 15t-15.5 38t15.5 38.5t38.5 15.5t38 -15.5t15 -38.5zM348 42q0 -22 -15.5 -37.5t-38.5 -15.5t-38.5 15.5t-15.5 37.5q0 23 15.5 38.5t38.5 15.5t38.5 -15.5t15.5 -38.5zM546 42q0 -22 -15 -37.5t-38 -15.5t-38.5 15
t-15.5 38t15.5 38.5t38.5 15.5t38 -15.5t15 -38.5z" />
    <glyph glyph-name="perthousand" unicode="&#x2030;" horiz-adv-x="1206" 
d="M668 700l-443 -700h-73l443 700h73zM196 713q71 0 117.5 -49t46.5 -123t-46.5 -122t-117.5 -48t-117 48t-46 122t46.5 123t116.5 49zM87 541q0 -50 31 -83t78 -33t77 33t30 83q0 51 -30 84.5t-77 33.5t-78 -33.5t-31 -84.5zM625 329q70 0 116.5 -49t46.5 -123t-46.5 -122
t-116.5 -48q-71 0 -117.5 48t-46.5 122t46.5 123t117.5 49zM625 275q-48 0 -78.5 -33.5t-30.5 -84.5q0 -50 30.5 -83t78.5 -33q46 0 76.5 33t30.5 83q0 51 -30.5 84.5t-76.5 33.5zM1010 329q70 0 116.5 -49t46.5 -123t-46.5 -122t-116.5 -48q-71 0 -117.5 48t-46.5 122
t46.5 123t117.5 49zM901 157q0 -50 31 -83t78 -33t77 33t30 83q0 51 -30 84.5t-77 33.5t-78 -33.5t-31 -84.5z" />
    <glyph glyph-name="guilsinglleft" unicode="&#x2039;" horiz-adv-x="244" 
d="M230 446l-154 -196l154 -195h-67l-149 187v17l149 187h67z" />
    <glyph glyph-name="guilsinglright" unicode="&#x203a;" horiz-adv-x="244" 
d="M82 446l148 -187v-17l-148 -187h-68l155 195l-155 196h68z" />
    <glyph glyph-name="fraction" unicode="&#x2044;" horiz-adv-x="116" 
d="M316 700l-443 -700h-73l443 700h73z" />
    <glyph glyph-name="zero.sups" unicode="&#x2070;" horiz-adv-x="364" 
d="M181 807q68 0 105 -54t37 -148q0 -95 -37 -149.5t-105 -54.5q-67 0 -103.5 54.5t-36.5 149.5q0 94 36.5 148t103.5 54zM181 756q-41 0 -62.5 -40t-21.5 -111q0 -72 21.5 -112.5t62.5 -40.5q42 0 64 40.5t22 112.5q0 71 -22 111t-64 40z" />
    <glyph glyph-name="four.sups" unicode="&#x2074;" horiz-adv-x="354" 
d="M263 800v-264h58v-49h-58v-79h-55v79h-177v44l168 269h64zM208 724l-13 -24l-104 -164h117v188z" />
    <glyph glyph-name="five.sups" unicode="&#x2075;" horiz-adv-x="348" 
d="M290 800v-52h-172v-111q14 8 31.5 11.5t37.5 3.5q56 0 90 -32t34 -88q0 -58 -35.5 -94.5t-95.5 -36.5q-59 0 -94 29.5t-35 85.5h55q0 -32 20 -48t54 -16q37 0 57 21.5t20 56.5q0 34 -20.5 55t-56.5 21q-20 0 -37 -4.5t-31 -13.5h-49v212h227z" />
    <glyph glyph-name="six.sups" unicode="&#x2076;" horiz-adv-x="353" 
d="M184 807q51 0 84.5 -29.5t35.5 -79.5h-55q-3 29 -19.5 43.5t-47.5 14.5q-42 0 -63.5 -37t-22.5 -111q12 18 37.5 29.5t54.5 11.5q57 0 91 -34.5t34 -86.5q0 -56 -36 -91.5t-96 -35.5q-30 0 -54.5 10t-43.5 30q-21 22 -32 60.5t-11 92.5q0 107 36 160t108 53zM180 600
q-31 0 -54.5 -20t-24.5 -49v-3q0 -30 22 -53.5t57 -23.5q34 0 55.5 21.5t21.5 54.5q0 31 -21.5 52t-55.5 21z" />
    <glyph glyph-name="seven.sups" unicode="&#x2077;" horiz-adv-x="305" 
d="M275 800v-44l-169 -348h-60l165 339h-187v53h251z" />
    <glyph glyph-name="eight.sups" unicode="&#x2078;" horiz-adv-x="348" 
d="M295 696q0 -32 -15.5 -54.5t-35.5 -31.5q32 -15 48 -38.5t16 -55.5q0 -50 -38.5 -82.5t-95.5 -32.5t-95.5 32.5t-38.5 82.5q0 35 18.5 59t45.5 35q-19 9 -35 31.5t-16 54.5q0 48 33.5 79.5t87.5 31.5t87.5 -31.5t33.5 -79.5zM174 451q33 0 56 18t23 49t-23.5 50t-55.5 19
t-55 -19t-23 -50t23 -49t55 -18zM126 740q-18 -17 -18 -45t19 -45q18 -17 47 -17t48 17t19 45t-18 45q-19 17 -49 17t-48 -17z" />
    <glyph glyph-name="nine.sups" unicode="&#x2079;" horiz-adv-x="353" 
d="M171 807q31 0 56 -9.5t44 -28.5q21 -22 31.5 -60.5t10.5 -94.5q0 -106 -36 -159.5t-109 -53.5q-51 0 -84 29.5t-35 79.5h55q4 -29 20.5 -43.5t45.5 -14.5q43 0 65 37.5t22 111.5q-15 -20 -38 -30t-54 -10q-57 0 -91 33.5t-34 85.5q0 56 36 91.5t95 35.5zM172 606
q32 0 55.5 21t24.5 51v2q0 30 -22.5 53.5t-57.5 23.5q-33 0 -54.5 -22t-21.5 -55q0 -31 21.5 -52.5t54.5 -21.5z" />
    <glyph glyph-name="n.sups" unicode="&#x207f;" horiz-adv-x="405" 
d="M224 708q56 0 87 -35t31 -93v-221h-54v212q0 42 -20.5 64t-55.5 22q-38 0 -64.5 -29t-26.5 -78v-191h-53v342h48l3 -53q11 25 39 42.5t66 17.5z" />
    <glyph glyph-name="Euro" unicode="&#x20ac;" horiz-adv-x="567" 
d="M330 288v-56h-165q18 -87 61.5 -135t110.5 -48q58 0 94 29.5t49 88.5h72q-26 -91 -76 -135.5t-139 -44.5q-95 0 -156.5 65t-82.5 180h-83v56h75q-1 10 -1.5 26t-0.5 37q0 22 0.5 38.5t1.5 26.5h-75v56h83q21 114 82.5 177.5t156.5 63.5q89 0 142.5 -44.5t71.5 -133.5h-71
q-10 58 -45.5 87t-97.5 29q-66 0 -109.5 -47t-61.5 -132h164v-56h-172q-1 -15 -2 -31.5t-1 -33.5q0 -16 1 -32t2 -31h172z" />
    <glyph glyph-name="afii61289" unicode="&#x2113;" horiz-adv-x="581" 
d="M322 744q68 0 106.5 -42t38.5 -111q0 -86 -59.5 -165t-169.5 -173v-100q0 -53 18.5 -79.5t67.5 -26.5q51 0 85 30.5t69 91.5l43 -27q-42 -72 -88.5 -112t-115.5 -40q-74 0 -103.5 38t-32.5 103q-2 2 -3 20.5t-1 52.5q-22 -20 -46.5 -40.5t-51.5 -42.5l-33 47
q45 38 77 66.5t51 46.5v293q0 82 40.5 126t107.5 44zM321 691q-41 0 -64.5 -29.5t-23.5 -84.5v-257q83 72 130.5 137.5t47.5 129.5q0 50 -23 77t-67 27z" />
    <glyph glyph-name="trademark" unicode="&#x2122;" horiz-adv-x="611" 
d="M235 700v-48h-80v-232h-52v232h-82v48h214zM568 700v-280h-51v185l-8 -24l-70 -161h-39l-69 161l-9 24v-185h-52v280h60l83 -188l7 -17l6 17l83 188h59z" />
    <glyph glyph-name="Omega" unicode="&#x2126;" horiz-adv-x="858" 
d="M757 394q0 -94 -42 -176t-126 -153h232v-65h-330v59q99 67 148.5 150t49.5 183q0 124 -68 202t-186 78t-186.5 -78.5t-68.5 -201.5q0 -100 49.5 -183t148.5 -150v-59h-330v65h233q-84 71 -126 153t-42 176q0 150 88 246.5t234 96.5t234 -96.5t88 -246.5z" />
    <glyph glyph-name="estimated" unicode="&#x212e;" horiz-adv-x="590" 
d="M308 510q-41 0 -80 -13t-62 -34q-16 -11 -24 -25.5t-8 -31.5v-100h327v104q0 22 -7 37.5t-21 24.5q-25 19 -56 28.5t-69 9.5zM308 536q108 0 177.5 -68.5t69.5 -188.5h-421v-158q0 -19 7.5 -33t22.5 -24q31 -24 67 -36.5t77 -12.5q69 0 124.5 32t97.5 95l22 -14
q-43 -69 -104 -104t-140 -35q-116 0 -194.5 76.5t-78.5 196.5t78.5 197t194.5 77z" />
    <glyph glyph-name="partialdiff" unicode="&#x2202;" horiz-adv-x="530" 
d="M247 742q124 0 186 -107t62 -322q0 -69 -8.5 -119.5t-25.5 -82.5q-31 -59 -80 -88.5t-115 -29.5q-99 0 -164 65.5t-65 167.5q0 100 64 165t161 65q62 0 105 -26t62 -58q-3 145 -49.5 227.5t-137.5 82.5q-45 0 -80.5 -19t-62.5 -57l-47 43q37 47 86 70t109 23zM267 398
q-71 0 -118 -48.5t-47 -123.5q0 -77 47 -126t118 -49q70 0 115.5 49t45.5 126q0 75 -45.5 123.5t-115.5 48.5z" />
    <glyph glyph-name="uni2206" unicode="&#x2206;" horiz-adv-x="721" 
d="M361 644l324 -644h-649zM361 521l-236 -467h471z" />
    <glyph glyph-name="product" unicode="&#x220f;" horiz-adv-x="680" 
d="M645 700v-60h-140v-758h-60v758h-210v-758h-60v758h-140v60h610z" />
    <glyph glyph-name="summation" unicode="&#x2211;" horiz-adv-x="610" 
d="M549 700v-60h-414l199 -278l-205 -302h433v-60h-517v40l216 321l-213 299v40h501z" />
    <glyph glyph-name="minus" unicode="&#x2212;" horiz-adv-x="472" 
d="M442 379v-58h-412v58h412z" />
    <glyph glyph-name="radical" unicode="&#x221a;" horiz-adv-x="697" 
d="M606 693l56 -20l-291 -743l-173 341l-129 -74l-30 50l187 111l142 -287z" />
    <glyph glyph-name="infinity" unicode="&#x221e;" horiz-adv-x="739" 
d="M545 453q72 0 117 -49.5t45 -122.5t-45 -122.5t-117 -49.5q-26 0 -49 7.5t-45 24.5q-23 17 -33.5 27t-32.5 32q-2 3 -4 4.5t-3 2.5l-22 23l-22 -24q-37 -40 -74 -60.5t-73 -20.5q-67 0 -106.5 44.5t-39.5 110.5q0 67 39.5 112t106.5 45q41 0 73.5 -21.5t72.5 -62.5
l23 -25l16 20q42 50 82 77t91 28zM545 393q-33 0 -67 -22.5t-69 -68.5l-17 -23l21 -24q24 -27 37 -40t41 -29q13 -9 27 -13t27 -4q46 0 75 32t29 80t-29 80t-75 32zM186 380q-42 0 -66 -28.5t-24 -71.5q0 -42 24.5 -70t65.5 -28q28 0 56.5 18t57.5 54l20 25l-20 26
q-32 38 -60.5 56.5t-53.5 18.5z" />
    <glyph glyph-name="integral" unicode="&#x222b;" horiz-adv-x="434" 
d="M315 750q28 0 53 -6t47 -18l-18 -54q-18 11 -37 16t-38 5q-37 0 -56 -26.5t-19 -79.5v-611q0 -88 -31.5 -127.5t-97.5 -39.5q-32 0 -59.5 6t-49.5 19l21 54q17 -11 37 -16t42 -5q40 0 60 27t20 82v611q0 86 31.5 124.5t94.5 38.5z" />
    <glyph glyph-name="approxequal" unicode="&#x2248;" horiz-adv-x="572" 
d="M186 329q35 0 65 -14.5t48 -31.5q17 -18 43 -32.5t54 -14.5q38 0 64.5 21.5t40.5 63.5l46 -25q-21 -60 -58.5 -90.5t-92.5 -30.5q-36 0 -66 14.5t-47 32.5t-43 32.5t-55 14.5q-37 0 -63 -21.5t-41 -65.5l-46 26q22 61 59.5 91t91.5 30zM186 531q35 0 65 -14.5t48 -31.5
q17 -18 43 -32.5t54 -14.5q38 0 64 21.5t40 64.5l47 -26q-21 -60 -59 -90t-93 -30q-36 0 -65.5 14.5t-46.5 32.5q-17 17 -43 31.5t-55 14.5q-38 0 -64 -21.5t-40 -64.5l-47 25q21 61 59 91t93 30z" />
    <glyph glyph-name="notequal" unicode="&#x2260;" horiz-adv-x="459" 
d="M442 276v-58h-230l-36 -100h-63l36 100h-119v58h140l54 147h-194v58h215l40 111h64l-41 -111h134v-58h-155l-54 -147h209z" />
    <glyph glyph-name="lessequal" unicode="&#x2264;" horiz-adv-x="333" 
d="M310 579l-204 -171l204 -170h-85l-202 168v4l202 169h85zM310 179v-53h-287v53h287z" />
    <glyph glyph-name="greaterequal" unicode="&#x2265;" horiz-adv-x="333" 
d="M107 579l203 -169v-4l-203 -168h-84l203 170l-203 171h84zM310 179v-53h-287v53h287z" />
    <glyph glyph-name="lozenge" unicode="&#x25ca;" horiz-adv-x="550" 
d="M296 738l228 -402l-228 -401h-41l-229 401l229 402h41zM276 646l-185 -310l185 -311l184 311z" />
    <glyph glyph-name="commaaccent" unicode="&#xf6c3;" horiz-adv-x="186" 
d="M144 -92q0 -40 -19 -82.5t-49 -73.5l-21 11q15 22 23.5 47t11.5 52q-21 2 -34.5 15.5t-13.5 34.5q0 22 14.5 36.5t36.5 14.5t36.5 -15.5t14.5 -39.5z" />
    <glyph glyph-name="fi" unicode="&#xfb01;" horiz-adv-x="540" 
d="M235 737q21 0 37.5 -3t29.5 -10v-58q-14 7 -30.5 10t-34.5 3q-32 0 -48 -22t-16 -66v-89h129v-58h-129v-444h-63v444h-102v58h102v90q0 68 33 106.5t92 38.5zM455 502v-502h-63v502h63zM424 710q20 0 34.5 -14.5t14.5 -34.5t-14.5 -34t-34.5 -14q-21 0 -35 14t-14 34
t14 34.5t35 14.5z" />
    <glyph glyph-name="g.alt" horiz-adv-x="600" 
d="M275 453q-80 0 -127 -56t-47 -145q0 -88 48.5 -144t127.5 -56q70 0 120.5 52.5t50.5 140.5v21q0 85 -50.5 136t-122.5 51zM269 513q64 0 111.5 -29.5t68.5 -67.5l2 86h59v-495q0 -106 -62 -169.5t-167 -63.5q-86 0 -146 40.5t-79 124.5h66q13 -54 53 -80.5t106 -26.5
q79 0 122.5 45t43.5 129v81q-19 -38 -66.5 -66.5t-110.5 -28.5q-106 0 -169.5 73t-63.5 187q0 115 63 188t169 73z" />
    <glyph glyph-name="a.alt" horiz-adv-x="591" 
d="M278 453q-80 0 -128.5 -56.5t-48.5 -145.5t48 -146t128 -57q71 0 121.5 51.5t50.5 137.5v23q0 88 -50 140.5t-121 52.5zM272 513q65 0 111 -28.5t68 -69.5l2 87h58v-502h-58l-2 85q-22 -38 -69 -67t-111 -29q-107 0 -170.5 74t-63.5 188t64 188t171 74z" />
    <glyph glyph-name="parenleft.cap" horiz-adv-x="262" 
d="M203 753l46 -34q-71 -89 -103 -176t-32 -202t32 -202t103 -176l-46 -34q-75 95 -113 193t-38 219t38 219t113 193z" />
    <glyph glyph-name="parenright.cap" horiz-adv-x="262" 
d="M59 753q75 -95 113 -193t38 -219t-38 -219t-113 -193l-46 34q71 89 103 176t32 202t-32 202t-103 176z" />
    <glyph glyph-name="bracketleft.cap" horiz-adv-x="265" 
d="M240 736v-58h-109v-677h109v-58h-170v793h170z" />
    <glyph glyph-name="bracketright.cap" horiz-adv-x="265" 
d="M195 736v-793h-170v58h108v677h-108v58h170z" />
    <glyph glyph-name="braceleft.cap" horiz-adv-x="271" 
d="M246 736v-58h-30q-32 0 -48.5 -18t-16.5 -54v-171q0 -36 -13.5 -60t-40.5 -36q27 -11 40.5 -35t13.5 -60v-171q0 -36 16.5 -54t48.5 -18h30v-58h-31q-61 0 -92.5 34.5t-31.5 95.5v166q0 36 -16 54t-49 18h-18v57h18q33 0 49 18t16 54v166q0 61 31.5 95.5t92.5 34.5h31z
" />
    <glyph glyph-name="braceright.cap" horiz-adv-x="271" 
d="M56 736q61 0 92.5 -34.5t31.5 -95.5v-166q0 -36 16.5 -54t48.5 -18h18v-57h-18q-32 0 -48.5 -18t-16.5 -54v-166q0 -61 -31.5 -95.5t-92.5 -34.5h-31v58h30q33 0 49 18t16 54v171q0 36 13.5 60t40.5 35q-27 12 -40.5 36t-13.5 60v171q0 36 -16 54t-49 18h-30v58h31z" />
    <glyph glyph-name="hyphen.cap" horiz-adv-x="365" 
d="M340 359v-57h-315v57h315z" />
    <glyph glyph-name="endash.cap" horiz-adv-x="515" 
d="M490 358v-57h-465v57h465z" />
    <glyph glyph-name="emdash.cap" horiz-adv-x="705" 
d="M680 359v-57h-655v57h655z" />
    <glyph glyph-name="at.cap" horiz-adv-x="798" 
d="M389 501q-62 0 -98 -42.5t-36 -110.5t35.5 -109.5t96.5 -41.5q56 0 95 36.5t39 100.5v23q0 67 -39 105.5t-93 38.5zM401 713q160 0 259 -103t99 -261q0 -105 -41 -154.5t-98 -49.5q-38 0 -62 16t-33 48q-18 -27 -55.5 -46.5t-87.5 -19.5q-83 0 -134 58t-51 147
q0 90 51 148t135 58q51 0 87 -22.5t51 -53.5l2 67h52v-297q0 -27 12.5 -40.5t37.5 -13.5q40 0 60 39t20 116q0 136 -84 224.5t-220 88.5q-139 0 -223.5 -88.5t-84.5 -224.5t84.5 -225t223.5 -89q38 0 72 7.5t64 21.5l18 -49q-35 -16 -73.5 -23.5t-80.5 -7.5
q-163 0 -262.5 103t-99.5 262q0 160 99.5 262t262.5 102z" />
    <glyph glyph-name="periodcentered.cap" horiz-adv-x="191" 
d="M96 402q22 0 37.5 -15t15.5 -38t-15 -38.5t-38 -15.5t-38.5 15.5t-15.5 38.5t15.5 38t38.5 15z" />
    <glyph glyph-name="exclamdown.cap" 
d="M84 0v507h63v-507h-63zM61 658q0 22 15.5 37.5t38.5 15.5t38.5 -15t15.5 -38t-15.5 -38.5t-38.5 -15.5t-38.5 15.5t-15.5 38.5z" />
    <glyph glyph-name="questiondown.cap" horiz-adv-x="400" 
d="M205 -14q-81 0 -136.5 50.5t-55.5 139.5q0 49 17 88t42 64q24 24 48 45t41 45q9 12 13 25t4 26v41h63v-42q0 -35 -17 -64t-41 -51q-25 -22 -49.5 -44.5t-41.5 -55.5q-8 -17 -12.5 -35.5t-4.5 -39.5q0 -65 36.5 -100.5t92.5 -35.5q62 0 97.5 36.5t35.5 105.5h62
q-1 -95 -55 -146.5t-139 -51.5zM155 661q0 22 15.5 37.5t38.5 15.5t38.5 -15t15.5 -38t-15.5 -38.5t-38.5 -15.5t-38.5 15.5t-15.5 38.5z" />
    <glyph glyph-name="endash_guilsinglright" horiz-adv-x="656" 
d="M332 535l281 -256l-281 -256l-34 41l207 187h-462v56h463l-208 187z" />
    <glyph glyph-name="emdash_guilsinglright" horiz-adv-x="986" 
d="M660 535l284 -256l-284 -256l-33 41l207 187h-791v56h792l-208 187z" />
    <glyph glyph-name="guilsinglleft_endash" horiz-adv-x="656" 
d="M326 535l33 -41l-208 -187h462v-56h-461l207 -187l-33 -41l-283 256z" />
    <glyph glyph-name="guilsinglleft_emdash" horiz-adv-x="986" 
d="M326 535l33 -41l-208 -187h793v-56h-792l207 -187l-33 -41l-283 256z" />
    <glyph glyph-name="guilsinglleft.cap" horiz-adv-x="244" 
d="M230 536l-154 -196l154 -195h-67l-149 187v17l149 187h67z" />
    <glyph glyph-name="guilsinglright.cap" horiz-adv-x="244" 
d="M82 536l148 -187v-17l-148 -187h-68l155 195l-155 196h68z" />
    <glyph glyph-name="guillemotleft.cap" horiz-adv-x="441" 
d="M225 536l-149 -196l149 -195h-67l-144 187v17l144 187h67zM427 536l-150 -196l150 -195h-68l-144 187v17l144 187h68z" />
    <glyph glyph-name="guillemotright.cap" horiz-adv-x="441" 
d="M82 536l143 -187v-17l-143 -187h-68l150 195l-150 196h68zM283 536l144 -187v-17l-144 -187h-68l150 195l-150 196h68z" />
    <glyph glyph-name="germandbls.cap" horiz-adv-x="605" 
d="M323 713q69 0 117.5 -21t93.5 -66l-165 -220q90 -5 146 -60t56 -141q0 -96 -62.5 -154t-176.5 -58q-26 0 -50.5 2.5t-48.5 7.5l6 63q21 -5 44 -8t48 -3q81 0 126.5 37.5t45.5 111.5q0 72 -53 111.5t-148 39.5l-21 25l169 228q-22 22 -54 32.5t-74 10.5
q-73 0 -122.5 -47.5t-49.5 -130.5v-473h-67v472q0 106 66 173.5t174 67.5z" />
    <glyph glyph-name="grave.cap" horiz-adv-x="225" 
d="M108 834l107 -103h-79l-126 103h98z" />
    <glyph glyph-name="acute.cap" horiz-adv-x="225" 
d="M215 834l-125 -103h-80l107 103h98z" />
    <glyph glyph-name="circumflex.cap" horiz-adv-x="341" 
d="M194 835l137 -105h-88l-73 57l-73 -57h-87l138 105h46z" />
    <glyph glyph-name="caron.cap" horiz-adv-x="341" 
d="M331 832l-137 -105h-46l-138 105h87l73 -56l73 56h88z" />
    <glyph glyph-name="tilde.cap" horiz-adv-x="337" 
d="M108 848q27 0 46.5 -11t28.5 -23q9 -13 22 -24t28 -11q23 0 34.5 15t11.5 45h48q0 -51 -24.5 -81.5t-72.5 -30.5q-27 0 -47 11t-29 24t-22 24t-28 11q-23 0 -34.5 -15t-11.5 -46h-48q0 51 24.5 81.5t73.5 30.5z" />
    <glyph glyph-name="dieresis.cap" horiz-adv-x="289" 
d="M56 824q19 0 32 -13t13 -32t-13 -32t-32 -13t-32.5 13t-13.5 32t13 32t33 13zM234 824q19 0 32 -13t13 -32t-13 -32t-32 -13t-32.5 13t-13.5 32t13 32t33 13z" />
    <glyph glyph-name="macron.cap" horiz-adv-x="273" 
d="M263 797v-54h-253v54h253z" />
    <glyph glyph-name="breve.cap" horiz-adv-x="291" 
d="M281 843q0 -51 -37.5 -82.5t-97.5 -31.5q-61 0 -98.5 31.5t-37.5 82.5h56q0 -29 21.5 -46.5t58.5 -17.5q36 0 57 17.5t21 46.5h57z" />
    <glyph glyph-name="ring.cap" horiz-adv-x="200" 
d="M68 847q-13 -13 -13 -32t13 -32q12 -13 31 -13t32 13t13 32t-13 32t-32 13t-31 -13zM99 903q40 0 66 -25t26 -63t-26 -63.5t-66 -25.5q-39 0 -65 25.5t-26 63.5t26 63t65 25z" />
    <glyph glyph-name="hungarumlaut.cap" horiz-adv-x="315" 
d="M163 833l-91 -105h-62l81 105h72zM305 833l-90 -105h-64l82 105h72z" />
    <glyph glyph-name="dotaccent.cap" horiz-adv-x="115" 
d="M92 816q13 -14 13 -34t-13 -33q-14 -14 -34 -14t-34 14q-14 13 -14 33t14 34q14 13 34 13t34 -13z" />
    <glyph glyph-name="aogonek.alt" horiz-adv-x="591" 
d="M272 513q65 0 111 -28.5t68 -69.5l2 87h58v-502h-1q-30 -15 -45 -36t-15 -48q0 -29 15.5 -45t42.5 -16q13 0 23.5 2t19.5 7l14 -45q-10 -6 -25 -9t-34 -3q-46 0 -76 29t-30 79q0 30 13 54t39 43l-1 73q-22 -38 -69 -67t-111 -29q-107 0 -170.5 74t-63.5 188t64 188
t171 74zM278 453q-80 0 -128.5 -56.5t-48.5 -145.5t48 -146t128 -57q71 0 121.5 51.5t50.5 137.5v23q0 88 -50 140.5t-121 52.5z" />
    <glyph glyph-name="aringacute.alt" horiz-adv-x="591" 
d="M272 513q65 0 111 -28.5t68 -69.5l2 87h58v-502h-58l-2 85q-22 -38 -69 -67t-111 -29q-107 0 -170.5 74t-63.5 188t64 188t171 74zM278 453q-80 0 -128.5 -56.5t-48.5 -145.5t48 -146t128 -57q71 0 121.5 51.5t50.5 137.5v23q0 88 -50 140.5t-121 52.5zM420 834l-101 -83
q30 -11 47.5 -36t17.5 -59q0 -42 -28.5 -70t-73.5 -28t-73.5 28t-28.5 70q0 30 12 51.5t35 35.5l95 91h98zM227 657q0 -22 16 -38.5t39 -16.5q24 0 39.5 16.5t15.5 38.5q0 24 -15.5 39.5t-39.5 15.5t-39.5 -16t-15.5 -39z" />
    <glyph glyph-name="aacute.alt" horiz-adv-x="591" 
d="M278 453q-80 0 -128.5 -56.5t-48.5 -145.5t48 -146t128 -57q71 0 121.5 51.5t50.5 137.5v23q0 88 -50 140.5t-121 52.5zM272 513q65 0 111 -28.5t68 -69.5l2 87h58v-502h-58l-2 85q-22 -38 -69 -67t-111 -29q-107 0 -170.5 74t-63.5 188t64 188t171 74zM438 732
l-137 -158h-66l122 158h81z" />
    <glyph glyph-name="abreve.alt" horiz-adv-x="591" 
d="M278 453q-80 0 -128.5 -56.5t-48.5 -145.5t48 -146t128 -57q71 0 121.5 51.5t50.5 137.5v23q0 88 -50 140.5t-121 52.5zM272 513q65 0 111 -28.5t68 -69.5l2 87h58v-502h-58l-2 85q-22 -38 -69 -67t-111 -29q-107 0 -170.5 74t-63.5 188t64 188t171 74zM410 705
q0 -57 -38 -95t-97 -38q-61 0 -98.5 37.5t-37.5 95.5h56q0 -36 21.5 -59.5t58.5 -23.5q35 0 57 24t22 59h56z" />
    <glyph glyph-name="adieresis.alt" horiz-adv-x="591" 
d="M278 453q-80 0 -128.5 -56.5t-48.5 -145.5t48 -146t128 -57q71 0 121.5 51.5t50.5 137.5v23q0 88 -50 140.5t-121 52.5zM272 513q65 0 111 -28.5t68 -69.5l2 87h58v-502h-58l-2 85q-22 -38 -69 -67t-111 -29q-107 0 -170.5 74t-63.5 188t64 188t171 74zM218 664
q13 -14 13 -33t-13 -32t-32 -13t-32 13q-14 13 -14 32t14 33q13 13 32 13t32 -13zM396 664q13 -14 13 -33t-13 -32t-32 -13t-32 13q-14 13 -14 32t14 33q13 13 32 13t32 -13z" />
    <glyph glyph-name="agrave.alt" horiz-adv-x="591" 
d="M278 453q-80 0 -128.5 -56.5t-48.5 -145.5t48 -146t128 -57q71 0 121.5 51.5t50.5 137.5v23q0 88 -50 140.5t-121 52.5zM272 513q65 0 111 -28.5t68 -69.5l2 87h58v-502h-58l-2 85q-22 -38 -69 -67t-111 -29q-107 0 -170.5 74t-63.5 188t64 188t171 74zM188 732l122 -158
h-66l-137 158h81z" />
    <glyph glyph-name="amacron.alt" horiz-adv-x="591" 
d="M278 453q-80 0 -128.5 -56.5t-48.5 -145.5t48 -146t128 -57q71 0 121.5 51.5t50.5 137.5v23q0 88 -50 140.5t-121 52.5zM272 513q65 0 111 -28.5t68 -69.5l2 87h58v-502h-58l-2 85q-22 -38 -69 -67t-111 -29q-107 0 -170.5 74t-63.5 188t64 188t171 74zM401 655v-55h-253
v55h253z" />
    <glyph glyph-name="aring.alt" horiz-adv-x="591" 
d="M278 453q-80 0 -128.5 -56.5t-48.5 -145.5t48 -146t128 -57q71 0 121.5 51.5t50.5 137.5v23q0 88 -50 140.5t-121 52.5zM272 513q65 0 111 -28.5t68 -69.5l2 87h58v-502h-58l-2 85q-22 -38 -69 -67t-111 -29q-107 0 -170.5 74t-63.5 188t64 188t171 74zM375 656
q0 -42 -28.5 -70t-73.5 -28t-73.5 28t-28.5 70q0 44 28.5 72.5t73.5 28.5t73.5 -28.5t28.5 -72.5zM218 657q0 -22 16 -38.5t39 -16.5q24 0 39.5 16.5t15.5 38.5q0 24 -15.5 39.5t-39.5 15.5t-39.5 -16t-15.5 -39z" />
    <glyph glyph-name="atilde.alt" horiz-adv-x="591" 
d="M278 453q-80 0 -128.5 -56.5t-48.5 -145.5t48 -146t128 -57q71 0 121.5 51.5t50.5 137.5v23q0 88 -50 140.5t-121 52.5zM272 513q65 0 111 -28.5t68 -69.5l2 87h58v-502h-58l-2 85q-22 -38 -69 -67t-111 -29q-107 0 -170.5 74t-63.5 188t64 188t171 74zM214 698
q26 0 45.5 -12t28.5 -26q9 -15 22.5 -27t28.5 -12q23 0 34.5 17t11.5 51h48q0 -54 -24.5 -87t-72.5 -33q-27 0 -46.5 12t-28.5 27t-22.5 27t-28.5 12q-23 0 -34.5 -17t-11.5 -52h-48q0 55 24.5 87.5t73.5 32.5z" />
    <glyph glyph-name="gbreve.alt" horiz-adv-x="600" 
d="M408 705q0 -57 -38 -95t-97 -38q-61 0 -98.5 37.5t-37.5 95.5h56q0 -36 21.5 -59.5t58.5 -23.5q35 0 57 24t22 59h56zM275 453q-80 0 -127 -56t-47 -145q0 -88 48.5 -144t127.5 -56q70 0 120.5 52.5t50.5 140.5v21q0 85 -50.5 136t-122.5 51zM269 513q64 0 111.5 -29.5
t68.5 -67.5l2 86h59v-495q0 -106 -62 -169.5t-167 -63.5q-86 0 -146 40.5t-79 124.5h66q13 -54 53 -80.5t106 -26.5q79 0 122.5 45t43.5 129v81q-19 -38 -66.5 -66.5t-110.5 -28.5q-106 0 -169.5 73t-63.5 187q0 115 63 188t169 73z" />
    <glyph glyph-name="gcircumflex.alt" horiz-adv-x="600" 
d="M275 453q-80 0 -127 -56t-47 -145q0 -88 48.5 -144t127.5 -56q70 0 120.5 52.5t50.5 140.5v21q0 85 -50.5 136t-122.5 51zM269 513q64 0 111.5 -29.5t68.5 -67.5l2 86h59v-495q0 -106 -62 -169.5t-167 -63.5q-86 0 -146 40.5t-79 124.5h66q13 -54 53 -80.5t106 -26.5
q79 0 122.5 45t43.5 129v81q-19 -38 -66.5 -66.5t-110.5 -28.5q-106 0 -169.5 73t-63.5 187q0 115 63 188t169 73zM290 732l134 -158h-73l-78 99l-79 -99h-73l134 158h35z" />
    <glyph glyph-name="gcommaaccent.alt" horiz-adv-x="600" 
d="M275 453q-80 0 -127 -56t-47 -145q0 -88 48.5 -144t127.5 -56q70 0 120.5 52.5t50.5 140.5v21q0 85 -50.5 136t-122.5 51zM269 513q64 0 111.5 -29.5t68.5 -67.5l2 86h59v-495q0 -106 -62 -169.5t-167 -63.5q-86 0 -146 40.5t-79 124.5h66q13 -54 53 -80.5t106 -26.5
q79 0 122.5 45t43.5 129v81q-19 -38 -66.5 -66.5t-110.5 -28.5q-106 0 -169.5 73t-63.5 187q0 115 63 188t169 73zM296 786l23 -9q-15 -27 -24 -55t-12 -58q20 -2 34 -16t14 -34q0 -21 -15 -36t-36 -15q-22 0 -36.5 15.5t-14.5 40.5q1 46 18 87.5t49 79.5z" />
    <glyph glyph-name="gdotaccent.alt" horiz-adv-x="600" 
d="M275 453q-80 0 -127 -56t-47 -145q0 -88 48.5 -144t127.5 -56q70 0 120.5 52.5t50.5 140.5v21q0 85 -50.5 136t-122.5 51zM269 513q64 0 111.5 -29.5t68.5 -67.5l2 86h59v-495q0 -106 -62 -169.5t-167 -63.5q-86 0 -146 40.5t-79 124.5h66q13 -54 53 -80.5t106 -26.5
q79 0 122.5 45t43.5 129v81q-19 -38 -66.5 -66.5t-110.5 -28.5q-106 0 -169.5 73t-63.5 187q0 115 63 188t169 73zM308 675q14 -15 14 -35t-14 -34q-15 -14 -35 -14t-34 14q-15 14 -15 34t15 35q14 14 34 14t35 -14z" />
    <glyph glyph-name="acircumflex.alt" horiz-adv-x="591" 
d="M278 453q-80 0 -128.5 -56.5t-48.5 -145.5t48 -146t128 -57q71 0 121.5 51.5t50.5 137.5v23q0 88 -50 140.5t-121 52.5zM272 513q65 0 111 -28.5t68 -69.5l2 87h58v-502h-58l-2 85q-22 -38 -69 -67t-111 -29q-107 0 -170.5 74t-63.5 188t64 188t171 74zM298 732l134 -158
h-73l-78 99l-79 -99h-73l134 158h35z" />
    <glyph glyph-name="f_j" horiz-adv-x="540" 
d="M235 737q21 0 37.5 -3t29.5 -10v-58q-14 7 -30.5 10t-34.5 3q-32 0 -48 -22t-16 -66v-89h129v-58h-129v-444h-63v444h-102v58h102v90q0 68 33 106.5t92 38.5zM455 502v-574q0 -89 -39.5 -121.5t-100.5 -32.5q-17 0 -31 1.5t-25 5.5v59q12 -4 24.5 -6t25.5 -2
q46 0 64.5 25t18.5 72v573h63zM424 710q20 0 34.5 -14.5t14.5 -34.5t-14.5 -34t-34.5 -14q-21 0 -35 14t-14 34t14 34.5t35 14.5z" />
    <glyph glyph-name="zero.tnum" horiz-adv-x="549" 
d="M274 553q107 0 168 -77.5t61 -204.5q0 -128 -61 -206t-168 -78q-106 0 -167 78t-61 206q0 127 61 204.5t167 77.5zM274 492q-75 0 -118 -61t-43 -160q0 -100 43 -161.5t118 -61.5q76 0 118.5 61.5t42.5 161.5t-42.5 160.5t-118.5 60.5z" />
    <glyph glyph-name="one.tnum" horiz-adv-x="319" 
d="M239 540v-540h-66v411h-147v48q81 0 114.5 16t45.5 65h53z" />
    <glyph glyph-name="two.tnum" horiz-adv-x="482" 
d="M240 553q89 0 138.5 -49t49.5 -130q0 -54 -27 -103t-81 -94l-140 -115h266v-62h-387v44l220 181q44 37 62.5 68t18.5 79q0 60 -30 89.5t-90 29.5q-52 0 -85 -33t-32 -97h-67q0 88 50.5 140t133.5 52z" />
    <glyph glyph-name="three.tnum" horiz-adv-x="524" 
d="M446 365q0 -62 -30.5 -100.5t-73.5 -52.5q53 -13 90.5 -58.5t37.5 -113.5q0 -84 -57.5 -138.5t-147.5 -54.5q-101 0 -159.5 54.5t-58.5 152.5h65q1 -74 42.5 -109.5t111.5 -35.5q60 0 98 36t38 96q0 68 -49 104.5t-140 36.5h-13v60h13q86 0 125.5 29t39.5 93q0 59 -31 93
t-90 34q-56 0 -91.5 -36t-35.5 -107h-66q0 94 52.5 149.5t140.5 55.5t138.5 -53t50.5 -135z" />
    <glyph glyph-name="four.tnum" horiz-adv-x="523" 
d="M391 540v-476h103v-61h-103v-143h-66v143h-295v54l290 483h71zM325 430l-24 -44l-195 -322h219v366z" />
    <glyph glyph-name="five.tnum" horiz-adv-x="528" 
d="M452 540v-62h-294v-228q24 15 54.5 22.5t67.5 7.5q96 0 153 -58.5t57 -151.5q0 -96 -57.5 -159.5t-155.5 -63.5q-94 0 -150 50.5t-56 146.5h66q1 -68 38.5 -101.5t101.5 -33.5q68 0 106.5 44t38.5 115q0 68 -38.5 109.5t-107.5 41.5q-36 0 -68 -9t-59 -27h-58v357h361z
" />
    <glyph glyph-name="six.tnum" horiz-adv-x="538" 
d="M287 693q81 0 134 -49t57 -132h-67q-6 60 -37.5 89.5t-88.5 29.5q-80 0 -120.5 -71t-42.5 -226q20 38 65.5 64t97.5 26q96 0 152.5 -61.5t56.5 -153.5q0 -95 -58 -158.5t-154 -63.5q-48 0 -87.5 17t-71.5 51q-34 37 -51 103.5t-17 161.5q0 184 55.5 278.5t176.5 94.5z
M281 363q-61 0 -105.5 -44.5t-44.5 -109.5q0 -62 42 -111.5t108 -49.5q65 0 105 45.5t40 114.5q0 65 -40 110t-105 45z" />
    <glyph glyph-name="seven.tnum" horiz-adv-x="476" 
d="M447 540v-54l-295 -626h-72l291 617h-331v63h407z" />
    <glyph glyph-name="eight.tnum" horiz-adv-x="540" 
d="M270 693q86 0 139.5 -53.5t53.5 -133.5q0 -61 -29 -101t-63 -54q57 -25 85.5 -67t28.5 -102q0 -85 -60.5 -140t-154.5 -55t-155 55t-61 140q0 63 32.5 107t81.5 62q-35 16 -63 56t-28 99q0 80 53 133.5t140 53.5zM270 48q62 0 105 36.5t43 98.5t-43.5 99.5t-104.5 37.5
t-104.5 -37.5t-43.5 -99.5t42.5 -98.5t105.5 -36.5zM270 631q-56 0 -91.5 -34.5t-35.5 -91.5q0 -56 35.5 -89.5t91.5 -33.5t91 33.5t35 89.5q0 57 -35.5 91.5t-90.5 34.5z" />
    <glyph glyph-name="nine.tnum" horiz-adv-x="538" 
d="M250 -153q-81 0 -134 49t-57 132h67q7 -60 38.5 -89.5t87.5 -29.5q80 0 120.5 71t42.5 225q-20 -38 -65.5 -63.5t-97.5 -25.5q-96 0 -152.5 61.5t-56.5 153.5q0 95 58 158.5t154 63.5q48 0 88 -17t71 -51q34 -37 51 -103t17 -162q0 -184 -55.5 -278.5t-176.5 -94.5z
M256 177q61 0 105 43.5t45 106.5v4q0 62 -42 111.5t-108 49.5q-65 0 -105 -45.5t-40 -114.5q0 -65 40 -110t105 -45z" />
    <glyph glyph-name="zero.dnom" horiz-adv-x="364" 
d="M181 399q68 0 105 -54t37 -148q0 -95 -37 -149.5t-105 -54.5q-67 0 -103.5 54.5t-36.5 149.5q0 94 36.5 148t103.5 54zM181 348q-41 0 -62.5 -40t-21.5 -111q0 -72 21.5 -112.5t62.5 -40.5q42 0 64 40.5t22 112.5q0 71 -22 111t-64 40z" />
    <glyph glyph-name="one.dnom" horiz-adv-x="234" 
d="M174 392v-392h-55v301h-88v42q48 0 71 10.5t30 38.5h42z" />
    <glyph glyph-name="two.dnom" horiz-adv-x="320" 
d="M161 399q57 0 88 -29t31 -80q0 -27 -12.5 -55.5t-38.5 -58.5l-107 -124h164v-52h-240v40l135 156q22 25 32.5 48t10.5 43q0 31 -16 46t-48 15q-28 0 -46.5 -18t-18.5 -53h-55q0 56 33.5 89t87.5 33z" />
    <glyph glyph-name="three.dnom" horiz-adv-x="347" 
d="M171 399q55 0 87 -31.5t32 -78.5q0 -35 -17.5 -56.5t-41.5 -29.5q30 -8 51.5 -32.5t21.5 -62.5q0 -52 -36 -83.5t-94 -31.5q-62 0 -97.5 31.5t-35.5 88.5h55q0 -35 21.5 -52.5t57.5 -17.5q33 0 53.5 18.5t20.5 48.5q0 35 -24.5 52t-74.5 17h-15v47h14q43 0 64 15.5
t21 45.5q0 28 -16.5 44.5t-46.5 16.5q-29 0 -47.5 -17t-18.5 -50h-55q0 55 32.5 86.5t88.5 31.5z" />
    <glyph glyph-name="four.dnom" horiz-adv-x="354" 
d="M263 392v-264h58v-49h-58v-79h-55v79h-177v44l168 269h64zM208 316l-13 -24l-104 -164h117v188z" />
    <glyph glyph-name="five.dnom" horiz-adv-x="348" 
d="M290 392v-52h-172v-111q14 8 31.5 11.5t37.5 3.5q56 0 90 -32t34 -88q0 -58 -35.5 -94.5t-95.5 -36.5q-59 0 -94 29.5t-35 85.5h55q0 -32 20 -48t54 -16q37 0 57 21.5t20 56.5q0 34 -20.5 55t-56.5 21q-20 0 -37 -4.5t-31 -13.5h-49v212h227z" />
    <glyph glyph-name="six.dnom" horiz-adv-x="353" 
d="M184 399q51 0 84.5 -29.5t35.5 -79.5h-55q-3 29 -19.5 43.5t-47.5 14.5q-42 0 -63.5 -37t-22.5 -111q12 18 37.5 29.5t54.5 11.5q57 0 91 -34.5t34 -86.5q0 -56 -36 -91.5t-96 -35.5q-30 0 -54.5 10t-43.5 30q-21 22 -32 60.5t-11 92.5q0 107 36 160t108 53zM180 192
q-31 0 -54.5 -20t-24.5 -49v-3q0 -30 22 -53.5t57 -23.5q34 0 55.5 21.5t21.5 54.5q0 31 -21.5 52t-55.5 21z" />
    <glyph glyph-name="seven.dnom" horiz-adv-x="305" 
d="M275 392v-44l-169 -348h-60l165 339h-187v53h251z" />
    <glyph glyph-name="eight.dnom" horiz-adv-x="348" 
d="M295 288q0 -32 -15.5 -54.5t-35.5 -31.5q32 -15 48 -38.5t16 -55.5q0 -50 -38.5 -82.5t-95.5 -32.5t-95.5 32.5t-38.5 82.5q0 35 18.5 59t45.5 35q-19 9 -35 31.5t-16 54.5q0 48 33.5 79.5t87.5 31.5t87.5 -31.5t33.5 -79.5zM174 43q33 0 56 18t23 49t-23.5 50t-55.5 19
t-55 -19t-23 -50t23 -49t55 -18zM126 332q-18 -17 -18 -45t19 -45q18 -17 47 -17t48 17t19 45t-18 45q-19 17 -49 17t-48 -17z" />
    <glyph glyph-name="nine.dnom" horiz-adv-x="353" 
d="M171 399q31 0 56 -9.5t44 -28.5q21 -22 31.5 -60.5t10.5 -94.5q0 -106 -36 -159.5t-109 -53.5q-51 0 -84 29.5t-35 79.5h55q4 -29 20.5 -43.5t45.5 -14.5q43 0 65 37.5t22 111.5q-15 -20 -38 -30t-54 -10q-57 0 -91 33.5t-34 85.5q0 56 36 91.5t95 35.5zM172 198
q32 0 55.5 21t24.5 51v2q0 30 -22.5 53.5t-57.5 23.5q-33 0 -54.5 -22t-21.5 -55q0 -31 21.5 -52.5t54.5 -21.5z" />
    <glyph glyph-name="zero.subs" horiz-adv-x="364" 
d="M181 299q68 0 105 -54t37 -148q0 -95 -37 -149.5t-105 -54.5q-67 0 -103.5 54.5t-36.5 149.5q0 94 36.5 148t103.5 54zM181 248q-41 0 -62.5 -40t-21.5 -111q0 -72 21.5 -112.5t62.5 -40.5q42 0 64 40.5t22 112.5q0 71 -22 111t-64 40z" />
    <glyph glyph-name="one.subs" horiz-adv-x="234" 
d="M174 292v-392h-55v301h-88v42q48 0 71 10.5t30 38.5h42z" />
    <glyph glyph-name="two.subs" horiz-adv-x="320" 
d="M161 299q57 0 88 -29t31 -80q0 -27 -12.5 -55.5t-38.5 -58.5l-107 -124h164v-52h-240v40l135 156q22 25 32.5 48t10.5 43q0 31 -16 46t-48 15q-28 0 -46.5 -18t-18.5 -53h-55q0 56 33.5 89t87.5 33z" />
    <glyph glyph-name="three.subs" horiz-adv-x="347" 
d="M171 299q55 0 87 -31.5t32 -78.5q0 -35 -17.5 -56.5t-41.5 -29.5q30 -8 51.5 -32.5t21.5 -62.5q0 -52 -36 -83.5t-94 -31.5q-62 0 -97.5 31.5t-35.5 88.5h55q0 -35 21.5 -52.5t57.5 -17.5q33 0 53.5 18.5t20.5 48.5q0 35 -24.5 52t-74.5 17h-15v47h14q43 0 64 15.5
t21 45.5q0 28 -16.5 44.5t-46.5 16.5q-29 0 -47.5 -17t-18.5 -50h-55q0 55 32.5 86.5t88.5 31.5z" />
    <glyph glyph-name="four.subs" horiz-adv-x="354" 
d="M263 292v-264h58v-49h-58v-79h-55v79h-177v44l168 269h64zM208 216l-13 -24l-104 -164h117v188z" />
    <glyph glyph-name="five.subs" horiz-adv-x="348" 
d="M290 292v-52h-172v-111q14 8 31.5 11.5t37.5 3.5q56 0 90 -32t34 -88q0 -58 -35.5 -94.5t-95.5 -36.5q-59 0 -94 29.5t-35 85.5h55q0 -32 20 -48t54 -16q37 0 57 21.5t20 56.5q0 34 -20.5 55t-56.5 21q-20 0 -37 -4.5t-31 -13.5h-49v212h227z" />
    <glyph glyph-name="six.subs" horiz-adv-x="353" 
d="M184 299q51 0 84.5 -29.5t35.5 -79.5h-55q-3 29 -19.5 43.5t-47.5 14.5q-42 0 -63.5 -37t-22.5 -111q12 18 37.5 29.5t54.5 11.5q57 0 91 -34.5t34 -86.5q0 -56 -36 -91.5t-96 -35.5q-30 0 -54.5 10t-43.5 30q-21 22 -32 60.5t-11 92.5q0 107 36 160t108 53zM180 92
q-31 0 -54.5 -20t-24.5 -49v-3q0 -30 22 -53.5t57 -23.5q34 0 55.5 21.5t21.5 54.5q0 31 -21.5 52t-55.5 21z" />
    <glyph glyph-name="seven.subs" horiz-adv-x="305" 
d="M275 292v-44l-169 -348h-60l165 339h-187v53h251z" />
    <glyph glyph-name="eight.subs" horiz-adv-x="348" 
d="M295 188q0 -32 -15.5 -54.5t-35.5 -31.5q32 -15 48 -38.5t16 -55.5q0 -50 -38.5 -82.5t-95.5 -32.5t-95.5 32.5t-38.5 82.5q0 35 18.5 59t45.5 35q-19 9 -35 31.5t-16 54.5q0 48 33.5 79.5t87.5 31.5t87.5 -31.5t33.5 -79.5zM174 -57q33 0 56 18t23 49t-23.5 50t-55.5 19
t-55 -19t-23 -50t23 -49t55 -18zM126 232q-18 -17 -18 -45t19 -45q18 -17 47 -17t48 17t19 45t-18 45q-19 17 -49 17t-48 -17z" />
    <glyph glyph-name="nine.subs" horiz-adv-x="353" 
d="M171 299q31 0 56 -9.5t44 -28.5q21 -22 31.5 -60.5t10.5 -94.5q0 -106 -36 -159.5t-109 -53.5q-51 0 -84 29.5t-35 79.5h55q4 -29 20.5 -43.5t45.5 -14.5q43 0 65 37.5t22 111.5q-15 -20 -38 -30t-54 -10q-57 0 -91 33.5t-34 85.5q0 56 36 91.5t95 35.5zM172 98
q32 0 55.5 21t24.5 51v2q0 30 -22.5 53.5t-57.5 23.5q-33 0 -54.5 -22t-21.5 -55q0 -31 21.5 -52.5t54.5 -21.5z" />
    <glyph glyph-name="zero.numr" horiz-adv-x="364" 
d="M181 707q68 0 105 -54t37 -148q0 -95 -37 -149.5t-105 -54.5q-67 0 -103.5 54.5t-36.5 149.5q0 94 36.5 148t103.5 54zM181 656q-41 0 -62.5 -40t-21.5 -111q0 -72 21.5 -112.5t62.5 -40.5q42 0 64 40.5t22 112.5q0 71 -22 111t-64 40z" />
    <glyph glyph-name="one.numr" horiz-adv-x="234" 
d="M174 700v-392h-55v301h-88v42q48 0 71 10.5t30 38.5h42z" />
    <glyph glyph-name="two.numr" horiz-adv-x="320" 
d="M161 707q57 0 88 -29t31 -80q0 -27 -12.5 -55.5t-38.5 -58.5l-107 -124h164v-52h-240v40l135 156q22 25 32.5 48t10.5 43q0 31 -16 46t-48 15q-28 0 -46.5 -18t-18.5 -53h-55q0 56 33.5 89t87.5 33z" />
    <glyph glyph-name="three.numr" horiz-adv-x="347" 
d="M171 707q55 0 87 -31.5t32 -78.5q0 -35 -17.5 -56.5t-41.5 -29.5q30 -8 51.5 -32.5t21.5 -62.5q0 -52 -36 -83.5t-94 -31.5q-62 0 -97.5 31.5t-35.5 88.5h55q0 -35 21.5 -52.5t57.5 -17.5q33 0 53.5 18.5t20.5 48.5q0 35 -24.5 52t-74.5 17h-15v47h14q43 0 64 15.5
t21 45.5q0 28 -16.5 44.5t-46.5 16.5q-29 0 -47.5 -17t-18.5 -50h-55q0 55 32.5 86.5t88.5 31.5z" />
    <glyph glyph-name="four.numr" horiz-adv-x="354" 
d="M263 700v-264h58v-49h-58v-79h-55v79h-177v44l168 269h64zM208 624l-13 -24l-104 -164h117v188z" />
    <glyph glyph-name="five.numr" horiz-adv-x="348" 
d="M290 700v-52h-172v-111q14 8 31.5 11.5t37.5 3.5q56 0 90 -32t34 -88q0 -58 -35.5 -94.5t-95.5 -36.5q-59 0 -94 29.5t-35 85.5h55q0 -32 20 -48t54 -16q37 0 57 21.5t20 56.5q0 34 -20.5 55t-56.5 21q-20 0 -37 -4.5t-31 -13.5h-49v212h227z" />
    <glyph glyph-name="six.numr" horiz-adv-x="353" 
d="M184 707q51 0 84.5 -29.5t35.5 -79.5h-55q-3 29 -19.5 43.5t-47.5 14.5q-42 0 -63.5 -37t-22.5 -111q12 18 37.5 29.5t54.5 11.5q57 0 91 -34.5t34 -86.5q0 -56 -36 -91.5t-96 -35.5q-30 0 -54.5 10t-43.5 30q-21 22 -32 60.5t-11 92.5q0 107 36 160t108 53zM180 500
q-31 0 -54.5 -20t-24.5 -49v-3q0 -30 22 -53.5t57 -23.5q34 0 55.5 21.5t21.5 54.5q0 31 -21.5 52t-55.5 21z" />
    <glyph glyph-name="seven.numr" horiz-adv-x="305" 
d="M275 700v-44l-169 -348h-60l165 339h-187v53h251z" />
    <glyph glyph-name="eight.numr" horiz-adv-x="348" 
d="M295 596q0 -32 -15.5 -54.5t-35.5 -31.5q32 -15 48 -38.5t16 -55.5q0 -50 -38.5 -82.5t-95.5 -32.5t-95.5 32.5t-38.5 82.5q0 35 18.5 59t45.5 35q-19 9 -35 31.5t-16 54.5q0 48 33.5 79.5t87.5 31.5t87.5 -31.5t33.5 -79.5zM174 351q33 0 56 18t23 49t-23.5 50t-55.5 19
t-55 -19t-23 -50t23 -49t55 -18zM126 640q-18 -17 -18 -45t19 -45q18 -17 47 -17t48 17t19 45t-18 45q-19 17 -49 17t-48 -17z" />
    <glyph glyph-name="nine.numr" horiz-adv-x="353" 
d="M171 707q31 0 56 -9.5t44 -28.5q21 -22 31.5 -60.5t10.5 -94.5q0 -106 -36 -159.5t-109 -53.5q-51 0 -84 29.5t-35 79.5h55q4 -29 20.5 -43.5t45.5 -14.5q43 0 65 37.5t22 111.5q-15 -20 -38 -30t-54 -10q-57 0 -91 33.5t-34 85.5q0 56 36 91.5t95 35.5zM172 506
q32 0 55.5 21t24.5 51v2q0 30 -22.5 53.5t-57.5 23.5q-33 0 -54.5 -22t-21.5 -55q0 -31 21.5 -52.5t54.5 -21.5z" />
    <glyph glyph-name="zero.lnum" horiz-adv-x="575" 
d="M59 351q0 166 60 264t169 98t168.5 -97.5t59.5 -264.5t-59.5 -265.5t-168.5 -98.5t-169 98.5t-60 265.5zM126 351q0 -140 42 -221t120 -81t119.5 81t41.5 221q0 139 -41.5 219.5t-119.5 80.5t-120 -80.5t-42 -219.5z" />
    <glyph glyph-name="one.lnum" horiz-adv-x="575" 
d="M354 700v-641h138v-59h-342v59h138v505h-147v56q82 0 115 16t45 64h53z" />
    <glyph glyph-name="two.lnum" horiz-adv-x="575" 
d="M294 713q91 0 139 -50.5t48 -138.5q0 -49 -20.5 -100.5t-62.5 -105.5l-197 -256h298v-62h-388v49l231 299q40 52 56 90t16 84q0 65 -30 97t-91 32q-55 0 -90 -37.5t-35 -109.5h-66q-1 96 52 152.5t140 56.5z" />
    <glyph glyph-name="three.lnum" horiz-adv-x="575" 
d="M480 520q0 -64 -30 -104t-73 -54q52 -13 89.5 -60t37.5 -117q0 -86 -58 -142t-150 -56q-99 0 -157 55t-58 152h66q0 -73 41.5 -109t108.5 -36q63 0 101.5 37t38.5 100q0 71 -49 108.5t-140 37.5h-14v60h13q86 0 126 30.5t40 96.5q0 61 -31 96.5t-90 35.5q-56 0 -92 -36
t-36 -107h-65q0 94 52 149.5t140 55.5t138.5 -54.5t50.5 -138.5z" />
    <glyph glyph-name="four.lnum" horiz-adv-x="575" 
d="M415 700v-486h103v-61h-103v-153h-66v153h-293v54l288 493h71zM349 592l-24 -45l-195 -333h219v378z" />
    <glyph glyph-name="five.lnum" horiz-adv-x="575" 
d="M473 700v-62h-294v-238q24 15 55 22.5t69 7.5q95 0 151.5 -59.5t56.5 -155.5q0 -98 -57.5 -163t-155.5 -65q-94 0 -150 50.5t-56 146.5h66q1 -68 38.5 -101.5t101.5 -33.5q68 0 106.5 45t38.5 119q0 70 -38.5 112.5t-107.5 42.5q-35 0 -67 -8.5t-60 -26.5h-58v367h361z
" />
    <glyph glyph-name="six.lnum" horiz-adv-x="575" 
d="M305 713q80 0 133 -49.5t57 -133.5h-66q-6 61 -37.5 91t-88.5 30q-81 0 -121.5 -75t-41.5 -238q20 36 65 61t96 25q97 0 153.5 -61t56.5 -154q0 -95 -57.5 -158.5t-153.5 -63.5q-48 0 -88 17t-71 51q-34 38 -51 106.5t-17 168.5q0 189 55.5 286t176.5 97zM299 363
q-61 0 -105 -43.5t-45 -106.5v-4q0 -62 42 -111.5t108 -49.5q64 0 104.5 45.5t40.5 114.5q0 65 -40.5 110t-104.5 45z" />
    <glyph glyph-name="seven.lnum" horiz-adv-x="575" 
d="M497 700v-54l-295 -646h-72l291 637h-335v63h411z" />
    <glyph glyph-name="eight.lnum" horiz-adv-x="575" 
d="M480 521q0 -63 -28.5 -104.5t-63.5 -55.5q45 -19 80.5 -61.5t35.5 -111.5q0 -87 -62 -144t-155 -57t-155 57t-62 144q0 65 33.5 111t81.5 62q-35 15 -63 56.5t-28 103.5q0 82 53 137t140 55t140 -55t53 -137zM287 48q61 0 105 38.5t44 102.5t-44 103t-105 39t-105.5 -39
t-44.5 -103t44 -102.5t106 -38.5zM287 652q-56 0 -91.5 -36.5t-35.5 -95.5q0 -58 35.5 -93t91.5 -35t91.5 35t35.5 93q0 59 -36 95.5t-91 36.5z" />
    <glyph glyph-name="nine.lnum" horiz-adv-x="575" 
d="M270 -13q-80 0 -133 49.5t-57 133.5h66q7 -60 38.5 -90.5t87.5 -30.5q81 0 121.5 74.5t41.5 237.5q-21 -36 -65.5 -60.5t-95.5 -24.5q-97 0 -153.5 61t-56.5 154q0 95 57.5 158.5t153.5 63.5q49 0 88.5 -17t70.5 -51q34 -37 51 -106t17 -169q0 -189 -55.5 -286
t-176.5 -97zM276 337q60 0 104 43t46 106v5q0 62 -42 111.5t-108 49.5q-64 0 -104.5 -45.5t-40.5 -114.5q0 -65 40.5 -110t104.5 -45z" />
    <glyph glyph-name="b.sups" horiz-adv-x="446" 
d="M121 855v-208q15 25 46.5 43t74.5 18q74 0 119.5 -50.5t45.5 -128.5q0 -77 -45 -127t-120 -50q-41 0 -71.5 16t-51.5 47l-3 -56h-48v496h53zM234 658q-47 0 -79.5 -32t-33.5 -88v-19q0 -55 33.5 -86.5t80.5 -31.5q53 0 84.5 36t31.5 92q0 57 -32.5 93t-84.5 36z" />
    <glyph glyph-name="c.sups" horiz-adv-x="407" 
d="M209 708q59 0 100.5 -28.5t54.5 -82.5h-53q-11 30 -38 46t-63 16q-50 0 -83 -37t-33 -93q0 -55 33 -91.5t83 -36.5q35 0 62.5 17t37.5 45h55q-14 -53 -56 -82t-100 -29q-73 0 -121.5 50t-48.5 127t48.5 128t121.5 51z" />
    <glyph glyph-name="d.sups" horiz-adv-x="446" 
d="M378 855v-496h-49l-2 56q-21 -31 -52 -47t-72 -16q-74 0 -119 50t-45 127q0 78 45.5 128.5t119.5 50.5q41 0 71.5 -15t49.5 -46v208h53zM211 658q-52 0 -84.5 -36.5t-32.5 -92.5t31.5 -92t84.5 -36q48 0 81.5 31.5t33.5 86.5v19q-1 56 -34 88t-80 32z" />
    <glyph glyph-name="e.sups" horiz-adv-x="414" 
d="M205 708q73 0 118 -45t45 -127v-25h-274q1 -50 33.5 -80t81.5 -30q39 0 64 14.5t35 43.5h55q-15 -51 -55.5 -79t-100.5 -28q-74 0 -121 48.5t-47 128.5q0 78 46 128.5t120 50.5zM204 659q-46 0 -76 -29t-34 -75h218q0 49 -29 76.5t-79 27.5z" />
    <glyph glyph-name="f.sups" horiz-adv-x="256" 
d="M189 860q16 0 28 -2t20 -6v-48q-9 4 -20 6t-24 2q-25 0 -38 -14t-13 -42v-55h90v-48h-90v-294h-54v294h-64v48h64v56q0 49 26.5 76t74.5 27z" />
    <glyph glyph-name="g.sups" horiz-adv-x="392" 
d="M370 701v-48h-59q10 -14 15 -30.5t5 -35.5q0 -52 -38 -86.5t-99 -34.5q-22 0 -42.5 5.5t-38.5 15.5q-8 -7 -12 -16.5t-4 -21.5q0 -19 12 -29t35 -10h99q55 0 84 -25t29 -68q0 -54 -40.5 -83t-108.5 -29q-75 0 -115.5 26.5t-40.5 76.5q0 25 10 42t29 27q-22 11 -33.5 28
t-11.5 41q0 22 9 39.5t26 29.5q-12 16 -18 34t-6 38q0 53 38.5 87t99.5 34q12 0 24 -1.5t25 -5.5h127zM109 587q0 -34 23.5 -56.5t61.5 -22.5t61.5 22.5t23.5 56.5q0 35 -23.5 57t-61.5 22t-61.5 -22t-23.5 -57zM234 368h-76q-22 -2 -38 -17t-16 -40q0 -31 26 -47t78 -16
q48 0 71.5 16.5t23.5 49.5q0 25 -18.5 39.5t-50.5 14.5z" />
    <glyph glyph-name="h.sups" horiz-adv-x="405" 
d="M121 855v-203q11 23 39.5 39.5t63.5 16.5q56 0 87 -35t31 -93v-221h-54v212q0 42 -20.5 64t-55.5 22q-38 0 -64.5 -29t-26.5 -78v-191h-53v496h53z" />
    <glyph glyph-name="i.sups" horiz-adv-x="195" 
d="M124 701v-342h-54v342h54zM125 835q11 -11 11 -27t-11 -27q-12 -11 -28 -11t-27 11t-11 27t11 27t27 11t28 -11z" />
    <glyph glyph-name="j.sups" horiz-adv-x="195" 
d="M124 701v-383q0 -56 -25.5 -84.5t-76.5 -28.5q-10 0 -21 1.5t-22 3.5v50q9 -3 18.5 -4.5t18.5 -1.5q30 0 42 16.5t12 48.5v382h54zM98 846q15 0 26.5 -11t11.5 -27t-11.5 -27t-26.5 -11q-16 0 -27.5 11t-11.5 27t11.5 27t27.5 11z" />
    <glyph glyph-name="k.sups" horiz-adv-x="372" 
d="M127 855v-318l138 164h65l-116 -141l135 -201h-61l-111 159l-50 -59v-100h-53v496h53z" />
    <glyph glyph-name="l.sups" horiz-adv-x="196" 
d="M125 855v-496h-54v496h54z" />
    <glyph glyph-name="m.sups" horiz-adv-x="620" 
d="M442 708q55 0 85 -35t30 -93v-221h-53v212q0 42 -20 64t-54 22q-38 0 -63.5 -27.5t-26.5 -74.5v-196h-54v212q0 42 -20 64t-55 22q-38 0 -64 -29t-26 -78v-191h-53v342h48l3 -53q11 25 39 42.5t65 17.5q40 0 66.5 -17.5t40.5 -52.5q12 31 42 50.5t70 19.5z" />
    <glyph glyph-name="o.sups" horiz-adv-x="433" 
d="M394 529q0 -77 -50 -127t-128 -50t-127.5 50t-49.5 127q0 79 49 129t128 50t128.5 -50t49.5 -129zM217 659q-55 0 -89 -36.5t-34 -92.5t34 -92.5t89 -36.5q54 0 88 37t34 92q0 56 -34 92.5t-88 36.5z" />
    <glyph glyph-name="p.sups" horiz-adv-x="452" 
d="M249 708q74 0 119 -50t45 -128q0 -77 -45.5 -127.5t-119.5 -50.5q-43 0 -74.5 18t-45.5 43v-200h-54v488h49l2 -56q21 32 52 47.5t72 15.5zM242 659q-48 0 -81.5 -31.5t-33.5 -85.5v-19q1 -56 34 -88.5t80 -32.5q52 0 84.5 36t32.5 92q0 57 -31.5 93t-84.5 36z" />
    <glyph glyph-name="q.sups" horiz-adv-x="452" 
d="M203 708q41 0 72 -15.5t52 -47.5l2 56h49v-488h-53v200q-19 -30 -49.5 -45.5t-71.5 -15.5q-74 0 -119.5 50.5t-45.5 127.5q0 78 45 128t119 50zM210 659q-53 0 -84.5 -36t-31.5 -93q0 -56 32.5 -92t84.5 -36q47 0 80 32.5t34 88.5v19q0 54 -33.5 85.5t-81.5 31.5z" />
    <glyph glyph-name="r.sups" horiz-adv-x="264" 
d="M233 704v-52q-23 0 -41 -6.5t-32 -20.5q-16 -15 -24.5 -35.5t-8.5 -47.5v-183h-53v342h48l3 -58q11 26 39 43.5t69 17.5z" />
    <glyph glyph-name="s.sups" horiz-adv-x="343" 
d="M170 708q52 0 84.5 -27t32.5 -75l-55 -1q0 27 -16 40.5t-48 13.5q-30 0 -45.5 -11.5t-15.5 -35.5t15 -34.5t61 -21.5q61 -14 88.5 -37.5t27.5 -63.5q0 -49 -35.5 -76t-90.5 -27q-59 0 -94 29.5t-36 77.5h55q0 -29 19.5 -43.5t57.5 -14.5q33 0 51.5 14.5t18.5 37.5
t-18 35.5t-66 23.5q-55 14 -82 36t-27 62q0 43 31 70.5t87 27.5z" />
    <glyph glyph-name="t.sups" horiz-adv-x="269" 
d="M141 787l-1 -86h93v-50h-93l-1 -191q0 -31 10 -44t40 -13q11 0 22 1.5t22 4.5v-47q-11 -4 -23.5 -6t-27.5 -2q-48 0 -72 24.5t-24 72.5l1 200h-68v50h68l1 86h53z" />
    <glyph glyph-name="u.sups" horiz-adv-x="401" 
d="M333 701v-342h-49l-2 51q-11 -23 -39 -40.5t-65 -17.5q-55 0 -85 35t-30 93v221h53v-213q0 -41 20 -63t55 -22q37 0 62.5 28.5t25.5 76.5v193h54z" />
    <glyph glyph-name="v.sups" horiz-adv-x="377" 
d="M352 701l-137 -342h-53l-136 342h57l98 -251l7 -26l8 26l98 251h58z" />
    <glyph glyph-name="w.sups" horiz-adv-x="563" 
d="M537 701l-112 -342h-54l-90 252l-90 -252h-52l-113 342h56l78 -245l8 -30l8 30l83 245h45l84 -245l7 -30l8 30l77 245h57z" />
    <glyph glyph-name="x.sups" horiz-adv-x="382" 
d="M342 701l-116 -165l125 -177h-63l-97 134l-97 -134h-63l125 177l-116 165h63l88 -123l88 123h63z" />
    <glyph glyph-name="y.sups" horiz-adv-x="378" 
d="M352 701l-195 -488h-57l60 151l-134 337h57l98 -251l7 -26l8 26l98 251h58z" />
    <glyph glyph-name="z.sups" horiz-adv-x="346" 
d="M304 701v-41l-194 -253h206v-48h-277v41l194 253h-192v48h263z" />
    <glyph glyph-name="a.sups" horiz-adv-x="377" 
d="M187 708q61 0 94.5 -31t33.5 -90v-228h-49l-2 48q-18 -27 -45.5 -41t-65.5 -14q-48 0 -76 25t-28 67q0 39 25 63.5t75 33.5l112 22v22q0 38 -18.5 56.5t-55.5 18.5q-34 0 -54.5 -17t-20.5 -50h-54q2 51 36.5 83t92.5 32zM261 520l-101 -21q-28 -5 -42.5 -18t-14.5 -34
q0 -22 15.5 -35.5t42.5 -13.5q25 0 44.5 9t33.5 26q11 14 16.5 28.5t5.5 30.5v28z" />
    <glyph glyph-name="g.alt.sups" horiz-adv-x="450" 
d="M209 658q-52 0 -83.5 -35t-31.5 -91t32 -91t83 -35q47 0 80.5 32t33.5 86v19q0 54 -33.5 84.5t-80.5 30.5zM202 708q41 0 71.5 -15.5t51.5 -47.5l2 56h49v-337q0 -72 -44.5 -115.5t-120.5 -43.5q-62 0 -104.5 28.5t-55.5 88.5h54q9 -34 35.5 -51t70.5 -17q53 0 82.5 28.5
t29.5 80.5v53q-19 -30 -49.5 -45.5t-71.5 -15.5q-73 0 -118 50t-45 127q0 78 44.5 127t118.5 49z" />
    <glyph glyph-name="a.alt.sups" horiz-adv-x="446" 
d="M204 708q42 0 72.5 -15.5t50.5 -47.5l2 56h49v-342h-49l-2 56q-20 -31 -51 -47t-73 -16q-74 0 -119 50.5t-45 127.5t45.5 127.5t119.5 50.5zM211 659q-52 0 -84.5 -36.5t-32.5 -92.5t32 -92.5t84 -36.5q48 0 81.5 31.5t33.5 86.5v19q0 56 -33.5 88.5t-80.5 32.5z" />
    <glyph glyph-name="g_i.alt" horiz-adv-x="578" 
d="M290 741q115 0 186.5 -75t71.5 -190q0 -114 -71.5 -189.5t-186.5 -75.5q-116 0 -188 75.5t-72 189.5q0 115 72 190t188 75zM290 693q-94 0 -151.5 -61.5t-57.5 -155.5t57.5 -155.5t151.5 -61.5q93 0 150 61.5t57 155.5t-57 155.5t-150 61.5z" />
    <glyph glyph-name="zero.slash" horiz-adv-x="549" 
d="M503 351q0 -167 -60 -265.5t-168 -98.5q-109 0 -168.5 98.5t-59.5 265.5t59.5 264.5t168.5 97.5t168.5 -98t59.5 -264zM435 351q0 58 -7 105.5t-22 85.5l-234 -439q20 -27 46 -40.5t57 -13.5q78 0 119 81t41 221zM275 651q-79 0 -120 -80t-41 -220q0 -59 7 -107.5
t21 -85.5l235 439q-19 27 -44.5 40.5t-57.5 13.5z" />
    <glyph glyph-name="L_a_r_s_s_e_i_t" horiz-adv-x="2948" 
d="M2105 513q103 0 165.5 -65.5t62.5 -185.5v-35h-399q4 -82 52.5 -130.5t121.5 -48.5q59 0 97.5 23.5t56.5 70.5h65q-23 -73 -79.5 -113t-140.5 -40q-104 0 -170.5 72t-66.5 189q0 115 64.5 189t170.5 74zM1561 732v-61q-59 0 -89 -31t-30 -101v-37h332v-51l-167 -242
q101 -7 158 -68t57 -143q0 -101 -60 -159.5t-174 -58.5q-20 0 -40.5 2t-41.5 6l6 64q22 -6 40 -8.5t32 -2.5q83 0 128 39.5t45 117.5q0 71 -50 112t-132 41h-47v41l171 251h-257v-443h-65v539q0 97 46 145t138 48zM731 513q83 0 127.5 -46.5t44.5 -131.5v-335h-60l-2 73
q-20 -36 -62 -60t-97 -24q-65 0 -103.5 37t-38.5 97q0 58 34 93.5t102 49.5l163 34v33q0 61 -27 91t-81 30q-50 0 -82 -27.5t-32 -80.5h-63q1 72 49.5 119.5t127.5 47.5zM147 700v-638h323v-62h-389v700h66zM2783 630l-1 -128h136v-59h-137l-2 -305q0 -46 15.5 -66.5
t59.5 -20.5q16 0 32 2.5t32 7.5v-57q-13 -6 -30.5 -8.5t-40.5 -2.5q-66 0 -98.5 32.5t-31.5 104.5l2 313h-100v59h100l1 128h63zM2105 454q-72 0 -118.5 -47.5t-52.5 -122.5h335q0 79 -44.5 124.5t-119.5 45.5zM1269 507v-62q-31 0 -56.5 -10t-45.5 -31q-24 -23 -36 -56
t-12 -76v-272h-63v502h59l2 -91q15 40 53.5 68t98.5 28zM839 243l-151 -33q-41 -10 -62.5 -29t-21.5 -57q0 -36 22.5 -56t63.5 -20q36 0 65 13.5t51 40.5q17 22 25 46.5t8 52.5v42zM2529 502v-502h-63v502h63zM2498 710q20 0 34.5 -14.5t14.5 -34.5t-14.5 -34t-34.5 -14
q-21 0 -35 14t-14 34t14 34.5t35 14.5z" />
    <glyph glyph-name="A.smcp" horiz-adv-x="557" 
d="M311 539l227 -539h-71l-63 148h-251l-62 -148h-71l226 539h65zM278 455l-10 -30l-94 -219h209l-94 219z" />
    <glyph glyph-name="B.smcp" horiz-adv-x="475" 
d="M228 539q81 0 127.5 -39t46.5 -106q0 -35 -15.5 -63t-46.5 -48q46 -15 71.5 -49.5t25.5 -79.5q0 -70 -49 -112t-134 -42h-176v539h150zM254 247h-111v-187h111q55 0 86 25.5t31 69.5q0 42 -31 67t-86 25zM228 479h-85v-175h90q47 0 75.5 24t28.5 63q0 41 -29.5 64.5
t-79.5 23.5z" />
    <glyph glyph-name="C.smcp" horiz-adv-x="590" 
d="M317 549q94 0 155 -44.5t85 -123.5h-72q-19 54 -61 81t-107 27q-91 0 -147.5 -62t-56.5 -157t56.5 -157.5t147.5 -62.5q66 0 108.5 27.5t62.5 82.5h70q-24 -85 -84.5 -127.5t-156.5 -42.5q-120 0 -195 79.5t-75 200.5t75 200t195 79z" />
    <glyph glyph-name="D.smcp" horiz-adv-x="607" 
d="M277 539q130 0 206.5 -73.5t76.5 -195.5q0 -123 -76.5 -196.5t-206.5 -73.5h-199v539h199zM277 478h-134v-417h134q101 0 159.5 55.5t58.5 153.5q0 97 -58.5 152.5t-159.5 55.5z" />
    <glyph glyph-name="E.smcp" horiz-adv-x="434" 
d="M383 539v-61h-240v-170h212v-61h-212v-186h240v-61h-305v539h305z" />
    <glyph glyph-name="F.smcp" horiz-adv-x="410" 
d="M376 539v-61h-233v-178h197v-60h-197v-240h-65v539h298z" />
    <glyph glyph-name="G.smcp" horiz-adv-x="617" 
d="M320 549q95 0 157 -44.5t86 -123.5h-72q-20 54 -63 81t-109 27q-91 0 -148.5 -62t-57.5 -157t58 -157.5t150 -62.5q83 0 132 41t50 122h-172v61h240v-35q0 -117 -66 -183t-184 -66q-121 0 -197.5 79.5t-76.5 200.5q0 120 76.5 199.5t196.5 79.5z" />
    <glyph glyph-name="H.smcp" horiz-adv-x="594" 
d="M516 539v-539h-65v248h-308v-248h-65v539h65v-230h308v230h65z" />
    <glyph glyph-name="I.smcp" horiz-adv-x="220" 
d="M143 539v-539h-65v539h65z" />
    <glyph glyph-name="J.smcp" horiz-adv-x="415" 
d="M345 539v-385q0 -78 -41 -120t-112 -42q-78 0 -119 42.5t-45 126.5h64q3 -54 28 -81t71 -27q43 0 66 26.5t23 76.5v383h65z" />
    <glyph glyph-name="K.smcp" horiz-adv-x="562" 
d="M477 539l-189 -238l244 -301h-81l-206 250l-98 -116v-134h-65v539h65v-310l251 310h79z" />
    <glyph glyph-name="L.smcp" horiz-adv-x="418" 
d="M142 539v-478h253v-61h-318v539h65z" />
    <glyph glyph-name="M.smcp" horiz-adv-x="727" 
d="M649 539v-539h-65v411l-15 -40l-180 -371h-51l-180 371l-15 40v-411h-65v539h70l199 -403l16 -36l15 36l201 403h70z" />
    <glyph glyph-name="N.smcp" horiz-adv-x="594" 
d="M516 539v-539h-62l-289 396l-22 33v-429h-65v539h63l288 -394l22 -35v429h65z" />
    <glyph glyph-name="O.smcp" horiz-adv-x="650" 
d="M326 549q122 0 199.5 -79.5t77.5 -199.5t-77.5 -200t-199.5 -80q-124 0 -201.5 79.5t-77.5 200.5t77.5 200t201.5 79zM326 489q-95 0 -154 -62t-59 -157t59 -157.5t154 -62.5q93 0 151.5 62.5t58.5 157.5t-58.5 157t-151.5 62z" />
    <glyph glyph-name="P.smcp" horiz-adv-x="454" 
d="M240 539q82 0 131 -45.5t49 -118.5q0 -72 -49 -117t-131 -45h-97v-213h-65v539h162zM240 478h-97v-204h97q52 0 83.5 27t31.5 74q0 48 -31.5 75.5t-83.5 27.5z" />
    <glyph glyph-name="Q.smcp" horiz-adv-x="650" 
d="M326 549q122 0 199.5 -79.5t77.5 -199.5q0 -74 -30.5 -134.5t-85.5 -97.5l116 -112h-89l-85 82q-26 -9 -51.5 -13.5t-51.5 -4.5q-124 0 -201.5 79.5t-77.5 200.5t77.5 200t201.5 79zM326 489q-95 0 -154 -62t-59 -157t59 -157.5t154 -62.5q14 0 27.5 1.5t25.5 4.5l-97 96
h89l71 -70q44 29 69 78t25 110q0 95 -58.5 157t-151.5 62z" />
    <glyph glyph-name="R.smcp" horiz-adv-x="450" 
d="M226 539q83 0 132 -44t49 -118q0 -52 -28.5 -90t-78.5 -55l131 -232h-74l-124 221h-90v-221h-65v539h148zM226 478h-83v-198h83q53 0 84.5 25.5t31.5 71.5q0 47 -31.5 74t-84.5 27z" />
    <glyph glyph-name="S.smcp" horiz-adv-x="437" 
d="M219 549q73 0 116 -39t44 -112h-65q-1 44 -27 68.5t-70 24.5q-43 0 -67 -22.5t-24 -63.5q0 -39 24.5 -58.5t89.5 -43.5q86 -32 122 -66t36 -92q0 -72 -47.5 -113.5t-123.5 -41.5q-86 0 -134 46t-49 122h65q1 -54 32 -82.5t87 -28.5q50 0 77 26t27 68q0 35 -27.5 57.5
t-93.5 45.5q-78 28 -114 61.5t-36 95.5q0 64 41.5 106t116.5 42z" />
    <glyph glyph-name="T.smcp" horiz-adv-x="488" 
d="M478 539v-61h-202v-478h-64v478h-203v61h469z" />
    <glyph glyph-name="U.smcp" horiz-adv-x="577" 
d="M507 539v-327q0 -108 -57.5 -165t-160.5 -57q-104 0 -161 57t-57 165v327h65v-327q0 -162 153 -162t153 162v327h65z" />
    <glyph glyph-name="V.smcp" horiz-adv-x="551" 
d="M532 539l-228 -539h-58l-227 539h69l176 -416l11 -33l11 33l176 416h70z" />
    <glyph glyph-name="W.smcp" horiz-adv-x="798" 
d="M777 539l-180 -539h-62l-127 384l-9 36l-9 -36l-127 -384h-61l-181 539h68l136 -399l9 -39l9 39l130 399h53l130 -399l8 -39l11 39l134 399h68z" />
    <glyph glyph-name="X.smcp" horiz-adv-x="558" 
d="M518 539l-196 -264l205 -275h-77l-172 226l-170 -226h-77l205 275l-196 264h78l160 -214l162 214h78z" />
    <glyph glyph-name="Y.smcp" horiz-adv-x="546" 
d="M528 539l-223 -334v-205h-65v205l-223 334h75l159 -236l22 -36l22 36l158 236h75z" />
    <glyph glyph-name="Z.smcp" horiz-adv-x="482" 
d="M439 539v-52l-320 -426h329v-61h-413v52l321 426h-318v61h401z" />
    <glyph glyph-name="Aringacute.smcp" horiz-adv-x="557" 
d="M311 539l227 -539h-71l-63 148h-251l-62 -148h-71l226 539h65zM414 860l-101 -83q30 -11 47.5 -36t17.5 -59q0 -42 -28.5 -70t-73.5 -28t-73.5 28t-28.5 70q0 30 12 51.5t35 35.5l95 91h98zM278 455l-10 -30l-94 -219h209l-94 219zM221 683q0 -22 16 -38.5t39 -16.5
q24 0 39.5 16.5t15.5 38.5q0 24 -15.5 39.5t-39.5 15.5t-39.5 -16t-15.5 -39z" />
    <glyph glyph-name="Aogonek.smcp" horiz-adv-x="557" 
d="M311 539l227 -539h-18q-30 -15 -45 -36t-15 -48q0 -29 15.5 -45t42.5 -16q13 0 23.5 2t19.5 7l14 -45q-10 -6 -25 -9t-34 -3q-46 0 -76 29t-30 79q0 30 13 54t39 43l-58 136h-251l-62 -148h-71l226 539h65zM278 455l-10 -30l-94 -219h209l-94 219z" />
    <glyph glyph-name="AE.smcp" horiz-adv-x="756" 
d="M706 539v-61h-241v-170h213v-61h-213v-186h241v-61h-305v148h-206l-106 -148h-75l370 539h322zM401 454l-17 -29l-152 -219h169v248z" />
    <glyph glyph-name="AEacute.smcp" horiz-adv-x="765" 
d="M711 539v-61h-241v-170h213v-61h-213v-186h241v-61h-305v148h-206l-106 -148h-75l370 539h322zM406 454l-17 -29l-152 -219h169v248zM652 762l-137 -158h-66l122 158h81z" />
    <glyph glyph-name="Ccedilla.smcp" horiz-adv-x="590" 
d="M317 549q94 0 155 -44.5t85 -123.5h-72q-19 54 -61 81t-107 27q-91 0 -147.5 -62t-56.5 -157t56.5 -157.5t147.5 -62.5q66 0 108.5 27.5t62.5 82.5h70q-23 -82 -80.5 -124.5t-148.5 -45.5l-11 -43h11q38 0 61.5 -22t23.5 -59q0 -40 -28 -63t-71 -23q-30 0 -53.5 9.5
t-39.5 28.5l29 36q12 -15 28 -22t36 -7q23 0 37.5 11t14.5 29q0 19 -12.5 29.5t-32.5 10.5q-7 0 -16 -1.5t-20 -3.5l-22 7l21 85q-107 10 -172.5 87.5t-65.5 190.5q0 121 75 200t195 79z" />
    <glyph glyph-name="Dcaron.smcp" horiz-adv-x="610" 
d="M439 698l-133 -126h-47l-134 126h82l75 -74l75 74h82zM277 539q130 0 206.5 -73.5t76.5 -195.5q0 -123 -76.5 -196.5t-206.5 -73.5h-199v539h199zM277 478h-134v-417h134q101 0 159.5 55.5t58.5 153.5q0 97 -58.5 152.5t-159.5 55.5z" />
    <glyph glyph-name="Dcroat.smcp" horiz-adv-x="618" 
d="M288 539q130 0 206.5 -73.5t76.5 -195.5q0 -123 -76.5 -196.5t-206.5 -73.5h-199v244h-71v50h71v245h199zM288 478h-134v-184h110v-50h-110v-183h134q101 0 159.5 55.5t58.5 153.5q0 97 -58.5 152.5t-159.5 55.5z" />
    <glyph glyph-name="Eogonek.smcp" horiz-adv-x="434" 
d="M383 539v-61h-240v-170h212v-61h-212v-186h240v-61h-31q-30 -15 -45 -36t-15 -48q0 -29 15.5 -45t42.5 -16q13 0 23.5 2t19.5 7l14 -45q-10 -6 -25 -9t-34 -3q-46 0 -76 29t-30 79q0 25 9.5 46.5t27.5 38.5h-201v539h305z" />
    <glyph glyph-name="Gcommaaccent.smcp" horiz-adv-x="612" 
d="M320 549q95 0 157 -44.5t86 -123.5h-72q-20 54 -63 81t-109 27q-91 0 -148.5 -62t-57.5 -157t58 -157.5t150 -62.5q83 0 132 41t50 122h-172v61h240v-35q0 -117 -66 -183t-184 -66q-121 0 -197.5 79.5t-76.5 200.5q0 120 76.5 199.5t196.5 79.5zM366 -101
q0 -40 -19 -82.5t-49 -73.5l-21 11q15 22 23.5 47t11.5 52q-21 2 -34.5 15.5t-13.5 34.5q0 22 14.5 36.5t36.5 14.5t36.5 -15.5t14.5 -39.5z" />
    <glyph glyph-name="Hbar.smcp" horiz-adv-x="598" 
d="M517 539v-87h64v-47h-64v-405h-65v248h-308v-248h-65v405h-63v47h63v87h65v-87h308v87h65zM144 309h308v96h-308v-96z" />
    <glyph glyph-name="Kcommaaccent.smcp" horiz-adv-x="562" 
d="M477 539l-189 -238l244 -301h-81l-206 250l-98 -116v-134h-65v539h65v-310l251 310h79zM331 -92q0 -40 -19 -82.5t-49 -73.5l-21 11q15 22 23.5 47t11.5 52q-21 2 -34.5 15.5t-13.5 34.5q0 22 14.5 36.5t36.5 14.5t36.5 -15.5t14.5 -39.5z" />
    <glyph glyph-name="Lcaron.smcp" horiz-adv-x="427" 
d="M362 574q22 0 37 -15.5t15 -39.5q0 -44 -17 -86t-51 -82l-23 10q15 25 24 53t13 59q-21 2 -34.5 15.5t-13.5 34.5t14.5 36t35.5 15zM142 539v-478h253v-61h-318v539h65z" />
    <glyph glyph-name="Lcommaaccent.smcp" horiz-adv-x="427" 
d="M142 539v-478h253v-61h-318v539h65zM287 -90q0 -40 -19 -82.5t-49 -73.5l-21 11q15 22 23.5 47t11.5 52q-21 2 -34.5 15.5t-13.5 34.5q0 22 14.5 36.5t36.5 14.5t36.5 -15.5t14.5 -39.5z" />
    <glyph glyph-name="Lslash.smcp" horiz-adv-x="427" 
d="M149 539v-254l72 31l19 -45l-91 -39v-171h253v-61h-318v204l-61 -26l-18 45l79 34v282h65z" />
    <glyph glyph-name="Ldot.smcp" horiz-adv-x="419" 
d="M142 539v-478h253v-61h-318v539h65zM326 298q22 0 37.5 -15t15.5 -38t-15 -38.5t-38 -15.5t-38.5 15.5t-15.5 38.5t15.5 38t38.5 15z" />
    <glyph glyph-name="Oslash.smcp" horiz-adv-x="659" 
d="M330 549q31 0 60 -6t57 -18l37 64l46 -25l-37 -64q54 -38 84 -97.5t30 -132.5q0 -120 -77.5 -200t-199.5 -80q-32 0 -62 6t-57 17l-37 -65l-46 25l38 65q-54 38 -84.5 98.5t-30.5 133.5q0 121 77.5 200t201.5 79zM330 489q-95 0 -154 -62t-59 -157q0 -58 20 -102t60 -75
l219 379q-19 9 -40.5 13t-45.5 4zM540 270q0 57 -19.5 100.5t-59.5 74.5l-219 -379q19 -8 41 -12t47 -4q93 0 151.5 62.5t58.5 157.5z" />
    <glyph glyph-name="OE.smcp" horiz-adv-x="895" 
d="M842 539v-61h-240v-170h212v-61h-212v-186h240v-61h-305v91q-38 -50 -91.5 -75.5t-121.5 -25.5q-122 0 -199.5 79.5t-77.5 200.5t77 200t200 79q68 0 121 -25t92 -76v91h305zM326 489q-95 0 -154 -62t-59 -157t59 -157.5t154 -62.5q92 0 150 59.5t61 150.5v19
q-3 92 -61 151t-150 59z" />
    <glyph glyph-name="Scedilla.smcp" horiz-adv-x="447" 
d="M223 549q73 0 116 -39t44 -112h-65q-1 44 -27 68.5t-70 24.5q-43 0 -67 -22.5t-24 -63.5q0 -39 24.5 -58.5t89.5 -43.5q86 -32 122 -66t36 -92q0 -70 -44.5 -111t-117.5 -44l-11 -43h11q38 0 61.5 -22t23.5 -59q0 -40 -28 -63t-71 -23q-30 0 -53.5 9.5t-39.5 28.5l29 36
q12 -15 28 -22t36 -7q23 0 37.5 11t14.5 29q0 19 -12.5 29.5t-32.5 10.5q-6 0 -15 -1.5l-21 -3.5l-22 7l22 85q-70 9 -109 53.5t-40 112.5h65q1 -54 32 -82.5t87 -28.5q50 0 77 26t27 68q0 35 -27.5 57.5t-93.5 45.5q-78 28 -114 61.5t-36 95.5q0 64 41.5 106t116.5 42z" />
    <glyph glyph-name="Scommaaccent.smcp" horiz-adv-x="446" 
d="M223 549q73 0 116 -39t44 -112h-65q-1 44 -27 68.5t-70 24.5q-43 0 -67 -22.5t-24 -63.5q0 -39 24.5 -58.5t89.5 -43.5q86 -32 122 -66t36 -92q0 -72 -47.5 -113.5t-123.5 -41.5q-86 0 -134 46t-49 122h65q1 -54 32 -82.5t87 -28.5q50 0 77 26t27 68q0 35 -27.5 57.5
t-93.5 45.5q-78 28 -114 61.5t-36 95.5q0 64 41.5 106t116.5 42zM275 -95q0 -40 -19 -82.5t-49 -73.5l-21 11q15 22 23.5 47t11.5 52q-21 2 -34.5 15.5t-13.5 34.5q0 22 14.5 36.5t36.5 14.5t36.5 -15.5t14.5 -39.5z" />
    <glyph glyph-name="germandbls.smcp" horiz-adv-x="512" 
d="M273 549q58 0 98 -17.5t78 -53.5l-127 -163q68 -5 111.5 -46.5t43.5 -106.5q0 -77 -50 -122t-143 -45q-19 0 -38 1.5t-39 5.5l4 61q16 -4 34 -6t37 -2q61 0 95 26.5t34 78.5q0 51 -41.5 79.5t-114.5 28.5l-15 26l126 165q-16 15 -39.5 22.5t-54.5 7.5q-55 0 -92 -34
t-37 -94v-361h-65v360q0 83 53 136t142 53z" />
    <glyph glyph-name="Tcommaaccent.smcp" horiz-adv-x="488" 
d="M478 539v-61h-202v-478h-64v478h-203v61h469zM293 -93q0 -40 -19 -82.5t-49 -73.5l-21 11q15 22 23.5 47t11.5 52q-21 2 -34.5 15.5t-13.5 34.5q0 22 14.5 36.5t36.5 14.5t36.5 -15.5t14.5 -39.5z" />
    <glyph glyph-name="Tbar.smcp" horiz-adv-x="488" 
d="M478 539v-61h-202v-181h125v-49h-125v-248h-64v248h-126v49h126v181h-203v61h469z" />
    <glyph glyph-name="Uogonek.smcp" horiz-adv-x="577" 
d="M507 539v-327q0 -86 -37 -140.5t-106 -72.5q-22 -14 -33.5 -33t-11.5 -43q0 -29 15.5 -45t42.5 -16q13 0 23.5 2t19.5 7l14 -45q-10 -6 -25 -9t-34 -3q-46 0 -76 29t-30 79q0 19 5.5 36t15.5 32h-1q-104 0 -161 57t-57 165v327h65v-327q0 -162 153 -162t153 162v327h65z
" />
    <glyph glyph-name="Eng.smcp" horiz-adv-x="594" 
d="M516 539v-543q0 -79 -40.5 -120.5t-115.5 -41.5v58q44 0 67.5 26t23.5 76v10l-286 392l-22 33v-429h-65v539h63l288 -394l22 -35v429h65z" />
    <glyph glyph-name="Eth.smcp" horiz-adv-x="618" 
d="M288 539q130 0 206.5 -73.5t76.5 -195.5q0 -123 -76.5 -196.5t-206.5 -73.5h-199v244h-71v50h71v245h199zM288 478h-134v-184h110v-50h-110v-183h134q101 0 159.5 55.5t58.5 153.5q0 97 -58.5 152.5t-159.5 55.5z" />
    <glyph glyph-name="Thorn.smcp" horiz-adv-x="471" 
d="M143 539v-86h109q82 0 129.5 -42t47.5 -111q0 -70 -47.5 -111.5t-129.5 -41.5h-109v-147h-65v539h65zM252 392h-109v-184h109q51 0 81.5 24.5t30.5 67.5t-30.5 67.5t-81.5 24.5z" />
    <glyph glyph-name="exclam.smcp" horiz-adv-x="220" 
d="M140 539v-385h-62v385h62zM110 83q20 0 33.5 -13.5t13.5 -32.5t-13.5 -32t-33.5 -13q-21 0 -34.5 12.5t-13.5 32.5t13.5 33t34.5 13z" />
    <glyph glyph-name="question.smcp" horiz-adv-x="356" 
d="M175 552q66 0 111 -39.5t45 -107.5q0 -46 -20.5 -81.5t-44.5 -52.5q-24 -18 -44.5 -41t-20.5 -47v-29h-62v30q0 34 21 61.5t46 44.5q24 17 45 46.5t21 66.5q0 46 -27 71t-70 25q-47 0 -74 -26t-27 -75h-58q0 73 44.5 113.5t114.5 40.5zM217 37q0 -19 -13.5 -32t-33.5 -13
t-34 13t-14 32t14 32.5t34 13.5t33.5 -13t13.5 -33z" />
    <glyph glyph-name="parenleft.smcp" 
d="M174 586l43 -32q-56 -68 -81 -134t-25 -153t25 -153t81 -134l-43 -31q-61 72 -92 147.5t-31 170.5q0 87 31 166.5t92 152.5z" />
    <glyph glyph-name="parenright.smcp" 
d="M57 586q61 -73 91.5 -152.5t30.5 -166.5q0 -86 -30.5 -165.5t-91.5 -152.5l-44 31q56 67 81 133.5t25 153.5t-25 153.5t-81 133.5z" />
    <glyph glyph-name="bracketleft.smcp" horiz-adv-x="240" 
d="M215 571v-56h-87v-498h87v-56h-145v610h145z" />
    <glyph glyph-name="bracketright.smcp" horiz-adv-x="240" 
d="M171 571v-610h-146v56h87v498h-87v56h146z" />
    <glyph glyph-name="braceleft.smcp" horiz-adv-x="231" 
d="M206 571v-56h-22q-26 0 -39 -13.5t-13 -41.5v-118q0 -29 -11.5 -48t-35.5 -28q24 -9 35.5 -28t11.5 -48v-118q0 -27 13 -41t39 -14h22v-56h-24q-53 0 -80.5 29t-27.5 81v112q0 28 -13 42t-39 14h-14v54h14q26 0 39 14t13 42v112q0 52 27 81t81 29h24z" />
    <glyph glyph-name="braceright.smcp" horiz-adv-x="231" 
d="M49 571q53 0 80.5 -29t27.5 -81v-112q0 -28 13 -42t39 -14h13v-54h-13q-26 0 -39 -14t-13 -42v-112q0 -51 -27.5 -80.5t-80.5 -29.5h-24v56h22q26 0 39 14t13 41v118q0 29 12 48t35 28q-23 9 -35 28t-12 48v118q0 28 -13 41.5t-39 13.5h-22v56h24z" />
    <glyph glyph-name="Euro.smcp" horiz-adv-x="491" 
d="M282 225v-49h-124q15 -63 47 -94.5t81 -31.5q45 0 72.5 22t36.5 66h69q-19 -74 -61.5 -111t-116.5 -37q-76 0 -127 49.5t-68 136.5h-65v49h58q0 7 -0.5 18.5t-0.5 26.5q0 16 0.5 28t1.5 19h-59v49h66q18 86 68 134.5t126 48.5q73 0 117.5 -36.5t60.5 -110.5h-69
q-8 44 -35 65.5t-74 21.5q-49 0 -80.5 -30.5t-46.5 -92.5h123v-49h-131q-1 -7 -1.5 -19t-0.5 -28q0 -15 0.5 -26.5t1.5 -18.5h131z" />
    <glyph glyph-name="dollar.smcp" horiz-adv-x="460" 
d="M252 617v-70q60 -8 95 -46t36 -103h-65q-1 37 -17.5 59t-48.5 30v-187q81 -31 115.5 -65t34.5 -90q0 -67 -41 -107.5t-109 -46.5v-76h-50v77q-73 7 -113 51.5t-41 114.5h65q1 -47 23.5 -74t65.5 -35v199q-71 27 -104 60.5t-33 92.5t36 99.5t101 47.5v69h50zM336 141
q0 29 -19.5 49.5t-64.5 39.5v-182q40 5 62 30.5t22 62.5zM130 405q0 -32 16.5 -51t55.5 -35v170q-35 -5 -53.5 -26.5t-18.5 -57.5z" />
    <glyph glyph-name="cent.smcp" horiz-adv-x="461" 
d="M263 464v-70q57 -6 97.5 -38.5t53.5 -86.5h-61q-11 29 -33.5 45.5t-56.5 21.5v-286q35 6 57 23t32 45h63q-15 -54 -55 -86.5t-97 -38.5v-70h-50v70q-75 8 -122.5 63.5t-47.5 136.5t47.5 137t122.5 64v70h50zM106 193q0 -55 30 -94t77 -48v286q-48 -9 -77.5 -48.5
t-29.5 -95.5z" />
    <glyph glyph-name="sterling.smcp" horiz-adv-x="431" 
d="M285 283v-51h-113q2 -12 3 -21.5t1 -17.5q0 -30 -9 -58t-28 -54l-12 -20h148q37 0 55 18t18 53h59q-1 -65 -36 -98.5t-99 -33.5h-234v27l32 43q22 29 32.5 60t10.5 64q0 11 -1 20.5t-3 17.5h-81v51h65q-15 35 -23 63t-8 49q0 70 43.5 112t111.5 42q69 0 109.5 -37.5
t42.5 -108.5h-61q0 42 -23.5 65t-65.5 23q-43 0 -67.5 -25.5t-24.5 -71.5q0 -16 3.5 -32t6.5 -25t10.5 -28t10.5 -26h127z" />
    <glyph glyph-name="florin.smcp" horiz-adv-x="305" 
d="M258 568q17 0 31 -2t25 -7l-6 -55q-11 5 -23 7t-25 2q-29 0 -45.5 -16t-20.5 -49l-7 -61h108l-5 -55h-108l-44 -392q-6 -55 -38.5 -84.5t-85.5 -29.5q-17 0 -31 2t-25 7l6 56q11 -5 23 -7.5t25 -2.5q30 0 46.5 16t19.5 49l42 386h-78l6 55h78l8 67q7 54 39 84t85 30z" />
    <glyph glyph-name="yen.smcp" horiz-adv-x="559" 
d="M421 235v-49h-107v-55h107v-48h-107v-83h-65v83h-105v48h105v55h-105v49h85l-203 304h75l159 -236l22 -36l22 36l158 236h75l-203 -304h87z" />
    <glyph glyph-name="zero.smcp" horiz-adv-x="471" 
d="M236 549q88 0 136.5 -75t48.5 -204t-48.5 -204.5t-136.5 -75.5q-89 0 -137.5 75.5t-48.5 204.5t48.5 204t137.5 75zM236 489q-59 0 -90 -58t-31 -161t31 -161.5t90 -58.5q58 0 89 58.5t31 161.5q0 102 -31 160.5t-89 58.5z" />
    <glyph glyph-name="one.smcp" horiz-adv-x="295" 
d="M218 539v-539h-65v419h-117v55q67 0 94.5 13.5t36.5 51.5h51z" />
    <glyph glyph-name="two.smcp" horiz-adv-x="416" 
d="M212 549q74 0 114 -39.5t40 -108.5q0 -38 -16.5 -77t-50.5 -80l-149 -183h226v-61h-315v47l182 222q32 39 44.5 67t12.5 62q0 46 -22 68.5t-67 22.5q-41 0 -67 -26t-25 -78h-65q-1 75 43 119.5t115 44.5z" />
    <glyph glyph-name="three.smcp" horiz-adv-x="452" 
d="M377 399q0 -48 -24 -78.5t-57 -41.5q41 -10 70.5 -45t29.5 -88q0 -69 -48 -112.5t-124 -43.5q-80 0 -127 43t-47 120h64q0 -52 31 -77.5t81 -25.5q47 0 75.5 26.5t28.5 70.5q0 50 -36.5 76.5t-103.5 26.5h-15v57h14q63 0 92.5 21.5t29.5 67.5q0 43 -23 68t-67 25
q-41 0 -67 -25.5t-26 -75.5h-65q0 74 43 117.5t115 43.5t114 -42.5t42 -107.5z" />
    <glyph glyph-name="four.smcp" horiz-adv-x="454" 
d="M336 539v-367h80v-60h-80v-112h-64v112h-234v52l227 375h71zM273 444l-19 -34l-147 -239h166v273z" />
    <glyph glyph-name="five.smcp" horiz-adv-x="453" 
d="M379 539v-61h-232v-165q19 11 43 16t52 5q76 0 121.5 -44.5t45.5 -120.5q0 -78 -47 -128.5t-127 -50.5q-77 0 -122.5 40t-45.5 116h64q0 -48 28 -72t76 -24q51 0 79.5 32t28.5 84q0 50 -28.5 80.5t-79.5 30.5q-30 0 -53.5 -6t-41.5 -18h-57v286h296z" />
    <glyph glyph-name="six.smcp" horiz-adv-x="463" 
d="M245 549q66 0 109.5 -40t47.5 -106h-65q-4 43 -27.5 64.5t-65.5 21.5q-61 0 -91.5 -53.5t-31.5 -169.5q16 27 51.5 45t75.5 18q77 0 121.5 -46.5t44.5 -119.5q0 -75 -47.5 -124t-125.5 -49q-40 0 -72.5 13.5t-57.5 39.5q-27 30 -41 83t-14 129q0 147 47.5 220.5
t141.5 73.5zM240 273q-45 0 -78 -30.5t-34 -75.5v-4q0 -45 31.5 -79.5t80.5 -34.5q48 0 78.5 32.5t30.5 81.5q0 45 -30.5 77.5t-78.5 32.5z" />
    <glyph glyph-name="seven.smcp" horiz-adv-x="414" 
d="M376 539v-53l-230 -486h-70l226 478h-257v61h331z" />
    <glyph glyph-name="eight.smcp" horiz-adv-x="463" 
d="M389 398q0 -46 -22 -77.5t-48 -42.5q45 -20 67 -52.5t22 -78.5q0 -68 -50.5 -112.5t-125.5 -44.5t-126 44.5t-51 112.5q0 49 25.5 83.5t62.5 47.5q-26 12 -47.5 43t-21.5 77q0 65 43.5 108t114.5 43t114 -43t43 -108zM232 249q-46 0 -78.5 -27.5t-32.5 -72.5t32.5 -72
t78.5 -27t78.5 27t32.5 72t-33 72.5t-78 27.5zM232 489q-42 0 -68 -25.5t-26 -67.5q0 -40 26 -65t68 -25q41 0 67 25t26 65q0 42 -26 67.5t-67 25.5z" />
    <glyph glyph-name="nine.smcp" horiz-adv-x="463" 
d="M220 -10q-66 0 -109.5 40t-47.5 106h65q5 -43 28 -64.5t65 -21.5q61 0 91.5 53t31.5 169q-17 -26 -52.5 -44t-74.5 -18q-77 0 -121.5 46.5t-44.5 119.5q0 75 47.5 124t125.5 49q40 0 72.5 -13t57.5 -40q28 -30 41.5 -83t13.5 -129q0 -147 -47 -220.5t-142 -73.5zM225 266
q46 0 79 32t33 78q0 45 -31.5 79.5t-80.5 34.5q-48 0 -78.5 -32.5t-30.5 -81.5q0 -45 30.5 -77.5t78.5 -32.5z" />
    <glyph glyph-name="ampersand.smcp" horiz-adv-x="530" 
d="M230 549q60 0 97.5 -33t37.5 -90q0 -27 -8.5 -48.5t-28.5 -39.5q-20 -19 -33 -27.5t-42 -26.5l-2 -1l126 -135q2 8 4 19t4 25q2 22 0 43t-8 41l60 7q7 -23 9 -47.5t0 -49.5q-2 -21 -8 -42.5t-16 -42.5l95 -101h-79l-50 53q-30 -31 -69.5 -47t-88.5 -16q-85 0 -136.5 39.5
t-51.5 109.5q0 50 28.5 84t80.5 65l11 6l-13 14q-28 31 -42.5 60.5t-14.5 58.5q0 53 37 87.5t101 34.5zM231 42q39 0 68.5 13t50.5 38l-150 160l-5 -3q-45 -28 -66 -51t-21 -58q0 -49 33 -74t90 -25zM156 426q0 -20 11 -42t33 -47l12 -13l4 2q3 2 12.5 7.5t12.5 7.5t11.5 7
t11.5 8t9.5 8.5t9.5 9.5q2 4 6.5 10t6.5 12q1 6 2.5 13t1.5 15q0 33 -18 53t-51 20q-32 0 -53 -19.5t-22 -51.5z" />
    <glyph glyph-name="exclamdown.smcp" horiz-adv-x="220" 
d="M79 -2v385h62v-385h-62zM109 454q-20 0 -33.5 13.5t-13.5 32.5t13.5 32t33.5 13q21 0 34.5 -12.5t13.5 -32.5t-13.5 -33t-34.5 -13z" />
    <glyph glyph-name="questiondown.smcp" horiz-adv-x="356" 
d="M176 -9q-66 0 -111 39.5t-45 107.5q0 46 20.5 81.5t44.5 53.5q24 17 44.5 40t20.5 47v29h62v-30q0 -34 -21 -61.5t-45 -44.5q-25 -17 -46 -46.5t-21 -66.5q0 -46 27 -71t70 -25q47 0 74 26t27 75h58q0 -73 -44.5 -113.5t-114.5 -40.5zM134 506q0 19 13.5 32t33.5 13
t34 -13t14 -32t-14 -32.5t-34 -13.5t-33.5 13t-13.5 33z" />
    <glyph glyph-name="F.smcp_I.smcp" horiz-adv-x="631" 
d="M376 539v-61h-233v-178h197v-60h-197v-240h-65v539h298zM553 539v-539h-65v539h65z" />
    <glyph glyph-name="F.smcp_J.smcp" horiz-adv-x="774" 
d="M703 539v-385q0 -78 -41 -120t-112 -42q-78 0 -119 42.5t-45 126.5h64q3 -54 28 -81t71 -27q43 0 66 26.5t23 76.5v383h65zM376 539v-61h-233v-178h197v-60h-197v-240h-65v539h298z" />
    <glyph glyph-name="Iogonek.smcp" horiz-adv-x="220" 
d="M143 539v-539h-23q-30 -15 -45 -36t-15 -48q0 -29 15.5 -45t42.5 -16q13 0 23.5 2t19.5 7l14 -45q-10 -6 -25 -9t-34 -3q-46 0 -76 29t-30 79q0 34 17 61t51 46v517h65z" />
    <glyph glyph-name="Oslashacute.smcp" horiz-adv-x="659" 
d="M330 549q31 0 60 -5.5t56 -17.5l36 63l49 -25l-38 -64q54 -38 84 -98t30 -132q0 -120 -77.5 -200t-199.5 -80q-32 0 -61.5 6t-56.5 17l-37 -65l-48 25l38 66q-54 37 -84 97.5t-30 133.5q0 121 77.5 200t201.5 79zM330 489q-95 0 -154 -62t-59 -157q0 -57 20 -101t59 -75
l219 379q-21 8 -42 12t-43 4zM540 270q0 56 -19.5 99.5t-58.5 75.5l-219 -379q21 -8 43 -12t44 -4q93 0 151.5 62.5t58.5 157.5zM496 755l-137 -158h-66l122 158h81z" />
    <glyph glyph-name="Rcommaaccent.smcp" horiz-adv-x="450" 
d="M226 539q83 0 132 -44t49 -118q0 -52 -28.5 -90t-78.5 -55l131 -232h-74l-124 221h-90v-221h-65v539h148zM226 478h-83v-198h83q53 0 84.5 25.5t31.5 71.5q0 47 -31.5 74t-84.5 27zM300 -90q0 -40 -19 -82.5t-49 -73.5l-21 11q15 22 23.5 47t11.5 52q-21 2 -34.5 15.5
t-13.5 34.5q0 22 14.5 36.5t36.5 14.5t36.5 -15.5t14.5 -39.5z" />
    <glyph glyph-name="Aacute.smcp" horiz-adv-x="557" 
d="M311 539l227 -539h-71l-63 148h-251l-62 -148h-71l226 539h65zM278 455l-10 -30l-94 -219h209l-94 219zM443 762l-137 -158h-66l122 158h81z" />
    <glyph glyph-name="Abreve.smcp" horiz-adv-x="557" 
d="M416 735q0 -57 -38 -95t-97 -38q-61 0 -98.5 37.5t-37.5 95.5h56q0 -36 21.5 -59.5t58.5 -23.5q35 0 57 24t22 59h56zM311 539l227 -539h-71l-63 148h-251l-62 -148h-71l226 539h65zM278 455l-10 -30l-94 -219h209l-94 219z" />
    <glyph glyph-name="Acircumflex.smcp" horiz-adv-x="557" 
d="M311 539l227 -539h-71l-63 148h-251l-62 -148h-71l226 539h65zM278 455l-10 -30l-94 -219h209l-94 219zM297 762l134 -158h-73l-78 99l-79 -99h-73l134 158h35z" />
    <glyph glyph-name="Adieresis.smcp" horiz-adv-x="557" 
d="M311 539l227 -539h-71l-63 148h-251l-62 -148h-71l226 539h65zM278 455l-10 -30l-94 -219h209l-94 219zM223 694q13 -14 13 -33t-13 -32t-32 -13t-32 13q-14 13 -14 32t14 33q13 13 32 13t32 -13zM401 694q13 -14 13 -33t-13 -32t-32 -13t-32 13q-14 13 -14 32t14 33
q13 13 32 13t32 -13z" />
    <glyph glyph-name="Agrave.smcp" horiz-adv-x="557" 
d="M311 539l227 -539h-71l-63 148h-251l-62 -148h-71l226 539h65zM278 455l-10 -30l-94 -219h209l-94 219zM193 762l122 -158h-66l-137 158h81z" />
    <glyph glyph-name="Amacron.smcp" horiz-adv-x="557" 
d="M311 539l227 -539h-71l-63 148h-251l-62 -148h-71l226 539h65zM278 455l-10 -30l-94 -219h209l-94 219zM407 685v-55h-253v55h253z" />
    <glyph glyph-name="Aring.smcp" horiz-adv-x="557" 
d="M311 539l227 -539h-71l-63 148h-251l-62 -148h-71l226 539h65zM278 455l-10 -30l-94 -219h209l-94 219zM382 686q0 -42 -28.5 -70t-73.5 -28t-73.5 28t-28.5 70q0 44 28.5 72.5t73.5 28.5t73.5 -28.5t28.5 -72.5zM225 687q0 -22 16 -38.5t39 -16.5q24 0 39.5 16.5
t15.5 38.5q0 24 -15.5 39.5t-39.5 15.5t-39.5 -16t-15.5 -39z" />
    <glyph glyph-name="Atilde.smcp" horiz-adv-x="557" 
d="M311 539l227 -539h-71l-63 148h-251l-62 -148h-71l226 539h65zM278 455l-10 -30l-94 -219h209l-94 219zM220 728q26 0 45.5 -12t28.5 -26q9 -15 22.5 -27t28.5 -12q23 0 34.5 17t11.5 51h48q0 -54 -24.5 -87t-72.5 -33q-27 0 -46.5 12t-28.5 27t-22.5 27t-28.5 12
q-23 0 -34.5 -17t-11.5 -52h-48q0 55 24.5 87.5t73.5 32.5z" />
    <glyph glyph-name="Cacute.smcp" horiz-adv-x="590" 
d="M317 549q94 0 155 -44.5t85 -123.5h-72q-19 54 -61 81t-107 27q-91 0 -147.5 -62t-56.5 -157t56.5 -157.5t147.5 -62.5q66 0 108.5 27.5t62.5 82.5h70q-24 -85 -84.5 -127.5t-156.5 -42.5q-120 0 -195 79.5t-75 200.5t75 200t195 79zM477 762l-137 -158h-66l122 158h81z
" />
    <glyph glyph-name="Ccaron.smcp" horiz-adv-x="590" 
d="M317 549q94 0 155 -44.5t85 -123.5h-72q-19 54 -61 81t-107 27q-91 0 -147.5 -62t-56.5 -157t56.5 -157.5t147.5 -62.5q66 0 108.5 27.5t62.5 82.5h70q-24 -85 -84.5 -127.5t-156.5 -42.5q-120 0 -195 79.5t-75 200.5t75 200t195 79zM465 750l-134 -158h-35l-134 158h73
l79 -99l78 99h73z" />
    <glyph glyph-name="Ccircumflex.smcp" horiz-adv-x="590" 
d="M317 549q94 0 155 -44.5t85 -123.5h-72q-19 54 -61 81t-107 27q-91 0 -147.5 -62t-56.5 -157t56.5 -157.5t147.5 -62.5q66 0 108.5 27.5t62.5 82.5h70q-24 -85 -84.5 -127.5t-156.5 -42.5q-120 0 -195 79.5t-75 200.5t75 200t195 79zM331 762l134 -158h-73l-78 99
l-79 -99h-73l134 158h35z" />
    <glyph glyph-name="Cdotaccent.smcp" horiz-adv-x="590" 
d="M317 549q94 0 155 -44.5t85 -123.5h-72q-19 54 -61 81t-107 27q-91 0 -147.5 -62t-56.5 -157t56.5 -157.5t147.5 -62.5q66 0 108.5 27.5t62.5 82.5h70q-24 -85 -84.5 -127.5t-156.5 -42.5q-120 0 -195 79.5t-75 200.5t75 200t195 79zM349 705q14 -15 14 -35t-14 -34
q-15 -14 -35 -14t-34 14q-15 14 -15 34t15 35q14 14 34 14t35 -14z" />
    <glyph glyph-name="Eacute.smcp" horiz-adv-x="434" 
d="M383 539v-61h-240v-170h212v-61h-212v-186h240v-61h-305v539h305zM404 762l-137 -158h-66l122 158h81z" />
    <glyph glyph-name="Ebreve.smcp" horiz-adv-x="434" 
d="M383 539v-61h-240v-170h212v-61h-212v-186h240v-61h-305v539h305zM369 735q0 -57 -37.5 -95t-97.5 -38q-61 0 -98.5 37.5t-37.5 95.5h56q0 -36 21.5 -59.5t58.5 -23.5q35 0 57 24t22 59h56z" />
    <glyph glyph-name="Ecaron.smcp" horiz-adv-x="434" 
d="M384 750l-134 -158h-35l-134 158h73l79 -99l78 99h73zM383 539v-61h-240v-170h212v-61h-212v-186h240v-61h-305v539h305z" />
    <glyph glyph-name="Ecircumflex.smcp" horiz-adv-x="434" 
d="M253 762l134 -158h-73l-78 99l-79 -99h-73l134 158h35zM383 539v-61h-240v-170h212v-61h-212v-186h240v-61h-305v539h305z" />
    <glyph glyph-name="Edieresis.smcp" horiz-adv-x="434" 
d="M383 539v-61h-240v-170h212v-61h-212v-186h240v-61h-305v539h305zM178 694q13 -14 13 -33t-13 -32t-32 -13t-32 13q-14 13 -14 32t14 33q13 13 32 13t32 -13zM356 694q13 -14 13 -33t-13 -32t-32 -13t-32 13q-14 13 -14 32t14 33q13 13 32 13t32 -13z" />
    <glyph glyph-name="Edotaccent.smcp" horiz-adv-x="434" 
d="M383 539v-61h-240v-170h212v-61h-212v-186h240v-61h-305v539h305zM272 705q14 -15 14 -35t-14 -34q-15 -14 -35 -14t-34 14q-15 14 -15 34t15 35q14 14 34 14t35 -14z" />
    <glyph glyph-name="Egrave.smcp" horiz-adv-x="434" 
d="M383 539v-61h-240v-170h212v-61h-212v-186h240v-61h-305v539h305zM155 762l122 -158h-66l-137 158h81z" />
    <glyph glyph-name="Emacron.smcp" horiz-adv-x="434" 
d="M383 539v-61h-240v-170h212v-61h-212v-186h240v-61h-305v539h305zM360 685v-55h-253v55h253z" />
    <glyph glyph-name="Gbreve.smcp" horiz-adv-x="612" 
d="M320 549q95 0 157 -44.5t86 -123.5h-72q-20 54 -63 81t-109 27q-91 0 -148.5 -62t-57.5 -157t58 -157.5t150 -62.5q83 0 132 41t50 122h-172v61h240v-35q0 -117 -66 -183t-184 -66q-121 0 -197.5 79.5t-76.5 200.5q0 120 76.5 199.5t196.5 79.5zM453 735q0 -57 -37.5 -95
t-97.5 -38q-61 0 -98.5 37.5t-37.5 95.5h56q0 -36 21.5 -59.5t58.5 -23.5q35 0 57 24t22 59h56z" />
    <glyph glyph-name="Gcircumflex.smcp" horiz-adv-x="612" 
d="M320 549q95 0 157 -44.5t86 -123.5h-72q-20 54 -63 81t-109 27q-91 0 -148.5 -62t-57.5 -157t58 -157.5t150 -62.5q83 0 132 41t50 122h-172v61h240v-35q0 -117 -66 -183t-184 -66q-121 0 -197.5 79.5t-76.5 200.5q0 120 76.5 199.5t196.5 79.5zM335 762l134 -158h-73
l-78 99l-79 -99h-73l134 158h35z" />
    <glyph glyph-name="Gdotaccent.smcp" horiz-adv-x="612" 
d="M320 549q95 0 157 -44.5t86 -123.5h-72q-20 54 -63 81t-109 27q-91 0 -148.5 -62t-57.5 -157t58 -157.5t150 -62.5q83 0 132 41t50 122h-172v61h240v-35q0 -117 -66 -183t-184 -66q-121 0 -197.5 79.5t-76.5 200.5q0 120 76.5 199.5t196.5 79.5zM352 705q14 -15 14 -35
t-14 -34q-15 -14 -35 -14t-34 14q-15 14 -15 34t15 35q14 14 34 14t35 -14z" />
    <glyph glyph-name="Hcircumflex.smcp" horiz-adv-x="594" 
d="M314 762l134 -158h-73l-78 99l-79 -99h-73l134 158h35zM516 539v-539h-65v248h-308v-248h-65v539h65v-230h308v230h65z" />
    <glyph glyph-name="Iacute.smcp" horiz-adv-x="220" 
d="M275 761l-137 -158h-66l122 158h81zM143 539v-539h-65v539h65z" />
    <glyph glyph-name="Ibreve.smcp" horiz-adv-x="220" 
d="M249 734q0 -58 -37.5 -95.5t-97.5 -37.5q-61 0 -98.5 37.5t-37.5 95.5h56q0 -36 21.5 -59.5t58.5 -23.5q35 0 57 24t22 59h56zM143 539v-539h-65v539h65z" />
    <glyph glyph-name="Idotaccent.smcp" horiz-adv-x="220" 
d="M147 704q14 -15 14 -35t-14 -34q-15 -14 -35 -14t-34 14q-15 14 -15 34t15 35q14 14 34 14t35 -14zM143 539v-539h-65v539h65z" />
    <glyph glyph-name="Icircumflex.smcp" horiz-adv-x="220" 
d="M130 761l134 -158h-73l-78 99l-79 -99h-73l134 158h35zM143 539v-539h-65v539h65z" />
    <glyph glyph-name="Idieresis.smcp" horiz-adv-x="220" 
d="M56 693q13 -14 13 -33t-13 -32t-32 -13t-32 13q-14 13 -14 32t14 33q13 13 32 13t32 -13zM234 693q13 -14 13 -33t-13 -32t-32 -13t-32 13q-14 13 -14 32t14 33q13 13 32 13t32 -13zM143 539v-539h-65v539h65z" />
    <glyph glyph-name="Igrave.smcp" horiz-adv-x="220" 
d="M27 761l122 -158h-66l-137 158h81zM143 539v-539h-65v539h65z" />
    <glyph glyph-name="Imacron.smcp" horiz-adv-x="220" 
d="M240 684v-55h-253v55h253zM143 539v-539h-65v539h65z" />
    <glyph glyph-name="Itilde.smcp" horiz-adv-x="220" 
d="M53 727q26 0 45.5 -12t28.5 -26q9 -15 22.5 -27t28.5 -12q23 0 34.5 17t11.5 51h48q0 -54 -24.5 -87t-72.5 -33q-27 0 -46.5 12t-28.5 27t-22.5 27t-28.5 12q-23 0 -34.5 -17t-11.5 -52h-48q0 55 24.5 87.5t73.5 32.5zM143 539v-539h-65v539h65z" />
    <glyph glyph-name="Jcircumflex.smcp" horiz-adv-x="415" 
d="M331 761l134 -158h-73l-78 99l-79 -99h-73l134 158h35zM345 539v-385q0 -78 -41 -120t-112 -42q-78 0 -119 42.5t-45 126.5h64q3 -54 28 -81t71 -27q43 0 66 26.5t23 76.5v383h65z" />
    <glyph glyph-name="Lacute.smcp" horiz-adv-x="418" 
d="M274 762l-137 -158h-66l122 158h81zM142 539v-478h253v-61h-318v539h65z" />
    <glyph glyph-name="Nacute.smcp" horiz-adv-x="594" 
d="M516 539v-539h-62l-289 396l-22 33v-429h-65v539h63l288 -394l22 -35v429h65zM467 761l-137 -158h-66l122 158h81z" />
    <glyph glyph-name="Ncaron.smcp" horiz-adv-x="594" 
d="M516 539v-539h-62l-289 396l-22 33v-429h-65v539h63l288 -394l22 -35v429h65zM455 749l-134 -158h-35l-134 158h73l79 -99l78 99h73z" />
    <glyph glyph-name="Ncommaaccent.smcp" horiz-adv-x="594" 
d="M516 539v-539h-62l-289 396l-22 33v-429h-65v539h63l288 -394l22 -35v429h65zM348 -90q0 -40 -19 -82.5t-49 -73.5l-21 11q15 22 23.5 47t11.5 52q-21 2 -34.5 15.5t-13.5 34.5q0 22 14.5 36.5t36.5 14.5t36.5 -15.5t14.5 -39.5z" />
    <glyph glyph-name="Ntilde.smcp" horiz-adv-x="594" 
d="M516 539v-539h-62l-289 396l-22 33v-429h-65v539h63l288 -394l22 -35v429h65zM244 727q26 0 45.5 -12t28.5 -26q9 -15 22.5 -27t28.5 -12q23 0 34.5 17t11.5 51h48q0 -54 -24.5 -87t-72.5 -33q-27 0 -46.5 12t-28.5 27t-22.5 27t-28.5 12q-23 0 -34.5 -17t-11.5 -52h-48
q0 55 24.5 87.5t73.5 32.5z" />
    <glyph glyph-name="Oacute.smcp" horiz-adv-x="659" 
d="M330 549q122 0 199.5 -79.5t77.5 -199.5t-77.5 -200t-199.5 -80q-124 0 -201.5 79.5t-77.5 200.5t77.5 200t201.5 79zM330 489q-95 0 -154 -62t-59 -157t59 -157.5t154 -62.5q93 0 151.5 62.5t58.5 157.5t-58.5 157t-151.5 62zM494 762l-137 -158h-66l122 158h81z" />
    <glyph glyph-name="Obreve.smcp" horiz-adv-x="659" 
d="M466 735q0 -57 -38 -95t-97 -38q-61 0 -98.5 37.5t-37.5 95.5h56q0 -36 21.5 -59.5t58.5 -23.5q35 0 57 24t22 59h56zM330 549q122 0 199.5 -79.5t77.5 -199.5t-77.5 -200t-199.5 -80q-124 0 -201.5 79.5t-77.5 200.5t77.5 200t201.5 79zM330 489q-95 0 -154 -62
t-59 -157t59 -157.5t154 -62.5q93 0 151.5 62.5t58.5 157.5t-58.5 157t-151.5 62z" />
    <glyph glyph-name="Ocircumflex.smcp" horiz-adv-x="659" 
d="M348 762l134 -158h-73l-78 99l-79 -99h-73l134 158h35zM330 549q122 0 199.5 -79.5t77.5 -199.5t-77.5 -200t-199.5 -80q-124 0 -201.5 79.5t-77.5 200.5t77.5 200t201.5 79zM330 489q-95 0 -154 -62t-59 -157t59 -157.5t154 -62.5q93 0 151.5 62.5t58.5 157.5t-58.5 157
t-151.5 62z" />
    <glyph glyph-name="Odieresis.smcp" horiz-adv-x="659" 
d="M330 549q122 0 199.5 -79.5t77.5 -199.5t-77.5 -200t-199.5 -80q-124 0 -201.5 79.5t-77.5 200.5t77.5 200t201.5 79zM330 489q-95 0 -154 -62t-59 -157t59 -157.5t154 -62.5q93 0 151.5 62.5t58.5 157.5t-58.5 157t-151.5 62zM274 694q13 -14 13 -33t-13 -32t-32 -13
t-32 13q-14 13 -14 32t14 33q13 13 32 13t32 -13zM452 694q13 -14 13 -33t-13 -32t-32 -13t-32 13q-14 13 -14 32t14 33q13 13 32 13t32 -13z" />
    <glyph glyph-name="Ograve.smcp" horiz-adv-x="659" 
d="M330 549q122 0 199.5 -79.5t77.5 -199.5t-77.5 -200t-199.5 -80q-124 0 -201.5 79.5t-77.5 200.5t77.5 200t201.5 79zM330 489q-95 0 -154 -62t-59 -157t59 -157.5t154 -62.5q93 0 151.5 62.5t58.5 157.5t-58.5 157t-151.5 62zM244 762l122 -158h-66l-137 158h81z" />
    <glyph glyph-name="Ohungarumlaut.smcp" horiz-adv-x="659" 
d="M379 762l-103 -158h-61l94 158h70zM534 762l-103 -158h-61l94 158h70zM330 549q122 0 199.5 -79.5t77.5 -199.5t-77.5 -200t-199.5 -80q-124 0 -201.5 79.5t-77.5 200.5t77.5 200t201.5 79zM330 489q-95 0 -154 -62t-59 -157t59 -157.5t154 -62.5q93 0 151.5 62.5
t58.5 157.5t-58.5 157t-151.5 62z" />
    <glyph glyph-name="Omacron.smcp" horiz-adv-x="659" 
d="M330 549q122 0 199.5 -79.5t77.5 -199.5t-77.5 -200t-199.5 -80q-124 0 -201.5 79.5t-77.5 200.5t77.5 200t201.5 79zM330 489q-95 0 -154 -62t-59 -157t59 -157.5t154 -62.5q93 0 151.5 62.5t58.5 157.5t-58.5 157t-151.5 62zM458 685v-55h-253v55h253z" />
    <glyph glyph-name="Otilde.smcp" horiz-adv-x="659" 
d="M271 728q26 0 45.5 -12t28.5 -26q9 -15 22.5 -27t28.5 -12q23 0 34.5 17t11.5 51h48q0 -54 -24.5 -87t-72.5 -33q-27 0 -46.5 12t-28.5 27t-22.5 27t-28.5 12q-23 0 -34.5 -17t-11.5 -52h-48q0 55 24.5 87.5t73.5 32.5zM330 549q122 0 199.5 -79.5t77.5 -199.5
t-77.5 -200t-199.5 -80q-124 0 -201.5 79.5t-77.5 200.5t77.5 200t201.5 79zM330 489q-95 0 -154 -62t-59 -157t59 -157.5t154 -62.5q93 0 151.5 62.5t58.5 157.5t-58.5 157t-151.5 62z" />
    <glyph glyph-name="Racute.smcp" horiz-adv-x="450" 
d="M226 539q83 0 132 -44t49 -118q0 -52 -28.5 -90t-78.5 -55l131 -232h-74l-124 221h-90v-221h-65v539h148zM226 478h-83v-198h83q53 0 84.5 25.5t31.5 71.5q0 47 -31.5 74t-84.5 27zM387 761l-137 -158h-66l122 158h81z" />
    <glyph glyph-name="Rcaron.smcp" horiz-adv-x="450" 
d="M226 539q83 0 132 -44t49 -118q0 -52 -28.5 -90t-78.5 -55l131 -232h-74l-124 221h-90v-221h-65v539h148zM226 478h-83v-198h83q53 0 84.5 25.5t31.5 71.5q0 47 -31.5 74t-84.5 27zM373 749l-134 -158h-35l-134 158h73l79 -99l78 99h73z" />
    <glyph glyph-name="Sacute.smcp" horiz-adv-x="437" 
d="M219 549q73 0 116 -39t44 -112h-65q-1 44 -27 68.5t-70 24.5q-43 0 -67 -22.5t-24 -63.5q0 -39 24.5 -58.5t89.5 -43.5q86 -32 122 -66t36 -92q0 -72 -47.5 -113.5t-123.5 -41.5q-86 0 -134 46t-49 122h65q1 -54 32 -82.5t87 -28.5q50 0 77 26t27 68q0 35 -27.5 57.5
t-93.5 45.5q-78 28 -114 61.5t-36 95.5q0 64 41.5 106t116.5 42zM386 761l-137 -158h-66l122 158h81z" />
    <glyph glyph-name="Scaron.smcp" horiz-adv-x="437" 
d="M219 549q73 0 116 -39t44 -112h-65q-1 44 -27 68.5t-70 24.5q-43 0 -67 -22.5t-24 -63.5q0 -39 24.5 -58.5t89.5 -43.5q86 -32 122 -66t36 -92q0 -72 -47.5 -113.5t-123.5 -41.5q-86 0 -134 46t-49 122h65q1 -54 32 -82.5t87 -28.5q50 0 77 26t27 68q0 35 -27.5 57.5
t-93.5 45.5q-78 28 -114 61.5t-36 95.5q0 64 41.5 106t116.5 42zM374 749l-134 -158h-35l-134 158h73l79 -99l78 99h73z" />
    <glyph glyph-name="Scircumflex.smcp" horiz-adv-x="437" 
d="M219 549q73 0 116 -39t44 -112h-65q-1 44 -27 68.5t-70 24.5q-43 0 -67 -22.5t-24 -63.5q0 -39 24.5 -58.5t89.5 -43.5q86 -32 122 -66t36 -92q0 -72 -47.5 -113.5t-123.5 -41.5q-86 0 -134 46t-49 122h65q1 -54 32 -82.5t87 -28.5q50 0 77 26t27 68q0 35 -27.5 57.5
t-93.5 45.5q-78 28 -114 61.5t-36 95.5q0 64 41.5 106t116.5 42zM240 761l134 -158h-73l-78 99l-79 -99h-73l134 158h35z" />
    <glyph glyph-name="Tcaron.smcp" horiz-adv-x="488" 
d="M396 749l-134 -158h-35l-134 158h73l79 -99l78 99h73zM478 539v-61h-202v-478h-64v478h-203v61h469z" />
    <glyph glyph-name="Uacute.smcp" horiz-adv-x="577" 
d="M507 539v-327q0 -108 -57.5 -165t-160.5 -57q-104 0 -161 57t-57 165v327h65v-327q0 -162 153 -162t153 162v327h65zM453 761l-137 -158h-66l122 158h81z" />
    <glyph glyph-name="Ubreve.smcp" horiz-adv-x="577" 
d="M425 734q0 -58 -37.5 -95.5t-97.5 -37.5q-61 0 -98.5 37.5t-37.5 95.5h56q0 -36 21.5 -59.5t58.5 -23.5q35 0 57 24t22 59h56zM507 539v-327q0 -108 -57.5 -165t-160.5 -57q-104 0 -161 57t-57 165v327h65v-327q0 -162 153 -162t153 162v327h65z" />
    <glyph glyph-name="Ucircumflex.smcp" horiz-adv-x="577" 
d="M307 761l134 -158h-73l-78 99l-79 -99h-73l134 158h35zM507 539v-327q0 -108 -57.5 -165t-160.5 -57q-104 0 -161 57t-57 165v327h65v-327q0 -162 153 -162t153 162v327h65z" />
    <glyph glyph-name="Udieresis.smcp" horiz-adv-x="577" 
d="M507 539v-327q0 -108 -57.5 -165t-160.5 -57q-104 0 -161 57t-57 165v327h65v-327q0 -162 153 -162t153 162v327h65zM233 693q13 -14 13 -33t-13 -32t-32 -13t-32 13q-14 13 -14 32t14 33q13 13 32 13t32 -13zM411 693q13 -14 13 -33t-13 -32t-32 -13t-32 13
q-14 13 -14 32t14 33q13 13 32 13t32 -13z" />
    <glyph glyph-name="Ugrave.smcp" horiz-adv-x="577" 
d="M507 539v-327q0 -108 -57.5 -165t-160.5 -57q-104 0 -161 57t-57 165v327h65v-327q0 -162 153 -162t153 162v327h65zM203 761l122 -158h-66l-137 158h81z" />
    <glyph glyph-name="Uhungarumlaut.smcp" horiz-adv-x="577" 
d="M338 761l-103 -158h-61l94 158h70zM493 761l-103 -158h-61l94 158h70zM507 539v-327q0 -108 -57.5 -165t-160.5 -57q-104 0 -161 57t-57 165v327h65v-327q0 -162 153 -162t153 162v327h65z" />
    <glyph glyph-name="Umacron.smcp" horiz-adv-x="577" 
d="M507 539v-327q0 -108 -57.5 -165t-160.5 -57q-104 0 -161 57t-57 165v327h65v-327q0 -162 153 -162t153 162v327h65zM416 684v-55h-253v55h253z" />
    <glyph glyph-name="Uring.smcp" horiz-adv-x="577" 
d="M391 685q0 -42 -28.5 -70t-73.5 -28t-73.5 28t-28.5 70q0 44 28.5 72.5t73.5 28.5t73.5 -28.5t28.5 -72.5zM234 686q0 -22 16 -38.5t39 -16.5q24 0 39.5 16.5t15.5 38.5q0 24 -15.5 39.5t-39.5 15.5t-39.5 -16t-15.5 -39zM507 539v-327q0 -108 -57.5 -165t-160.5 -57
q-104 0 -161 57t-57 165v327h65v-327q0 -162 153 -162t153 162v327h65z" />
    <glyph glyph-name="Utilde.smcp" horiz-adv-x="577" 
d="M229 727q26 0 45.5 -12t28.5 -26q9 -15 22.5 -27t28.5 -12q23 0 34.5 17t11.5 51h48q0 -54 -24.5 -87t-72.5 -33q-27 0 -46.5 12t-28.5 27t-22.5 27t-28.5 12q-23 0 -34.5 -17t-11.5 -52h-48q0 55 24.5 87.5t73.5 32.5zM507 539v-327q0 -108 -57.5 -165t-160.5 -57
q-104 0 -161 57t-57 165v327h65v-327q0 -162 153 -162t153 162v327h65z" />
    <glyph glyph-name="Wacute.smcp" horiz-adv-x="798" 
d="M777 539l-180 -539h-62l-127 384l-9 36l-9 -36l-127 -384h-61l-181 539h68l136 -399l9 -39l9 39l130 399h53l130 -399l8 -39l11 39l134 399h68zM562 762l-137 -158h-66l122 158h81z" />
    <glyph glyph-name="Wcircumflex.smcp" horiz-adv-x="798" 
d="M777 539l-180 -539h-62l-127 384l-9 36l-9 -36l-127 -384h-61l-181 539h68l136 -399l9 -39l9 39l130 399h53l130 -399l8 -39l11 39l134 399h68zM416 762l134 -158h-73l-78 99l-79 -99h-73l134 158h35z" />
    <glyph glyph-name="Wdieresis.smcp" horiz-adv-x="798" 
d="M777 539l-180 -539h-62l-127 384l-9 36l-9 -36l-127 -384h-61l-181 539h68l136 -399l9 -39l9 39l130 399h53l130 -399l8 -39l11 39l134 399h68zM342 694q13 -14 13 -33t-13 -32t-32 -13t-32 13q-14 13 -14 32t14 33q13 13 32 13t32 -13zM520 694q13 -14 13 -33t-13 -32
t-32 -13t-32 13q-14 13 -14 32t14 33q13 13 32 13t32 -13z" />
    <glyph glyph-name="Wgrave.smcp" horiz-adv-x="798" 
d="M777 539l-180 -539h-62l-127 384l-9 36l-9 -36l-127 -384h-61l-181 539h68l136 -399l9 -39l9 39l130 399h53l130 -399l8 -39l11 39l134 399h68zM312 762l122 -158h-66l-137 158h81z" />
    <glyph glyph-name="Yacute.smcp" horiz-adv-x="546" 
d="M528 539l-223 -334v-205h-65v205l-223 334h75l159 -236l22 -36l22 36l158 236h75zM434 762l-137 -158h-66l122 158h81z" />
    <glyph glyph-name="Ycircumflex.smcp" horiz-adv-x="546" 
d="M528 539l-223 -334v-205h-65v205l-223 334h75l159 -236l22 -36l22 36l158 236h75zM289 762l134 -158h-73l-78 99l-79 -99h-73l134 158h35z" />
    <glyph glyph-name="Ydieresis.smcp" horiz-adv-x="546" 
d="M528 539l-223 -334v-205h-65v205l-223 334h75l159 -236l22 -36l22 36l158 236h75zM214 694q13 -14 13 -33t-13 -32t-32 -13t-32 13q-14 13 -14 32t14 33q13 13 32 13t32 -13zM392 694q13 -14 13 -33t-13 -32t-32 -13t-32 13q-14 13 -14 32t14 33q13 13 32 13t32 -13z" />
    <glyph glyph-name="Ygrave.smcp" horiz-adv-x="546" 
d="M528 539l-223 -334v-205h-65v205l-223 334h75l159 -236l22 -36l22 36l158 236h75zM185 762l122 -158h-66l-137 158h81z" />
    <glyph glyph-name="Zacute.smcp" horiz-adv-x="482" 
d="M439 539v-52l-320 -426h329v-61h-413v52l321 426h-318v61h401zM413 762l-137 -158h-66l122 158h81z" />
    <glyph glyph-name="Zcaron.smcp" horiz-adv-x="482" 
d="M401 750l-134 -158h-35l-134 158h73l79 -99l78 99h73zM439 539v-52l-320 -426h329v-61h-413v52l321 426h-318v61h401z" />
  </font>
</defs>
</svg>
