<?xml version="1.0" standalone="no"?>
<!DOCTYPE svg PUBLIC "-//W3C//DTD SVG 1.1//EN" "http://www.w3.org/Graphics/SVG/1.1/DTD/svg11.dtd" >
<svg xmlns="http://www.w3.org/2000/svg" xmlns:xlink="http://www.w3.org/1999/xlink" version="1.1">
<metadata>
Created by FontForge 20170731 at Thu Aug 13 07:49:49 2015
 By ,,,
Copyright (c) 2013 by Type Dynamic. All rights reserved. wf-rip
</metadata>
<defs>
<font id="Larsseit-Medium" horiz-adv-x="524" >
  <font-face 
    font-family="Larsseit Medium"
    font-weight="500"
    font-stretch="normal"
    units-per-em="2048"
    panose-1="0 0 0 0 0 0 0 0 0 0"
    ascent="1569"
    descent="-479"
    x-height="1036"
    cap-height="1434"
    bbox="-131 -471 2128 1884"
    underline-thickness="102"
    underline-position="-816"
    unicode-range="U+0020-FB01"
  />
<missing-glyph horiz-adv-x="748" 
d="M68 0v1365h544v-1365h-544zM136 68h408v1229h-408v-1229z" />
    <glyph glyph-name="uniFB01" unicode="fi" horiz-adv-x="1212" 
d="M25 838v198h182v135q0 166 85.5 255.5t244.5 89.5q69 0 127 -23v-195q-64 23 -117 23q-121 0 -121 -156v-129h238v-198h-238v-838h-219v838h-182zM809 1346q0 60 39.5 99.5t99.5 39.5t101 -41t41 -98t-41 -96.5t-101 -39.5t-99.5 39.5t-39.5 96.5zM840 0v1036h217v-1036
h-217z" />
    <glyph glyph-name=".notdef" horiz-adv-x="748" 
d="M68 0v1365h544v-1365h-544zM136 68h408v1229h-408v-1229z" />
    <glyph glyph-name="glyph1" horiz-adv-x="0" 
 />
    <glyph glyph-name="glyph2" horiz-adv-x="682" 
 />
    <glyph glyph-name="space" unicode=" " horiz-adv-x="413" 
 />
    <glyph glyph-name="exclam" unicode="!" 
d="M117 121q0 62 41 100q43 41 104.5 41t104.5 -41q43 -38 43 -100t-43 -103t-104.5 -41t-104.5 41q-41 41 -41 103zM154 422v1012h217v-1012h-217z" />
    <glyph glyph-name="quotedbl" unicode="&#x22;" horiz-adv-x="679" 
d="M72 1491h204l-47 -438h-141zM416 1491h205l-48 -438h-141z" />
    <glyph glyph-name="numbersign" unicode="#" horiz-adv-x="1366" 
d="M31 344v203h256l65 377h-227v202h264l53 308h217l-53 -308h293l53 308h217l-53 -308h219v-202h-256l-65 -377h227v-203h-264l-59 -344h-218l60 344h-293l-59 -344h-218l60 344h-219zM504 547h293l65 377h-293z" />
    <glyph glyph-name="dollar" unicode="$" horiz-adv-x="1132" 
d="M94 430h232q5 -123 71 -188.5t187 -65.5q107 0 167 55.5t60 149.5q0 81 -63 133t-218 104q-202 69 -303 166q-96 96 -96 265q0 163 97.5 275t263.5 132v191h165v-193q157 -25 245 -129.5t95 -280.5h-233q-1 99 -57.5 155t-149.5 56q-91 0 -143 -50t-52 -138
q0 -87 58 -133q57 -45 213 -105q222 -76 315 -176q94 -94 94 -256q0 -175 -104.5 -285.5t-280.5 -131.5v-193h-165v193q-188 23 -290.5 142t-107.5 308z" />
    <glyph glyph-name="percent" unicode="%" horiz-adv-x="1765" 
d="M55 1100q0 157 101 258q102 102 254 102q147 0 249 -102q101 -101 101 -258q0 -155 -101 -256q-103 -103 -249 -103q-153 0 -254 101t-101 258zM236 1100q0 -80 49.5 -133.5t122.5 -53.5t121.5 53.5t48.5 133.5q0 82 -47.5 135t-122.5 53t-123.5 -53t-48.5 -135zM356 0
l820 1434h233l-819 -1434h-234zM1006 330q0 158 100 258q101 104 254 104q149 0 250 -104q102 -102 102 -258q0 -154 -102 -256q-101 -101 -250 -101q-153 0 -254 101q-100 100 -100 256zM1186 332q0 -80 49.5 -133.5t124.5 -53.5q73 0 121.5 53.5t48.5 133.5t-48.5 134
t-121.5 54q-75 0 -124.5 -54t-49.5 -134z" />
    <glyph glyph-name="ampersand" unicode="&#x26;" horiz-adv-x="1343" 
d="M76 383q0 130 66 218.5t204 168.5l12 8l-32 37q-133 145 -133 297q0 156 104 252t281 96q169 0 278 -92t109 -248q0 -149 -88 -237q-45 -45 -83.5 -73.5t-105.5 -66.5l-4 -2l260 -282l12 55q21 118 0 231l211 11q21 -135 2 -271q-18 -107 -65 -200l262 -285h-295
l-102 111q-156 -138 -391 -138q-233 0 -367.5 109.5t-134.5 300.5zM309 389q0 -107 73.5 -164t203.5 -57q148 0 248 92l-340 371h-2q-96 -57 -139.5 -111.5t-43.5 -130.5zM420 1112q0 -36 16 -76q18 -35 33.5 -55.5t54.5 -62.5l25 -29l4 2q4 3 29.5 17.5t29.5 17.5
q5 4 28 18.5t28 18.5q37 37 53 66.5t16 78.5q0 69 -43 113.5t-112 44.5t-115.5 -43.5t-46.5 -110.5z" />
    <glyph glyph-name="quotesingle" unicode="'" horiz-adv-x="335" 
d="M72 1491h204l-47 -438h-141z" />
    <glyph glyph-name="parenleft" unicode="(" horiz-adv-x="581" 
d="M92 657q0 251 77.5 454t238.5 402l155 -106q-140 -185 -203 -352q-61 -168 -61 -398q0 -228 61 -399q63 -166 203 -350l-155 -107q-161 199 -238.5 402t-77.5 454z" />
    <glyph glyph-name="parenright" unicode=")" horiz-adv-x="581" 
d="M18 -92q141 182 201 348q64 171 64 401q0 232 -64 400q-60 167 -201 350l156 106q161 -203 239.5 -405.5t78.5 -450.5t-78.5 -450.5t-239.5 -405.5z" />
    <glyph glyph-name="asterisk" unicode="*" horiz-adv-x="729" 
d="M18 1200l50 150l223 -80l-6 241h157l-6 -241l221 82l52 -150l-228 -69l148 -193l-127 -92l-137 194l-136 -194l-127 92l144 188z" />
    <glyph glyph-name="plus" unicode="+" horiz-adv-x="966" 
d="M61 618v195h324v326h197v-326h323v-195h-323v-323h-197v323h-324z" />
    <glyph glyph-name="comma" unicode="," horiz-adv-x="425" 
d="M74 121q0 57 39.5 96t99.5 39q61 0 100 -42t39 -110q0 -191 -157 -374l-68 24q56 103 68 234q-55 6 -88 42t-33 91z" />
    <glyph glyph-name="hyphen" unicode="-" horiz-adv-x="747" 
d="M51 434v195h645v-195h-645z" />
    <glyph glyph-name="period" unicode="." horiz-adv-x="432" 
d="M72 121q0 62 41 100q41 41 102 41t102 -41q43 -38 43 -100t-43 -103q-41 -41 -102 -41t-102 41t-41 103z" />
    <glyph glyph-name="slash" unicode="/" horiz-adv-x="815" 
d="M10 0l580 1434h215l-580 -1434h-215z" />
    <glyph glyph-name="zero" unicode="0" horiz-adv-x="1155" 
d="M84 719q0 343 129 543q128 198 365 198q236 0 364 -198q129 -200 129 -543q0 -347 -129 -547q-129 -199 -364 -199q-236 0 -365 199q-129 200 -129 547zM317 719q0 -255 66.5 -393t194.5 -138t194 138t66 393q0 253 -66 389.5t-194 136.5t-194.5 -136.5t-66.5 -389.5z
" />
    <glyph glyph-name="one" unicode="1" horiz-adv-x="739" 
d="M59 1051v194q170 0 252.5 42.5t108.5 146.5h172v-1434h-230v1051h-303z" />
    <glyph glyph-name="two" unicode="2" horiz-adv-x="1007" 
d="M88 1010q-3 206 115 327q117 123 313 123t304 -108.5t108 -296.5q0 -113 -43 -210t-133 -208l-336 -422h526v-215h-844v168l451 555q82 100 114.5 168.5t32.5 152.5q0 201 -184 201q-93 0 -144.5 -59.5t-50.5 -175.5h-229z" />
    <glyph glyph-name="three" unicode="3" horiz-adv-x="1101" 
d="M84 424h229q1 -116 65.5 -176t176.5 -60q100 0 160.5 60t60.5 160q0 114 -76.5 173.5t-218.5 59.5h-63v201h61q129 0 189.5 48t60.5 152q0 95 -49 149t-139 54q-89 0 -144 -59t-55 -168h-229q0 204 115.5 323t310.5 119t309 -117q113 -113 113 -292q0 -116 -54 -195.5
t-137 -110.5q106 -31 173 -121t67 -225q0 -191 -127 -309q-126 -117 -334 -117q-217 0 -341 119t-124 332z" />
    <glyph glyph-name="four" unicode="4" horiz-adv-x="1138" 
d="M53 276v187l551 971h281v-951h192v-207h-192v-276h-232v276h-600zM299 481h358v647l-41 -84z" />
    <glyph glyph-name="five" unicode="5" horiz-adv-x="1099" 
d="M111 403h231q1 -107 60.5 -161t164.5 -54q107 0 167.5 71.5t60.5 191.5q0 118 -62 184.5t-172 66.5q-116 0 -205 -59h-204v791h800v-215h-567v-357q83 47 215 47q194 0 310 -118t116 -330q0 -221 -125 -355q-124 -133 -336 -133q-213 0 -333.5 112.5t-120.5 317.5z" />
    <glyph glyph-name="six" unicode="6" horiz-adv-x="1130" 
d="M94 684q0 390 123 583t379 193q182 0 299 -114q118 -112 127 -299h-234q-15 198 -200 198q-129 0 -193.5 -114.5t-68.5 -362.5q43 56 118.5 90.5t163.5 34.5q201 0 322 -127t121 -322q0 -210 -129 -342q-126 -129 -332 -129q-222 0 -350 146q-146 172 -146 565zM340 442
q0 -103 68 -180q69 -78 174 -78q103 0 168 72.5t65 183.5q0 107 -65.5 177.5t-167.5 70.5q-100 0 -170 -67q-69 -66 -72 -168v-11z" />
    <glyph glyph-name="seven" unicode="7" horiz-adv-x="1017" 
d="M76 1217v217h870v-187l-553 -1247h-250l541 1217h-608z" />
    <glyph glyph-name="eight" unicode="8" horiz-adv-x="1128" 
d="M94 401q0 121 57.5 208.5t151.5 125.5q-71 41 -117.5 123t-46.5 189q0 172 117 292q121 121 309 121q186 0 307 -121q119 -119 119 -292q0 -107 -47.5 -190t-118.5 -122q93 -45 151 -129t58 -205q0 -184 -135 -307q-136 -121 -334 -121q-200 0 -336 121
q-135 123 -135 307zM326 408q0 -101 68.5 -162.5t170.5 -61.5t169 61.5t67 162.5t-68 164t-168 63q-102 0 -170.5 -63t-68.5 -164zM365 1040q0 -92 54.5 -147t145.5 -55q89 0 144 55t55 147t-56 149.5t-143 57.5q-91 0 -145.5 -56.5t-54.5 -150.5z" />
    <glyph glyph-name="nine" unicode="9" horiz-adv-x="1130" 
d="M78 989q0 210 127 340q128 131 334 131q223 0 350 -145q145 -171 145 -565q0 -390 -123 -583.5t-379 -193.5q-182 0 -301 113q-116 113 -125 301h234q15 -199 201 -199q129 0 193.5 114t68.5 362q-42 -55 -118 -89t-165 -34q-204 0 -323 125t-119 323zM313 993
q0 -106 66 -177t168 -71q100 0 170 70q71 71 71 176q0 104 -67 180q-69 78 -174 78q-103 0 -168.5 -72.5t-65.5 -183.5z" />
    <glyph glyph-name="colon" unicode=":" horiz-adv-x="432" 
d="M72 121q0 62 41 100q41 41 102 41t102 -41q43 -38 43 -100t-43 -103q-41 -41 -102 -41t-102 41t-41 103zM72 913q0 62 41 104t102 42t103 -42t42 -104q0 -60 -41.5 -100.5t-103.5 -40.5q-61 0 -102 40.5t-41 100.5z" />
    <glyph glyph-name="semicolon" unicode=";" horiz-adv-x="432" 
d="M72 913q0 62 41 104t102 42t103 -42t42 -104q0 -60 -41.5 -100.5t-103.5 -40.5q-61 0 -102 40.5t-41 100.5zM76 121q0 57 39.5 96t99.5 39q61 0 101 -42t40 -110q0 -192 -159 -374l-66 24q53 95 68 234q-55 6 -89 42t-34 91z" />
    <glyph glyph-name="less" unicode="&#x3c;" horiz-adv-x="552" 
d="M25 496v34l290 383h211l-301 -401l301 -399h-211z" />
    <glyph glyph-name="equal" unicode="=" horiz-adv-x="966" 
d="M61 408v192h844v-192h-844zM61 831v191h844v-191h-844z" />
    <glyph glyph-name="greater" unicode="&#x3e;" horiz-adv-x="552" 
d="M25 113l303 399l-303 401h213l288 -383v-34l-288 -383h-213z" />
    <glyph glyph-name="question" unicode="?" horiz-adv-x="876" 
d="M6 1053q3 195 121 301q119 110 301 110q180 0 299 -104q121 -106 121 -289q0 -95 -31.5 -176.5t-81.5 -134.5q-21 -22 -56 -54.5t-58 -55t-47 -51t-36 -57.5t-12 -59v-61h-219v70q0 72 32 135t85 108q10 9 48 42.5t52 47.5t42 46.5t40 57t22.5 61t10.5 75.5
q0 104 -56 162.5t-151 58.5q-103 0 -161 -60.5t-58 -172.5h-207zM272 121q0 62 41 100q43 41 104.5 41t102.5 -41q43 -38 43 -100t-43 -103q-41 -41 -102.5 -41t-104.5 41q-41 41 -41 103z" />
    <glyph glyph-name="at" unicode="@" horiz-adv-x="1673" 
d="M74 492q0 337 211 548q213 213 555 213q345 0 551 -215q208 -214 208 -546q0 -217 -94 -318q-91 -102 -221 -102q-159 0 -217 125q-100 -127 -281 -127q-170 0 -276 118q-107 119 -107 301q0 183 107 302q108 120 270 120q184 0 264 -139l11 121h159v-569q0 -61 21.5 -89
t71.5 -28q143 0 143 285q0 270 -168 444q-167 176 -442 176q-283 0 -451 -174t-168 -446q0 -275 168 -449t451 -174q150 0 278 61l49 -135q-142 -65 -327 -65q-345 0 -557 215q-209 212 -209 547zM592 489q0 -110 61 -178.5t158 -68.5q96 0 160.5 62.5t64.5 168.5v29
q0 109 -65 175t-156 66q-100 0 -161.5 -70.5t-61.5 -183.5z" />
    <glyph glyph-name="A" unicode="A" horiz-adv-x="1445" 
d="M33 0l567 1434h246l567 -1434h-252l-137 350h-604l-135 -350h-252zM496 557h454l-202 512l-27 78l-27 -78z" />
    <glyph glyph-name="B" unicode="B" horiz-adv-x="1193" 
d="M154 0v1434h424q213 0 336.5 -107.5t123.5 -290.5q0 -186 -141 -288q107 -42 166 -128t59 -204q0 -190 -131 -303q-128 -113 -348 -113h-489zM383 215h260q113 0 177.5 54.5t64.5 152.5q0 96 -64.5 149.5t-177.5 53.5h-260v-410zM383 829h201q100 0 159.5 52.5
t59.5 138.5q0 96 -59 147.5t-166 51.5h-195v-390z" />
    <glyph glyph-name="C" unicode="C" horiz-adv-x="1499" 
d="M78 717q0 319 201 532q199 211 512 211q253 0 419.5 -123t227.5 -346h-254q-91 254 -393 254q-209 0 -340 -149q-132 -147 -132 -379q0 -229 132 -379t344 -150q154 0 255.5 70t145.5 195h246q-62 -231 -227 -355.5t-420 -124.5q-314 0 -516 211q-201 213 -201 533z" />
    <glyph glyph-name="D" unicode="D" horiz-adv-x="1497" 
d="M154 0v1434h524q333 0 532 -199q201 -198 201 -518q0 -322 -201 -520q-200 -197 -532 -197h-524zM383 215h295q234 0 366 132.5t132 369.5t-131.5 369.5t-366.5 132.5h-295v-1004z" />
    <glyph glyph-name="E" unicode="E" horiz-adv-x="1052" 
d="M154 0v1434h804v-215h-575v-375h502v-213h-502v-416h575v-215h-804z" />
    <glyph glyph-name="F" unicode="F" horiz-adv-x="995" 
d="M154 0v1434h790v-215h-561v-394h477v-215h-477v-610h-229z" />
    <glyph glyph-name="G" unicode="G" horiz-adv-x="1552" 
d="M78 717q0 319 201 532q199 211 512 211q253 0 419.5 -123t227.5 -346h-254q-91 254 -396 254q-206 0 -337 -149q-132 -147 -132 -379q0 -229 132 -379t346 -150q186 0 295 91t116 260h-389v215h633v-111q0 -313 -178 -491q-176 -179 -477 -179q-316 0 -518 211
q-201 213 -201 533z" />
    <glyph glyph-name="H" unicode="H" horiz-adv-x="1458" 
d="M154 0v1434h229v-584h692v584h230v-1434h-230v633h-692v-633h-229z" />
    <glyph glyph-name="I" unicode="I" horiz-adv-x="536" 
d="M154 0v1434h229v-1434h-229z" />
    <glyph glyph-name="J" unicode="J" horiz-adv-x="1052" 
d="M53 453h230q12 -256 215 -256q92 0 141 61.5t49 177.5v998h230v-1010q0 -216 -108.5 -329t-311.5 -113q-216 0 -327.5 122.5t-117.5 348.5z" />
    <glyph glyph-name="K" unicode="K" horiz-adv-x="1384" 
d="M162 0v1434h229v-772l565 772h283l-467 -637l578 -797h-277l-457 612l-225 -286v-326h-229z" />
    <glyph glyph-name="L" unicode="L" horiz-adv-x="1048" 
d="M152 0v1434h229v-1219h620v-215h-849z" />
    <glyph glyph-name="M" unicode="M" horiz-adv-x="1806" 
d="M154 0v1434h258l454 -994l35 -88l39 88l455 994h260v-1434h-230v995l-41 -116l-387 -879h-190l-385 879l-39 116v-995h-229z" />
    <glyph glyph-name="N" unicode="N" horiz-adv-x="1474" 
d="M154 0v1434h225l653 -953l62 -96v1049h229v-1434h-227l-658 954l-55 90v-1044h-229z" />
    <glyph glyph-name="O" unicode="O" horiz-adv-x="1632" 
d="M78 719q0 320 207 530q208 211 532 211t529 -211q206 -209 206 -530q0 -323 -206 -535q-205 -211 -529 -211t-532 211q-207 213 -207 535zM319 719q0 -231 138 -381t360 -150q221 0 359 150q137 149 137 381q0 231 -137 377q-137 149 -359 149q-223 0 -360 -149
q-138 -147 -138 -377z" />
    <glyph glyph-name="P" unicode="P" horiz-adv-x="1128" 
d="M154 0v1434h440q221 0 352 -125q133 -127 133 -326q0 -197 -133 -324q-131 -122 -352 -122h-211v-537h-229zM383 752h211q116 0 184 61.5t68 169.5q0 110 -67.5 173t-184.5 63h-211v-467z" />
    <glyph glyph-name="Q" unicode="Q" horiz-adv-x="1622" 
d="M78 719q0 320 207 530q208 211 532 211t529 -211q206 -209 206 -530q0 -357 -241 -567l362 -365h-319l-242 242q-145 -56 -295 -56q-324 0 -532 211q-207 213 -207 535zM319 719q0 -231 138 -381t360 -150q59 0 119 13l-244 239h322l133 -129q166 150 166 408
q0 231 -137 377q-137 149 -359 149q-223 0 -360 -149q-138 -147 -138 -377z" />
    <glyph glyph-name="R" unicode="R" horiz-adv-x="1153" 
d="M154 0v1434h413q221 0 353 -123q133 -121 133 -320q0 -136 -68.5 -238.5t-191.5 -152.5l321 -600h-262l-299 561h-170v-561h-229zM383 766h184q117 0 184.5 59t67.5 166q0 108 -67 168t-185 60h-184v-453z" />
    <glyph glyph-name="S" unicode="S" horiz-adv-x="1101" 
d="M80 430h231q5 -123 71 -188.5t187 -65.5q107 0 167.5 55.5t60.5 149.5q0 81 -63 133t-218 104q-202 69 -303 166q-96 96 -96 265q0 181 116 294q117 117 316 117q198 0 312.5 -107.5t121.5 -308.5h-233q-1 99 -57.5 155t-149.5 56q-91 0 -143 -50t-52 -138q0 -87 58 -133
t212 -105q224 -76 316 -176q94 -94 94 -256q0 -197 -129 -311q-128 -113 -332 -113q-229 0 -355.5 122.5t-131.5 334.5z" />
    <glyph glyph-name="T" unicode="T" horiz-adv-x="1251" 
d="M23 1219v215h1206v-215h-490v-1219h-229v1219h-487z" />
    <glyph glyph-name="U" unicode="U" horiz-adv-x="1413" 
d="M135 571v863h230v-863q0 -383 342 -383q340 0 340 383v863h231v-863q0 -287 -149.5 -442.5t-421.5 -155.5t-422 156t-150 442z" />
    <glyph glyph-name="V" unicode="V" horiz-adv-x="1411" 
d="M29 1434h245l402 -1020l29 -97l30 97l402 1020h245l-569 -1434h-213z" />
    <glyph glyph-name="W" unicode="W" horiz-adv-x="2035" 
d="M35 1434h244l303 -983l22 -105l21 105l290 983h205l293 -983l19 -105l22 105l305 983h242l-447 -1434h-235l-279 918l-22 96l-21 -96l-278 -918h-238z" />
    <glyph glyph-name="X" unicode="X" horiz-adv-x="1415" 
d="M51 0l500 729l-481 705h272l365 -531l368 531h273l-484 -705l502 -729h-272l-387 557l-383 -557h-273z" />
    <glyph glyph-name="Y" unicode="Y" horiz-adv-x="1392" 
d="M25 1434h268l350 -555l51 -97l54 97l352 555h268l-555 -895v-539h-233v539z" />
    <glyph glyph-name="Z" unicode="Z" horiz-adv-x="1218" 
d="M80 0v186l745 1033h-739v215h1030v-187l-739 -1032h766v-215h-1063z" />
    <glyph glyph-name="bracketleft" unicode="[" horiz-adv-x="626" 
d="M143 -158v1624h432v-198h-225v-1227h225v-199h-432z" />
    <glyph glyph-name="backslash" unicode="\" horiz-adv-x="815" 
d="M10 1434h215l580 -1434h-215z" />
    <glyph glyph-name="bracketright" unicode="]" horiz-adv-x="626" 
d="M51 41h225v1227h-225v198h432v-1624h-432v199z" />
    <glyph glyph-name="asciicircum" unicode="^" horiz-adv-x="1103" 
d="M35 946l516 615l518 -615h-227l-291 346l-287 -346h-229z" />
    <glyph glyph-name="underscore" unicode="_" horiz-adv-x="1300" 
d="M51 0h1198v-195h-1198v195z" />
    <glyph glyph-name="grave" unicode="`" horiz-adv-x="538" 
d="M20 1499h275l223 -323h-194z" />
    <glyph glyph-name="a" unicode="a" horiz-adv-x="1032" 
d="M88 272q0 248 303 306l295 53v47q0 186 -170 186q-81 0 -133.5 -45t-52.5 -119h-211q6 154 114 256q109 103 283 103q184 0 286.5 -97.5t102.5 -279.5v-682h-192l-11 135q-93 -158 -305 -158q-140 0 -224.5 79.5t-84.5 215.5zM307 283q0 -54 37.5 -85.5t104.5 -31.5
q125 0 188 100q49 70 49 164v37l-248 -53q-131 -27 -131 -131z" />
    <glyph glyph-name="b" unicode="b" horiz-adv-x="1247" 
d="M150 0v1495h217v-588q46 68 132 110t195 42q213 0 348 -156q136 -154 136 -385q0 -230 -136 -387q-136 -154 -346 -154q-229 0 -342 168l-16 -145h-188zM362 510q0 -150 87 -240q88 -88 208 -88q131 0 214 93.5t83 242.5q0 147 -84 240.5t-215 93.5q-115 0 -204 -92
q-89 -89 -89 -240v-10z" />
    <glyph glyph-name="c" unicode="c" horiz-adv-x="1126" 
d="M70 516q0 237 143 389q145 154 367 154q186 0 311.5 -96t157.5 -271h-213q-26 79 -92.5 122.5t-159.5 43.5q-123 0 -207 -96q-82 -94 -82 -246q0 -148 82 -242q84 -96 211 -96q90 0 157.5 45t90.5 119h215q-38 -174 -164 -269.5t-307 -95.5q-223 0 -367 150
q-143 149 -143 389z" />
    <glyph glyph-name="d" unicode="d" horiz-adv-x="1247" 
d="M70 518q0 232 135 385q138 156 348 156q221 0 330 -152v588h217v-1495h-191l-14 145q-116 -168 -344 -168q-210 0 -346 154q-135 156 -135 387zM295 518q0 -149 82 -242.5t213 -93.5q122 0 207 88q88 88 88 240v10q0 152 -88 240q-89 92 -205 92q-130 0 -213.5 -93.5
t-83.5 -240.5z" />
    <glyph glyph-name="e" unicode="e" horiz-adv-x="1138" 
d="M70 516q0 238 139 389q139 154 366 154q218 0 347 -139.5t129 -393.5v-84h-756q7 -124 86 -198t201 -74q188 0 247 147h213q-50 -163 -169.5 -251.5t-297.5 -88.5q-224 0 -366 148q-139 148 -139 391zM297 612h534q-1 117 -71.5 186.5t-186.5 69.5t-190.5 -71t-85.5 -185
z" />
    <glyph glyph-name="f" unicode="f" horiz-adv-x="704" 
d="M31 838v198h176v135q0 166 88 255.5t252 89.5q79 0 137 -23v-195q-64 23 -117 23q-141 0 -141 -156v-129h248v-198h-248v-838h-219v838h-176z" />
    <glyph glyph-name="g" unicode="g" horiz-adv-x="1048" 
d="M74 260q0 134 106 215q-67 94 -67 213q0 163 112 266q114 105 295 105q71 0 148 -23h383v-188h-166q35 -78 35 -160q0 -157 -111 -262q-111 -102 -289 -102q-111 0 -201 41q-32 -32 -32 -89q0 -44 32 -70t87 -26h260q160 0 245.5 -75.5t85.5 -213.5q0 -166 -118.5 -260
t-323.5 -94q-222 0 -341.5 83t-119.5 237q0 121 111 186q-131 76 -131 217zM309 -129q0 -77 64 -117.5t182 -40.5q229 0 229 166q0 125 -168 125h-178q-59 -5 -94 -39t-35 -94zM326 688q0 -83 53.5 -136.5t138.5 -53.5t138 53.5t53 136.5q0 86 -52.5 139.5t-138.5 53.5
q-87 0 -139.5 -53t-52.5 -140z" />
    <glyph glyph-name="h" unicode="h" horiz-adv-x="1107" 
d="M150 0v1495h217v-580q79 144 272 144q159 0 247.5 -104t88.5 -283v-672h-219v629q0 105 -45.5 161t-130.5 56q-96 0 -154.5 -78.5t-58.5 -216.5v-551h-217z" />
    <glyph glyph-name="i" unicode="i" 
d="M123 1346q0 59 40.5 99t98.5 40h9q39 0 71 -23q36 -26 50 -64q11 -26 11 -54q0 -14 -2 -26q-7 -42 -39 -69q-30 -31 -74 -37q-13 -2 -26 -2q-28 0 -54 10q-38 14 -64 49q-22 29 -22 66q0 5 1 11zM154 0v1036h217v-1036h-217z" />
    <glyph glyph-name="j" unicode="j" 
d="M-109 -248q56 -16 115 -16q78 0 113 46t35 142v1112h217v-1118q0 -381 -328 -381q-93 0 -152 19v196zM123 1346q0 59 40.5 99t98.5 40h9q39 0 71 -23q35 -26 50 -64q11 -25 11 -54q0 -12 -2 -26q-7 -42 -39 -69q-30 -30 -74 -37q-13 -2 -26 -2q-29 0 -54 10
q-38 15 -64 49q-22 29 -22 66q0 5 1 11z" />
    <glyph glyph-name="k" unicode="k" horiz-adv-x="1060" 
d="M158 0v1495h217v-915l348 456h262l-319 -432l372 -604h-247l-279 436l-137 -170v-266h-217z" />
    <glyph glyph-name="l" unicode="l" 
d="M154 0v1495h217v-1495h-217z" />
    <glyph glyph-name="m" unicode="m" horiz-adv-x="1705" 
d="M150 0v1036h188l16 -139q40 74 113 118t168 44q223 0 299 -193q102 193 307 193q159 0 245.5 -103t86.5 -284v-672h-217v629q0 217 -174 217q-95 0 -154 -78.5t-59 -216.5v-551h-217v629q0 217 -174 217q-95 0 -153 -78t-58 -217v-551h-217z" />
    <glyph glyph-name="n" unicode="n" horiz-adv-x="1107" 
d="M150 0v1036h188l16 -139q39 74 113.5 118t171.5 44q159 0 247.5 -104t88.5 -283v-672h-219v629q0 105 -45.5 161t-130.5 56q-96 0 -154.5 -78.5t-58.5 -216.5v-551h-217z" />
    <glyph glyph-name="o" unicode="o" horiz-adv-x="1206" 
d="M70 518q0 240 149 389q152 152 383 152t383 -152t152 -389t-152 -389t-383 -152t-383 152q-149 149 -149 389zM295 518q0 -149 86 -244q87 -96 223 -96q137 0 221 96q86 95 86 244t-86 244q-84 96 -221 96q-136 0 -223 -96q-86 -95 -86 -244z" />
    <glyph glyph-name="p" unicode="p" horiz-adv-x="1259" 
d="M160 -440v1476h190l15 -147q114 170 342 170q213 0 348 -156q135 -153 135 -385t-137 -387q-136 -154 -346 -154q-112 0 -198 41.5t-130 110.5v-569h-219zM373 514q3 -151 88 -242q90 -90 205 -90q131 0 213 94q86 95 86 242q0 149 -83 242.5t-214 93.5q-117 0 -207 -90
q-88 -88 -88 -238v-12z" />
    <glyph glyph-name="q" unicode="q" horiz-adv-x="1259" 
d="M70 518q0 232 135 385q135 156 346 156q224 0 344 -170l14 147h191v-1476h-217v569q-109 -152 -330 -152q-209 0 -348 154q-135 156 -135 387zM295 518q0 -147 84 -241.5t213 -94.5q115 0 205 90q88 91 88 242v12q0 150 -88 238q-90 90 -207 90q-131 0 -213 -93.5
t-82 -242.5z" />
    <glyph glyph-name="r" unicode="r" horiz-adv-x="722" 
d="M158 0v1036h190l19 -176q31 84 109 135.5t196 51.5v-220q-129 0 -207 -69q-87 -72 -90 -219v-539h-217z" />
    <glyph glyph-name="s" unicode="s" horiz-adv-x="921" 
d="M74 313h219q1 -72 47.5 -111.5t128.5 -39.5q74 0 115 32.5t41 88.5q0 61 -43 92.5t-160 56.5q-169 36 -246.5 107t-77.5 194q0 135 95 230q96 96 266 96q153 0 254 -90q101 -88 104 -238h-217q-3 141 -145 141q-65 0 -101.5 -32.5t-36.5 -87.5q0 -56 39.5 -84.5
t149.5 -53.5q183 -36 260.5 -108.5t77.5 -202.5q0 -152 -105 -239t-274 -87q-181 0 -283.5 89.5t-107.5 246.5z" />
    <glyph glyph-name="t" unicode="t" horiz-adv-x="743" 
d="M25 836v200h182l2 254h219l-2 -254h252v-200h-254l-4 -492q0 -87 31 -123.5t110 -36.5q61 0 117 17v-193q-61 -22 -160 -22q-161 0 -238.5 75.5t-76.5 235.5l4 539h-182z" />
    <glyph glyph-name="u" unicode="u" horiz-adv-x="1101" 
d="M135 365v671h217v-628q0 -220 174 -220q94 0 151.5 75t57.5 206v567h217v-1036h-190l-14 139q-79 -162 -281 -162q-161 0 -246.5 103t-85.5 285z" />
    <glyph glyph-name="v" unicode="v" horiz-adv-x="1040" 
d="M27 1036h233l240 -694l20 -84l21 84l241 694h234l-385 -1036h-219z" />
    <glyph glyph-name="w" unicode="w" horiz-adv-x="1585" 
d="M27 1036h233l189 -678l20 -102l23 102l206 678h189l207 -678l22 -102l21 102l188 678h234l-322 -1036h-223l-223 680l-228 -680h-215z" />
    <glyph glyph-name="x" unicode="x" horiz-adv-x="1067" 
d="M41 0l344 530l-326 506h254l219 -336l222 336h254l-326 -506l344 -530h-256l-238 362l-235 -362h-256z" />
    <glyph glyph-name="y" unicode="y" horiz-adv-x="1048" 
d="M27 1036h233l240 -694l20 -84l21 84l241 694h234l-549 -1476h-227l166 454z" />
    <glyph glyph-name="z" unicode="z" horiz-adv-x="958" 
d="M72 0v164l512 680h-508v192h798v-166l-512 -677h541v-193h-831z" />
    <glyph glyph-name="braceleft" unicode="{" horiz-adv-x="626" 
d="M31 559v191h30q134 0 134 147v229q0 162 84 251t243 89h53v-198h-47q-133 0 -133 -148v-256q0 -165 -125 -211q125 -46 125 -209v-256q0 -147 133 -147h47v-199h-53q-159 0 -243 89t-84 251v230q0 147 -134 147h-30z" />
    <glyph glyph-name="bar" unicode="|" horiz-adv-x="466" 
d="M133 -137v1624h205v-1624h-205z" />
    <glyph glyph-name="braceright" unicode="}" horiz-adv-x="626" 
d="M51 41h47q133 0 133 147v256q0 163 125 209q-125 46 -125 211v256q0 148 -133 148h-47v198h53q160 0 245 -89.5t85 -250.5v-229q0 -147 133 -147h29v-191h-29q-133 0 -133 -147v-230q0 -161 -85 -250.5t-245 -89.5h-53v199z" />
    <glyph glyph-name="asciitilde" unicode="~" horiz-adv-x="1165" 
d="M47 625q82 290 332 290q68 0 129 -28t96 -68q94 -94 187 -94q132 0 178 168l149 -70q-82 -291 -332 -291q-67 0 -127 27.5t-100 67.5q-92 96 -184 96q-129 0 -178 -168z" />
    <glyph glyph-name="uni00A0" unicode="&#xa0;" horiz-adv-x="413" 
 />
    <glyph glyph-name="exclamdown" unicode="&#xa1;" 
d="M113 911.5q0 61.5 43 102.5t104 41t102 -41q43 -41 43 -102.5t-43 -102.5q-41 -38 -102 -38t-104 38q-43 41 -43 102.5zM152 -401v1011h217v-1011h-217z" />
    <glyph glyph-name="cent" unicode="&#xa2;" horiz-adv-x="1126" 
d="M70 516q0 216 118 361q122 149 312 176v194h168v-194q152 -24 252 -117t129 -244h-213q-26 79 -92.5 122.5t-159.5 43.5q-123 0 -207 -96q-82 -94 -82 -246q0 -148 82 -242q84 -96 211 -96q90 0 157.5 45t90.5 119h215q-35 -152 -135 -245t-248 -113v-197h-168v197
q-191 27 -312 172q-118 142 -118 360z" />
    <glyph glyph-name="sterling" unicode="&#xa3;" horiz-adv-x="1064" 
d="M35 602v166h158q-70 177 -70 276q0 188 117 302t299 114q191 0 300 -106.5t113 -302.5h-209q0 94 -53 151.5t-143 57.5q-92 0 -144.5 -59t-52.5 -163q0 -25 8 -70.5t9 -52.5q24 -71 24 -73q2 -4 9 -22t13 -33t9 -19h297v-166h-250q6 -43 6 -92q0 -128 -72 -244l-28 -49
h307q86 0 125 41t39 129h203q-1 -189 -99 -288t-278 -99h-621v70l86 118q115 151 115 328q0 39 -8 86h-209z" />
    <glyph glyph-name="currency" unicode="&#xa4;" horiz-adv-x="1312" 
d="M53 72l248 245q-59 95 -59 218q0 122 59 217l-248 245l144 142l245 -246q101 61 213 61q102 0 213 -63l250 248l139 -142l-245 -245q61 -101 61 -217q0 -121 -63 -218l247 -245l-139 -140l-252 246q-99 -57 -211 -57q-113 0 -209 57l-249 -246zM428 535
q0 -105 64.5 -174.5t162.5 -69.5t165 70t67 174q0 106 -67 177.5t-165 71.5t-162.5 -71.5t-64.5 -177.5z" />
    <glyph glyph-name="yen" unicode="&#xa5;" horiz-adv-x="1359" 
d="M10 1434h269l350 -555l51 -97l53 97l352 555h269l-469 -756h178v-166h-264v-145h264v-166h-264v-201h-234v201h-270v166h270v145h-270v166h184z" />
    <glyph glyph-name="brokenbar" unicode="&#xa6;" horiz-adv-x="466" 
d="M133 -137v573h205v-573h-205zM133 913v574h205v-574h-205z" />
    <glyph glyph-name="section" unicode="&#xa7;" horiz-adv-x="1052" 
d="M74 676q0 161 164 260q-99 70 -99 215q0 157 111 240q113 84 278 84q181 0 287 -88.5t111 -237.5h-221q-1 75 -49 116.5t-130 41.5q-78 0 -121 -39.5t-43 -102.5q0 -64 50.5 -101t173.5 -60q212 -35 304.5 -108t92.5 -206q0 -148 -158 -244q121 -77 121 -227
q0 -156 -115 -239q-116 -84 -290 -84q-189 0 -301 88t-117 237h221q0 -74 53.5 -116t145.5 -42q88 0 135 38.5t47 103.5q0 63 -61 101.5t-213 64.5q-377 67 -377 305zM295 709q0 -74 60.5 -113.5t219.5 -65.5l74 -14q115 53 115 150q0 73 -56.5 110t-215.5 66l-91 18
q-106 -49 -106 -151z" />
    <glyph glyph-name="dieresis" unicode="&#xa8;" horiz-adv-x="698" 
d="M20 1307q0 54 37 89.5t93 35.5q54 0 90 -35.5t36 -89.5t-36 -89.5t-90 -35.5q-56 0 -93 35.5t-37 89.5zM422 1307q0 53 37 88q37 37 90 37t90 -37q38 -35 38 -88t-38 -90q-37 -35 -90 -35t-90 35q-37 37 -37 90z" />
    <glyph glyph-name="copyright" unicode="&#xa9;" horiz-adv-x="1222" 
d="M61 975q0 243 152 401q155 158 399 158q246 0 398 -158q151 -157 151 -401q0 -245 -151 -402t-398 -157q-245 0 -399 157q-152 158 -152 402zM197 975q0 -186 114 -309t301 -123q185 0 299 123q115 124 115 309q0 188 -115 309q-114 123 -299 123q-187 0 -301 -123
t-114 -309zM324 975q0 129 82.5 213t211.5 84q214 0 267 -209h-160q-27 70 -107 70q-62 0 -100.5 -44t-38.5 -114q0 -72 38 -116t101 -44q89 0 117 78h154q-47 -215 -271 -215q-130 0 -212 83t-82 214z" />
    <glyph glyph-name="ordfeminine" unicode="&#xaa;" horiz-adv-x="786" 
d="M88 920q0 172 221 210l199 37v29q0 111 -117 111q-55 0 -87 -26t-32 -73h-166q6 112 82.5 180t202.5 68q135 0 210 -66.5t75 -189.5v-465h-146l-8 82q-78 -96 -215 -96q-100 0 -159.5 53.5t-59.5 145.5zM256 932q0 -31 23.5 -49.5t64.5 -18.5q91 0 133 60q31 42 31 90v28
l-166 -30q-86 -18 -86 -80z" />
    <glyph glyph-name="guillemotleft" unicode="&#xab;" horiz-adv-x="964" 
d="M25 496v34l258 383h213l-271 -401l271 -399h-213zM469 496v34l258 383h213l-270 -401l270 -399h-213z" />
    <glyph glyph-name="logicalnot" unicode="&#xac;" horiz-adv-x="1220" 
d="M82 741v160h1065v-588h-156v428h-909z" />
    <glyph glyph-name="uni00AD" unicode="&#xad;" horiz-adv-x="747" 
d="M51 434v195h645v-195h-645z" />
    <glyph glyph-name="registered" unicode="&#xae;" horiz-adv-x="1222" 
d="M61 975q0 243 152 401q155 158 399 158q246 0 398 -158q151 -157 151 -401q0 -245 -151 -402t-398 -157q-245 0 -399 157q-152 158 -152 402zM197 975q0 -186 114 -309t301 -123q185 0 299 123q115 124 115 309q0 188 -115 309q-114 123 -299 123q-187 0 -301 -123
t-114 -309zM401 686v574h222q98 0 156.5 -53t58.5 -140q0 -103 -95 -156l119 -225h-172l-90 199h-49v-199h-150zM551 995h59q78 0 78 70q0 72 -78 72h-59v-142z" />
    <glyph glyph-name="macron" unicode="&#xaf;" horiz-adv-x="593" 
d="M20 1212v170h553v-170h-553z" />
    <glyph glyph-name="degree" unicode="&#xb0;" horiz-adv-x="714" 
d="M45 1171q0 137 88 222q89 86 221 86q137 0 226 -86q90 -84 90 -222q0 -136 -90 -223q-90 -84 -226 -84q-131 0 -221 84q-88 85 -88 223zM197 1171q0 -71 44.5 -116t112.5 -45q72 0 118 44.5t46 116.5t-46 117t-118 45q-68 0 -112.5 -45.5t-44.5 -116.5z" />
    <glyph glyph-name="plusminus" unicode="&#xb1;" horiz-adv-x="966" 
d="M61 160v194h844v-194h-844zM61 801v194h324v326h197v-326h323v-194h-323v-324h-197v324h-324z" />
    <glyph glyph-name="uni00B2" unicode="&#xb2;" horiz-adv-x="661" 
d="M66 1386q-2 119 73.5 193t196.5 74q126 0 194 -63t68 -173q0 -113 -109 -231l-176 -191h287v-159h-522v122l262 285q86 95 86 162q0 90 -92 90q-45 0 -71.5 -28t-26.5 -81h-170z" />
    <glyph glyph-name="uni00B3" unicode="&#xb3;" horiz-adv-x="720" 
d="M74 1081h168q1 -50 34.5 -77t90.5 -27q49 0 79.5 28t30.5 72q0 105 -147 105h-51v137h49q121 0 121 92q8 51 -44 75q-49 23 -97 1q-55 -25 -50 -88h-170q0 118 71.5 186t194.5 68q121 0 192.5 -66t71.5 -170q0 -118 -106 -164q135 -43 135 -184q0 -115 -77.5 -181.5
t-207.5 -66.5q-135 0 -211.5 68.5t-76.5 191.5z" />
    <glyph glyph-name="acute" unicode="&#xb4;" horiz-adv-x="538" 
d="M20 1176l224 323h274l-303 -323h-195z" />
    <glyph glyph-name="mu" unicode="&#xb5;" horiz-adv-x="1114" 
d="M150 -440v1476h217v-628q0 -220 172 -220q94 0 152.5 75t58.5 206v567h217v-1036h-191l-14 139q-82 -162 -281 -162q-55 0 -114 17v-434h-217z" />
    <glyph glyph-name="paragraph" unicode="&#xb6;" horiz-adv-x="1243" 
d="M51 1032q0 178 117 289q116 113 301 113h733v-148h-176v-1450h-147v1450h-224v-1450h-149v801h-37q-184 0 -301 111t-117 284z" />
    <glyph glyph-name="periodcentered" unicode="&#xb7;" horiz-adv-x="432" 
d="M72 532q0 60 41 101t102 41t103 -41t42 -101q0 -62 -42 -103.5t-103 -41.5t-102 41.5t-41 103.5z" />
    <glyph glyph-name="cedilla" unicode="&#xb8;" horiz-adv-x="448" 
d="M20 -401l72 102q42 -51 117 -51q82 0 82 65q0 66 -80 66q-33 0 -64 -8l-41 14l56 225h112l-28 -125q82 0 132 -46t50 -124q0 -89 -60 -138.5t-159 -49.5q-119 0 -189 70z" />
    <glyph glyph-name="uni00B9" unicode="&#xb9;" 
d="M63 1395v129q199 0 226 114h125v-802h-170v559h-181z" />
    <glyph glyph-name="ordmasculine" unicode="&#xba;" horiz-adv-x="901" 
d="M72 1087q0 167 106 267q108 102 273 102q162 0 270 -102q106 -100 106 -267q0 -164 -106 -264q-108 -102 -270 -102q-165 0 -273 102q-106 100 -106 264zM248 1090q0 -95 57 -155.5t148 -60.5q87 0 143.5 61.5t56.5 154.5t-56.5 153t-143.5 60q-90 0 -147.5 -60
t-57.5 -153z" />
    <glyph glyph-name="guillemotright" unicode="&#xbb;" horiz-adv-x="964" 
d="M25 113l270 399l-270 401h213l258 -383v-34l-258 -383h-213zM469 113l270 399l-270 401h213l258 -383v-34l-258 -383h-213z" />
    <glyph glyph-name="onequarter" unicode="&#xbc;" horiz-adv-x="1501" 
d="M63 1190v129q199 0 226 115h125v-803h-170v559h-181zM176 0l819 1434h234l-819 -1434h-234zM795 139v135l321 529h211v-514h109v-150h-109v-139h-170v139h-362zM973 289h186v309l-22 -45z" />
    <glyph glyph-name="onehalf" unicode="&#xbd;" horiz-adv-x="1503" 
d="M63 1190v129q199 0 226 115h125v-803h-170v559h-181zM176 0l819 1434h234l-819 -1434h-234zM905 551q-1 118 74 192t197 74q126 0 194 -62.5t68 -172.5q0 -114 -109 -232l-176 -190h287v-160h-522v123l262 285q86 95 86 161q0 90 -92 90q-46 0 -72.5 -27.5t-26.5 -80.5
h-170z" />
    <glyph glyph-name="threequarters" unicode="&#xbe;" horiz-adv-x="1658" 
d="M74 877h168q1 -50 35 -77.5t90 -27.5q49 0 79.5 28t30.5 72q0 105 -147 105h-51v137h49q121 0 121 92q8 51 -44 75q-49 23 -97 1q-55 -25 -50 -88h-170q0 118 71.5 186t194.5 68q121 0 192.5 -66t71.5 -170q0 -117 -106 -163q135 -43 135 -185q0 -115 -77.5 -181.5
t-207.5 -66.5q-135 0 -211.5 69t-76.5 192zM334 0l819 1434h233l-819 -1434h-233zM952 139v135l322 529h211v-514h108v-150h-108v-139h-170v139h-363zM1130 289h187v309l-23 -45z" />
    <glyph glyph-name="questiondown" unicode="&#xbf;" horiz-adv-x="876" 
d="M27 -39q0 96 31 177.5t81 133.5q18 18 70 66.5t73.5 71.5t43.5 62.5t22 76.5v61h219v-69q0 -142 -116 -246q-8 -7 -36 -31t-38.5 -33.5t-35 -33.5t-35 -38.5t-27 -39t-24 -46t-13.5 -49.5t-6 -57q0 -105 55.5 -163t150.5 -58q103 0 161.5 61t58.5 173h206
q-3 -194 -123 -302q-119 -110 -299 -110t-299 104q-120 105 -120 289zM311 911.5q0 61.5 41 102.5q43 41 104.5 41t102.5 -41q43 -41 43 -102.5t-43 -102.5q-41 -38 -102.5 -38t-104.5 38q-41 41 -41 102.5z" />
    <glyph glyph-name="Agrave" unicode="&#xc0;" horiz-adv-x="1445" 
d="M33 0l567 1434h246l567 -1434h-252l-137 350h-604l-135 -350h-252zM336 1735h315l193 -234h-228zM496 557h454l-202 512l-27 78l-27 -78z" />
    <glyph glyph-name="Aacute" unicode="&#xc1;" horiz-adv-x="1445" 
d="M33 0l567 1434h246l567 -1434h-252l-137 350h-604l-135 -350h-252zM496 557h454l-202 512l-27 78l-27 -78zM582 1501l194 234h314l-279 -234h-229z" />
    <glyph glyph-name="Acircumflex" unicode="&#xc2;" horiz-adv-x="1445" 
d="M33 0l567 1434h246l567 -1434h-252l-137 350h-604l-135 -350h-252zM354 1499l303 244h131l304 -244h-252l-119 109l-117 -109h-250zM496 557h454l-202 512l-27 78l-27 -78z" />
    <glyph glyph-name="Atilde" unicode="&#xc3;" horiz-adv-x="1445" 
d="M33 0l567 1434h246l567 -1434h-252l-137 350h-604l-135 -350h-252zM375 1503q0 126 56 197.5t163 71.5q42 0 78 -14t60 -34t44.5 -40t41 -34t40.5 -14q76 0 76 117h135q0 -126 -56 -197t-163 -71q-43 0 -79 14t-60 33.5t-44 39.5t-40.5 34t-40.5 14q-76 0 -76 -117h-135z
M496 557h454l-202 512l-27 78l-27 -78z" />
    <glyph glyph-name="Adieresis" unicode="&#xc4;" horiz-adv-x="1445" 
d="M33 0l567 1434h246l567 -1434h-252l-137 350h-604l-135 -350h-252zM391 1622q0 54 37 90.5t92 36.5q54 0 90.5 -36.5t36.5 -90.5q0 -52 -36.5 -88.5t-90.5 -36.5q-56 0 -92.5 35.5t-36.5 89.5zM496 557h454l-202 512l-27 78l-27 -78zM793 1622q0 54 36.5 90.5t90.5 36.5
t91.5 -36.5t37.5 -90.5q0 -51 -37.5 -88t-91.5 -37t-90.5 35.5t-36.5 89.5z" />
    <glyph glyph-name="Aring" unicode="&#xc5;" horiz-adv-x="1445" 
d="M33 0l567 1434h246l567 -1434h-252l-137 350h-604l-135 -350h-252zM496 557h454l-202 512l-27 78l-27 -78zM514 1683q0 86 58.5 143.5t146.5 57.5q90 0 147.5 -57t57.5 -144t-57.5 -142.5t-147.5 -55.5q-88 0 -146.5 56.5t-58.5 141.5zM643 1683q0 -31 22.5 -54t53.5 -23
q35 0 57.5 23t22.5 54q0 35 -22.5 57.5t-57.5 22.5q-33 0 -54.5 -22.5t-21.5 -57.5z" />
    <glyph glyph-name="AE" unicode="&#xc6;" horiz-adv-x="1931" 
d="M18 0l930 1434h889v-215h-575v-375h501v-213h-501v-416h575v-215h-807v354h-504l-235 -354h-273zM651 555h379v596l-43 -80z" />
    <glyph glyph-name="Ccedilla" unicode="&#xc7;" horiz-adv-x="1499" 
d="M78 717q0 319 201 532q199 211 512 211q253 0 419.5 -123t227.5 -346h-254q-91 254 -393 254q-209 0 -340 -149q-132 -147 -132 -379q0 -229 132 -379t344 -150q154 0 255.5 70t145.5 195h246q-60 -223 -213 -345.5t-391 -132.5l-19 -88q82 0 132 -46t50 -124
q0 -89 -60 -138.5t-159 -49.5q-118 0 -188 70l72 102q42 -51 116 -51q82 0 82 65q0 66 -80 66q-32 0 -63 -8l-41 14l45 190q-284 21 -467 228q-180 204 -180 512z" />
    <glyph glyph-name="Egrave" unicode="&#xc8;" horiz-adv-x="1052" 
d="M154 0v1434h804v-215h-575v-375h502v-213h-502v-416h575v-215h-804zM190 1735h316l192 -234h-227z" />
    <glyph glyph-name="Eacute" unicode="&#xc9;" horiz-adv-x="1052" 
d="M154 0v1434h804v-215h-575v-375h502v-213h-502v-416h575v-215h-804zM434 1501l195 234h313l-278 -234h-230z" />
    <glyph glyph-name="Ecircumflex" unicode="&#xca;" horiz-adv-x="1052" 
d="M154 0v1434h804v-215h-575v-375h502v-213h-502v-416h575v-215h-804zM201 1499l303 244h131l303 -244h-252l-119 109l-116 -109h-250z" />
    <glyph glyph-name="Edieresis" unicode="&#xcb;" horiz-adv-x="1052" 
d="M154 0v1434h804v-215h-575v-375h502v-213h-502v-416h575v-215h-804zM240 1622q0 54 37 90.5t92 36.5q54 0 90.5 -36.5t36.5 -90.5q0 -52 -37 -88.5t-90 -36.5q-56 0 -92.5 35.5t-36.5 89.5zM641 1622q0 54 36.5 90.5t90.5 36.5t91.5 -36.5t37.5 -90.5q0 -51 -37.5 -88
t-91.5 -37t-90.5 35.5t-36.5 89.5z" />
    <glyph glyph-name="Igrave" unicode="&#xcc;" horiz-adv-x="536" 
d="M-117 1735h316l192 -234h-227zM154 0v1434h229v-1434h-229z" />
    <glyph glyph-name="Iacute" unicode="&#xcd;" horiz-adv-x="536" 
d="M125 1501l194 234h314l-279 -234h-229zM154 0v1434h229v-1434h-229z" />
    <glyph glyph-name="Icircumflex" unicode="&#xce;" horiz-adv-x="536" 
d="M-98 1499l303 244h131l303 -244h-252l-119 109l-116 -109h-250zM154 0v1434h229v-1434h-229z" />
    <glyph glyph-name="Idieresis" unicode="&#xcf;" horiz-adv-x="536" 
d="M-59 1622q0 54 37 90.5t92 36.5q54 0 90.5 -36.5t36.5 -90.5q0 -52 -36.5 -88.5t-90.5 -36.5q-56 0 -92.5 35.5t-36.5 89.5zM154 0v1434h229v-1434h-229zM342 1622q0 54 36.5 90.5t90.5 36.5t91.5 -36.5t37.5 -90.5q0 -51 -37.5 -88t-91.5 -37t-90.5 35.5t-36.5 89.5z
" />
    <glyph glyph-name="Eth" unicode="&#xd0;" horiz-adv-x="1515" 
d="M6 647v168h166v619h524q334 0 533 -199q201 -198 201 -518q0 -322 -201 -520q-200 -197 -533 -197h-524v647h-166zM401 215h295q234 0 366 132.5t132 369.5t-131.5 369.5t-366.5 132.5h-295v-404h238v-168h-238v-432z" />
    <glyph glyph-name="Ntilde" unicode="&#xd1;" horiz-adv-x="1474" 
d="M154 0v1434h225l653 -953l62 -96v1049h229v-1434h-227l-658 954l-55 90v-1044h-229zM389 1503q0 126 56 197.5t163 71.5q42 0 78 -14t60 -34t44.5 -40t41 -34t40.5 -14q76 0 76 117h135q0 -126 -56 -197t-163 -71q-43 0 -79 14t-60 33.5t-44 39.5t-40.5 34t-40.5 14
q-76 0 -76 -117h-135z" />
    <glyph glyph-name="Ograve" unicode="&#xd2;" horiz-adv-x="1632" 
d="M78 719q0 320 207 530q208 211 532 211t529 -211q206 -209 206 -530q0 -323 -206 -535q-205 -211 -529 -211t-532 211q-207 213 -207 535zM319 719q0 -231 138 -381t360 -150q221 0 359 150q137 149 137 381q0 231 -137 377q-137 149 -359 149q-223 0 -360 -149
q-138 -147 -138 -377zM430 1755h315l193 -233h-227z" />
    <glyph glyph-name="Oacute" unicode="&#xd3;" horiz-adv-x="1632" 
d="M78 719q0 320 207 530q208 211 532 211t529 -211q206 -209 206 -530q0 -323 -206 -535q-205 -211 -529 -211t-532 211q-207 213 -207 535zM319 719q0 -231 138 -381t360 -150q221 0 359 150q137 149 137 381q0 231 -137 377q-137 149 -359 149q-223 0 -360 -149
q-138 -147 -138 -377zM676 1522l194 233h314l-279 -233h-229z" />
    <glyph glyph-name="Ocircumflex" unicode="&#xd4;" horiz-adv-x="1632" 
d="M78 719q0 320 207 530q208 211 532 211t529 -211q206 -209 206 -530q0 -323 -206 -535q-205 -211 -529 -211t-532 211q-207 213 -207 535zM319 719q0 -231 138 -381t360 -150q221 0 359 150q137 149 137 381q0 231 -137 377q-137 149 -359 149q-223 0 -360 -149
q-138 -147 -138 -377zM449 1520l303 243h131l303 -243h-252l-119 108l-117 -108h-249z" />
    <glyph glyph-name="Otilde" unicode="&#xd5;" horiz-adv-x="1632" 
d="M78 719q0 320 207 530q208 211 532 211t529 -211q206 -209 206 -530q0 -323 -206 -535q-205 -211 -529 -211t-532 211q-207 213 -207 535zM319 719q0 -231 138 -381t360 -150q221 0 359 150q137 149 137 381q0 231 -137 377q-137 149 -359 149q-223 0 -360 -149
q-138 -147 -138 -377zM469 1524q0 126 56 197t163 71q42 0 78 -14t60 -34t44.5 -39.5t41 -33.5t40.5 -14q76 0 76 117h135q0 -126 -56 -197.5t-163 -71.5q-43 0 -79 14t-60 33.5t-44 39.5t-40.5 34t-40.5 14q-76 0 -76 -116h-135z" />
    <glyph glyph-name="Odieresis" unicode="&#xd6;" horiz-adv-x="1632" 
d="M78 719q0 320 207 530q208 211 532 211t529 -211q206 -209 206 -530q0 -323 -206 -535q-205 -211 -529 -211t-532 211q-207 213 -207 535zM319 719q0 -231 138 -381t360 -150q221 0 359 150q137 149 137 381q0 231 -137 377q-137 149 -359 149q-223 0 -360 -149
q-138 -147 -138 -377zM485 1642q0 54 37 90.5t92 36.5q54 0 90.5 -36.5t36.5 -90.5q0 -51 -36.5 -87.5t-90.5 -36.5q-56 0 -92.5 35t-36.5 89zM887 1642q0 54 36.5 90.5t90.5 36.5t91.5 -36.5t37.5 -90.5q0 -51 -37.5 -87.5t-91.5 -36.5t-90.5 35t-36.5 89z" />
    <glyph glyph-name="multiply" unicode="&#xd7;" horiz-adv-x="874" 
d="M51 469l248 248l-248 248l137 137l248 -246l248 246l137 -139l-246 -248l246 -246l-139 -137l-244 246l-248 -246z" />
    <glyph glyph-name="Oslash" unicode="&#xd8;" horiz-adv-x="1632" 
d="M78 719q0 320 207 530q208 211 532 211q152 0 285 -53l98 172l170 -86l-102 -176q135 -100 209.5 -256t74.5 -342q0 -323 -206 -535q-205 -211 -529 -211q-147 0 -289 54l-100 -177l-170 84l104 183q-135 101 -209.5 257.5t-74.5 344.5zM319 719q0 -253 158 -402l514 897
q-91 31 -174 31q-223 0 -360 -149q-138 -147 -138 -377zM639 217q89 -29 178 -29q221 0 359 150q137 149 137 381q0 246 -160 397z" />
    <glyph glyph-name="Ugrave" unicode="&#xd9;" horiz-adv-x="1413" 
d="M135 571v863h230v-863q0 -383 342 -383q340 0 340 383v863h231v-863q0 -287 -149.5 -442.5t-421.5 -155.5t-422 156t-150 442zM319 1735h316l192 -234h-227z" />
    <glyph glyph-name="Uacute" unicode="&#xda;" horiz-adv-x="1413" 
d="M135 571v863h230v-863q0 -383 342 -383q340 0 340 383v863h231v-863q0 -287 -149.5 -442.5t-421.5 -155.5t-422 156t-150 442zM565 1501l195 234h313l-278 -234h-230z" />
    <glyph glyph-name="Ucircumflex" unicode="&#xdb;" horiz-adv-x="1413" 
d="M135 571v863h230v-863q0 -383 342 -383q340 0 340 383v863h231v-863q0 -287 -149.5 -442.5t-421.5 -155.5t-422 156t-150 442zM338 1499l303 244h131l303 -244h-252l-118 109l-117 -109h-250z" />
    <glyph glyph-name="Udieresis" unicode="&#xdc;" horiz-adv-x="1413" 
d="M135 571v863h230v-863q0 -383 342 -383q340 0 340 383v863h231v-863q0 -287 -149.5 -442.5t-421.5 -155.5t-422 156t-150 442zM375 1622q0 54 37 90.5t92 36.5q54 0 90.5 -36.5t36.5 -90.5q0 -52 -36.5 -88.5t-90.5 -36.5q-56 0 -92.5 35.5t-36.5 89.5zM776 1622
q0 54 36.5 90.5t90.5 36.5t91.5 -36.5t37.5 -90.5q0 -51 -37.5 -88t-91.5 -37t-90.5 35.5t-36.5 89.5z" />
    <glyph glyph-name="Yacute" unicode="&#xdd;" horiz-adv-x="1392" 
d="M25 1434h268l350 -555l51 -97l54 97l352 555h268l-555 -895v-539h-233v539zM555 1501l195 234h313l-279 -234h-229z" />
    <glyph glyph-name="Thorn" unicode="&#xde;" horiz-adv-x="1177" 
d="M154 0v1434h229v-220h250q216 0 344.5 -116.5t128.5 -309.5q0 -188 -129 -305q-125 -116 -344 -116h-250v-367h-229zM383 582h250q111 0 175 54.5t64 151.5q0 99 -64 154t-175 55h-250v-415z" />
    <glyph glyph-name="germandbls" unicode="&#xdf;" horiz-adv-x="1159" 
d="M145 0v1075q0 434 435 434v-206q-205 0 -205 -224v-43h672v-174l-267 -416q169 -24 271 -147q100 -121 100 -285q0 -219 -124.5 -342t-356.5 -123q-74 0 -174 17l6 219q97 -23 147 -23q129 0 200 64t71 186q0 116 -79 182t-214 66h-97v152l267 424h-422v-836h-230z" />
    <glyph glyph-name="agrave" unicode="&#xe0;" horiz-adv-x="1032" 
d="M88 272q0 248 303 306l295 53v47q0 186 -170 186q-81 0 -133.5 -45t-52.5 -119h-211q6 154 114 256q109 103 283 103q184 0 286.5 -97.5t102.5 -279.5v-682h-192l-11 135q-93 -158 -305 -158q-140 0 -224.5 79.5t-84.5 215.5zM127 1499h274l224 -323h-195zM307 283
q0 -54 37.5 -85.5t104.5 -31.5q125 0 188 100q49 70 49 164v37l-248 -53q-131 -27 -131 -131z" />
    <glyph glyph-name="aacute" unicode="&#xe1;" horiz-adv-x="1032" 
d="M88 272q0 248 303 306l295 53v47q0 186 -170 186q-81 0 -133.5 -45t-52.5 -119h-211q6 154 114 256q109 103 283 103q184 0 286.5 -97.5t102.5 -279.5v-682h-192l-11 135q-93 -158 -305 -158q-140 0 -224.5 79.5t-84.5 215.5zM307 283q0 -54 37.5 -85.5t104.5 -31.5
q125 0 188 100q49 70 49 164v37l-248 -53q-131 -27 -131 -131zM406 1176l223 323h274l-303 -323h-194z" />
    <glyph glyph-name="acircumflex" unicode="&#xe2;" horiz-adv-x="1032" 
d="M88 272q0 248 303 306l295 53v47q0 186 -170 186q-81 0 -133.5 -45t-52.5 -119h-211q6 154 114 256q109 103 283 103q184 0 286.5 -97.5t102.5 -279.5v-682h-192l-11 135q-93 -158 -305 -158q-140 0 -224.5 79.5t-84.5 215.5zM164 1176l282 323h152l281 -323h-230
l-127 176l-129 -176h-229zM307 283q0 -54 37.5 -85.5t104.5 -31.5q125 0 188 100q49 70 49 164v37l-248 -53q-131 -27 -131 -131z" />
    <glyph glyph-name="atilde" unicode="&#xe3;" horiz-adv-x="1032" 
d="M88 272q0 248 303 306l295 53v47q0 186 -170 186q-81 0 -133.5 -45t-52.5 -119h-211q6 154 114 256q109 103 283 103q184 0 286.5 -97.5t102.5 -279.5v-682h-192l-11 135q-93 -158 -305 -158q-140 0 -224.5 79.5t-84.5 215.5zM180 1184q0 130 56 203t163 73
q47 0 83 -14.5t57.5 -36t39 -42.5t39 -35.5t46.5 -14.5q75 0 75 125h135q0 -128 -56.5 -202.5t-162.5 -74.5q-47 0 -83 15t-57 36.5t-38.5 43t-39 36.5t-46.5 15q-76 0 -76 -127h-135zM307 283q0 -54 37.5 -85.5t104.5 -31.5q125 0 188 100q49 70 49 164v37l-248 -53
q-131 -27 -131 -131z" />
    <glyph glyph-name="adieresis" unicode="&#xe4;" horiz-adv-x="1032" 
d="M88 272q0 248 303 306l295 53v47q0 186 -170 186q-81 0 -133.5 -45t-52.5 -119h-211q6 154 114 256q109 103 283 103q184 0 286.5 -97.5t102.5 -279.5v-682h-192l-11 135q-93 -158 -305 -158q-140 0 -224.5 79.5t-84.5 215.5zM193 1307q0 54 36.5 89.5t92.5 35.5
q54 0 90.5 -35.5t36.5 -89.5t-36.5 -89.5t-90.5 -35.5q-56 0 -92.5 35.5t-36.5 89.5zM307 283q0 -54 37.5 -85.5t104.5 -31.5q125 0 188 100q49 70 49 164v37l-248 -53q-131 -27 -131 -131zM594 1307q0 53 37 88q37 37 90 37t90 -37q38 -35 38 -88t-38 -90q-37 -35 -90 -35
t-90 35q-37 37 -37 90z" />
    <glyph glyph-name="aring" unicode="&#xe5;" horiz-adv-x="1032" 
d="M88 272q0 248 303 306l295 53v47q0 186 -170 186q-81 0 -133.5 -45t-52.5 -119h-211q6 154 114 256q109 103 283 103q184 0 286.5 -97.5t102.5 -279.5v-682h-192l-11 135q-93 -158 -305 -158q-140 0 -224.5 79.5t-84.5 215.5zM303 1352q0 94 62.5 155.5t158.5 61.5
q98 0 161 -61.5t63 -155.5q0 -93 -63 -154t-161 -61q-96 0 -158.5 61t-62.5 154zM307 283q0 -54 37.5 -85.5t104.5 -31.5q125 0 188 100q49 70 49 164v37l-248 -53q-131 -27 -131 -131zM428 1354q0 -42 27.5 -70.5t68.5 -28.5q42 0 70.5 28.5t28.5 70.5q0 41 -28 68.5
t-71 27.5q-41 0 -68.5 -27.5t-27.5 -68.5z" />
    <glyph glyph-name="ae" unicode="&#xe6;" horiz-adv-x="1755" 
d="M88 268q0 249 303 307l295 56v41q0 192 -174 192q-81 0 -131.5 -43.5t-50.5 -120.5h-211q6 158 112 258q107 101 281 101q222 0 324 -141q141 141 356 141q218 0 346.5 -139.5t128.5 -393.5v-84h-756q7 -124 86 -198t201 -74q190 0 248 147h213q-50 -163 -169.5 -251.5
t-297.5 -88.5q-270 0 -414 205q-132 -205 -370 -205q-147 0 -233.5 80t-86.5 211zM307 283q0 -54 38 -85.5t104 -31.5q124 0 186 92q51 68 51 154v55l-233 -51q-76 -14 -111 -44.5t-35 -88.5zM913 612h535q-1 117 -71.5 186.5t-186.5 69.5t-191 -71t-86 -185z" />
    <glyph glyph-name="ccedilla" unicode="&#xe7;" horiz-adv-x="1126" 
d="M70 516q0 237 143 389q145 154 367 154q186 0 311.5 -96t157.5 -271h-213q-26 79 -92.5 122.5t-159.5 43.5q-123 0 -207 -96q-82 -94 -82 -246q0 -148 82 -242q84 -96 211 -96q90 0 157.5 45t90.5 119h215q-36 -162 -147 -255t-275 -107l-21 -93q82 0 132.5 -46
t50.5 -124q0 -89 -60.5 -138.5t-159.5 -49.5q-118 0 -188 70l72 102q42 -51 116 -51q82 0 82 65q0 66 -80 66q-32 0 -63 -8l-41 14l47 195q-194 20 -323 168q-123 147 -123 366z" />
    <glyph glyph-name="egrave" unicode="&#xe8;" horiz-adv-x="1138" 
d="M70 516q0 238 139 389q139 154 366 154q218 0 347 -139.5t129 -393.5v-84h-756q7 -124 86 -198t201 -74q188 0 247 147h213q-50 -163 -169.5 -251.5t-297.5 -88.5q-224 0 -366 148q-139 148 -139 391zM172 1499h274l224 -323h-195zM297 612h534q-1 117 -71.5 186.5
t-186.5 69.5t-190.5 -71t-85.5 -185z" />
    <glyph glyph-name="eacute" unicode="&#xe9;" horiz-adv-x="1138" 
d="M70 516q0 238 139 389q139 154 366 154q218 0 347 -139.5t129 -393.5v-84h-756q7 -124 86 -198t201 -74q188 0 247 147h213q-50 -163 -169.5 -251.5t-297.5 -88.5q-224 0 -366 148q-139 148 -139 391zM297 612h534q-1 117 -71.5 186.5t-186.5 69.5t-190.5 -71t-85.5 -185
zM451 1176l223 323h274l-303 -323h-194z" />
    <glyph glyph-name="ecircumflex" unicode="&#xea;" horiz-adv-x="1138" 
d="M70 516q0 238 139 389q139 154 366 154q218 0 347 -139.5t129 -393.5v-84h-756q7 -124 86 -198t201 -74q188 0 247 147h213q-50 -163 -169.5 -251.5t-297.5 -88.5q-224 0 -366 148q-139 148 -139 391zM207 1176l282 323h152l281 -323h-230l-127 176l-129 -176h-229z
M297 612h534q-1 117 -71.5 186.5t-186.5 69.5t-190.5 -71t-85.5 -185z" />
    <glyph glyph-name="edieresis" unicode="&#xeb;" horiz-adv-x="1138" 
d="M70 516q0 238 139 389q139 154 366 154q218 0 347 -139.5t129 -393.5v-84h-756q7 -124 86 -198t201 -74q188 0 247 147h213q-50 -163 -169.5 -251.5t-297.5 -88.5q-224 0 -366 148q-139 148 -139 391zM244 1307q0 54 36.5 89.5t92.5 35.5q54 0 90.5 -35.5t36.5 -89.5
t-36.5 -89.5t-90.5 -35.5q-56 0 -92.5 35.5t-36.5 89.5zM297 612h534q-1 117 -71.5 186.5t-186.5 69.5t-190.5 -71t-85.5 -185zM645 1307q0 53 37 88q37 37 90 37t90 -37q38 -35 38 -88t-38 -90q-37 -35 -90 -35t-90 35q-37 37 -37 90z" />
    <glyph glyph-name="igrave" unicode="&#xec;" 
d="M-131 1499h274l224 -323h-195zM154 0v1036h217v-1036h-217z" />
    <glyph glyph-name="iacute" unicode="&#xed;" 
d="M145 1176l224 323h274l-303 -323h-195zM154 0v1036h217v-1036h-217z" />
    <glyph glyph-name="icircumflex" unicode="&#xee;" 
d="M-94 1176l282 323h152l281 -323h-230l-127 176l-129 -176h-229zM154 0v1036h217v-1036h-217z" />
    <glyph glyph-name="idieresis" unicode="&#xef;" 
d="M-66 1307q0 54 36.5 89.5t92.5 35.5q54 0 90.5 -35.5t36.5 -89.5t-36.5 -89.5t-90.5 -35.5q-56 0 -92.5 35.5t-36.5 89.5zM154 0v1036h217v-1036h-217zM336 1307q0 53 37 88q37 37 90 37t90 -37q38 -35 38 -88t-38 -90q-37 -35 -90 -35t-90 35q-37 37 -37 90z" />
    <glyph glyph-name="eth" unicode="&#xf0;" horiz-adv-x="1155" 
d="M78 475q0 215 137 352q141 141 352 144l-110 145h-316v176h181l-156 203h266l154 -203h307v-176h-172l231 -301q127 -165 127 -340q0 -221 -143 -358q-143 -140 -358 -140q-218 0 -361 140q-139 139 -139 358zM297 475q0 -130 78 -217q78 -84 203 -84q124 0 203 85
t79 216q0 119 -78 215l-6 8q-76 76 -198 76q-125 0 -203 -84t-78 -215z" />
    <glyph glyph-name="ntilde" unicode="&#xf1;" horiz-adv-x="1122" 
d="M150 0v1036h188l16 -139q39 74 113.5 118t171.5 44q159 0 247.5 -104t88.5 -283v-672h-219v629q0 105 -45.5 161t-130.5 56q-96 0 -154.5 -78.5t-58.5 -216.5v-551h-217zM229 1184q0 130 56.5 203t163.5 73q40 0 72 -10.5t51 -26.5t37.5 -34.5t31.5 -34.5t31.5 -26.5
t40.5 -10.5q75 0 75 125h136q0 -128 -56.5 -202.5t-162.5 -74.5q-47 0 -83 15t-57.5 36.5t-39 43t-39 36.5t-46.5 15q-75 0 -75 -127h-136z" />
    <glyph glyph-name="ograve" unicode="&#xf2;" horiz-adv-x="1206" 
d="M70 518q0 240 149 389q152 152 383 152t383 -152t152 -389t-152 -389t-383 -152t-383 152q-149 149 -149 389zM209 1499h274l224 -323h-195zM295 518q0 -149 86 -244q87 -96 223 -96q137 0 221 96q86 95 86 244t-86 244q-84 96 -221 96q-136 0 -223 -96q-86 -95 -86 -244
z" />
    <glyph glyph-name="oacute" unicode="&#xf3;" horiz-adv-x="1206" 
d="M70 518q0 240 149 389q152 152 383 152t383 -152t152 -389t-152 -389t-383 -152t-383 152q-149 149 -149 389zM295 518q0 -149 86 -244q87 -96 223 -96q137 0 221 96q86 95 86 244t-86 244q-84 96 -221 96q-136 0 -223 -96q-86 -95 -86 -244zM487 1176l224 323h274
l-303 -323h-195z" />
    <glyph glyph-name="ocircumflex" unicode="&#xf4;" horiz-adv-x="1206" 
d="M70 518q0 240 149 389q152 152 383 152t383 -152t152 -389t-152 -389t-383 -152t-383 152q-149 149 -149 389zM244 1176l282 323h152l280 -323h-229l-127 176l-129 -176h-229zM295 518q0 -149 86 -244q87 -96 223 -96q137 0 221 96q86 95 86 244t-86 244q-84 96 -221 96
q-136 0 -223 -96q-86 -95 -86 -244z" />
    <glyph glyph-name="otilde" unicode="&#xf5;" horiz-adv-x="1206" 
d="M70 518q0 240 149 389q152 152 383 152t383 -152t152 -389t-152 -389t-383 -152t-383 152q-149 149 -149 389zM256 1184q0 130 56 203t163 73q40 0 72 -10.5t51 -26.5t37.5 -34.5t31.5 -34.5t31.5 -26.5t40.5 -10.5q76 0 76 125h135q0 -128 -56.5 -202.5t-162.5 -74.5
q-47 0 -83 15t-57 36.5t-38.5 43t-39 36.5t-46.5 15q-76 0 -76 -127h-135zM295 518q0 -149 86 -244q87 -96 223 -96q137 0 221 96q86 95 86 244t-86 244q-84 96 -221 96q-136 0 -223 -96q-86 -95 -86 -244z" />
    <glyph glyph-name="odieresis" unicode="&#xf6;" horiz-adv-x="1206" 
d="M70 518q0 240 149 389q152 152 383 152t383 -152t152 -389t-152 -389t-383 -152t-383 152q-149 149 -149 389zM272 1307q0 54 36.5 89.5t92.5 35.5q54 0 90.5 -35.5t36.5 -89.5t-36.5 -89.5t-90.5 -35.5q-56 0 -92.5 35.5t-36.5 89.5zM295 518q0 -149 86 -244
q87 -96 223 -96q137 0 221 96q86 95 86 244t-86 244q-84 96 -221 96q-136 0 -223 -96q-86 -95 -86 -244zM674 1307q0 53 37 88q37 37 90 37t90 -37q38 -35 38 -88t-38 -90q-37 -35 -90 -35t-90 35q-37 37 -37 90z" />
    <glyph glyph-name="divide" unicode="&#xf7;" horiz-adv-x="966" 
d="M61 618v195h844v-195h-844zM330 334q0 58 40 97.5t99 39.5q60 0 100.5 -38.5t40.5 -98.5q0 -57 -40.5 -97t-100.5 -40q-59 0 -99 39.5t-40 97.5zM330 1098q0 58 40 97.5t99 39.5q60 0 100.5 -38.5t40.5 -98.5q0 -57 -40.5 -96t-100.5 -39t-99.5 39t-39.5 96z" />
    <glyph glyph-name="oslash" unicode="&#xf8;" horiz-adv-x="1206" 
d="M70 518q0 240 149 389q152 152 383 152q105 0 201 -35l86 162l119 -56l-90 -167q219 -154 219 -445q0 -237 -152 -389t-383 -152q-104 0 -194 33l-86 -162l-119 54l88 166q-105 73 -163 189t-58 261zM295 518q0 -160 98 -258l312 582q-53 16 -101 16q-136 0 -223 -96
q-86 -95 -86 -244zM506 193q44 -15 98 -15q137 0 221 96q86 95 86 244q0 158 -96 254z" />
    <glyph glyph-name="ugrave" unicode="&#xf9;" horiz-adv-x="1101" 
d="M135 365v671h217v-628q0 -220 174 -220q94 0 151.5 75t57.5 206v567h217v-1036h-190l-14 139q-79 -162 -281 -162q-161 0 -246.5 103t-85.5 285zM156 1499h274l223 -323h-194z" />
    <glyph glyph-name="uacute" unicode="&#xfa;" horiz-adv-x="1101" 
d="M135 365v671h217v-628q0 -220 174 -220q94 0 151.5 75t57.5 206v567h217v-1036h-190l-14 139q-79 -162 -281 -162q-161 0 -246.5 103t-85.5 285zM432 1176l223 323h275l-303 -323h-195z" />
    <glyph glyph-name="ucircumflex" unicode="&#xfb;" horiz-adv-x="1101" 
d="M135 365v671h217v-628q0 -220 174 -220q94 0 151.5 75t57.5 206v567h217v-1036h-190l-14 139q-79 -162 -281 -162q-161 0 -246.5 103t-85.5 285zM186 1176l283 323h152l280 -323h-229l-127 176l-129 -176h-230z" />
    <glyph glyph-name="udieresis" unicode="&#xfc;" horiz-adv-x="1101" 
d="M135 365v671h217v-628q0 -220 174 -220q94 0 151.5 75t57.5 206v567h217v-1036h-190l-14 139q-79 -162 -281 -162q-161 0 -246.5 103t-85.5 285zM215 1307q0 54 36.5 89.5t92.5 35.5q54 0 90.5 -35.5t36.5 -89.5t-36.5 -89.5t-90.5 -35.5q-56 0 -92.5 35.5t-36.5 89.5z
M616 1307q0 53 37 88q37 37 90.5 37t90.5 -37q38 -35 38 -88t-38 -90q-37 -35 -90.5 -35t-90.5 35q-37 37 -37 90z" />
    <glyph glyph-name="yacute" unicode="&#xfd;" horiz-adv-x="1048" 
d="M27 1036h233l240 -694l20 -84l21 84l241 694h234l-549 -1476h-227l166 454zM403 1176l224 323h274l-303 -323h-195z" />
    <glyph glyph-name="thorn" unicode="&#xfe;" horiz-adv-x="1261" 
d="M160 -440v1935h219v-588q112 152 330 152q211 0 346 -156q135 -153 135 -385t-137 -387q-136 -154 -346 -154q-222 0 -328 152v-569h-219zM373 498q0 -149 86 -232q90 -84 209 -84q130 0 213.5 94t83.5 242q0 147 -83 240.5t-212 93.5q-121 0 -209 -82q-85 -79 -88 -225
v-47z" />
    <glyph glyph-name="ydieresis" unicode="&#xff;" horiz-adv-x="1048" 
d="M27 1036h233l240 -694l20 -84l21 84l241 694h234l-549 -1476h-227l166 454zM190 1307q0 54 36.5 89.5t92.5 35.5q54 0 90.5 -35.5t36.5 -89.5t-36.5 -89.5t-90.5 -35.5q-56 0 -92.5 35.5t-36.5 89.5zM592 1307q0 53 37 88q37 37 90 37t90 -37q38 -35 38 -88t-38 -90
q-37 -35 -90 -35t-90 35q-37 37 -37 90z" />
    <glyph glyph-name="OE" unicode="&#x152;" horiz-adv-x="2232" 
d="M88 719q0 320 207 530q205 211 530 211q298 0 498 -194v168h805v-215h-576v-375h502v-213h-502v-416h576v-215h-805v168q-201 -195 -498 -195q-322 0 -530 211q-207 213 -207 535zM328 719q0 -232 137 -381q138 -150 360 -150q221 0 359 150q139 151 139 381
q0 229 -139 377q-137 149 -359 149q-223 0 -360 -149q-137 -146 -137 -377z" />
    <glyph glyph-name="oe" unicode="&#x153;" horiz-adv-x="1978" 
d="M70 518q0 240 149 389q152 152 383 152q266 0 416 -191q141 191 397 191q218 0 346.5 -139.5t128.5 -393.5v-84h-755q7 -124 85.5 -198t200.5 -74q189 0 248 147h213q-50 -163 -169.5 -251.5t-297.5 -88.5q-258 0 -399 187q-150 -187 -414 -187q-231 0 -383 152
q-149 149 -149 389zM295 518q0 -149 86 -244q87 -96 223 -96q127 0 210.5 84.5t94.5 220.5v70q-11 135 -95 220t-210 85q-136 0 -223 -96q-86 -95 -86 -244zM1137 612h534q-1 117 -71.5 186.5t-186.5 69.5t-190.5 -71t-85.5 -185z" />
    <glyph glyph-name="Ydieresis" unicode="&#x178;" horiz-adv-x="1392" 
d="M25 1434h268l350 -555l51 -97l54 97l352 555h268l-555 -895v-539h-233v539zM365 1622q0 54 37 90.5t92 36.5q54 0 90.5 -36.5t36.5 -90.5q0 -52 -36.5 -88.5t-90.5 -36.5q-56 0 -92.5 35.5t-36.5 89.5zM766 1622q0 54 36.5 90.5t90.5 36.5t91.5 -36.5t37.5 -90.5
q0 -51 -37.5 -88t-91.5 -37t-90.5 35.5t-36.5 89.5z" />
    <glyph glyph-name="circumflex" unicode="&#x2c6;" horiz-adv-x="755" 
d="M20 1176l283 323h152l280 -323h-229l-127 176l-129 -176h-230z" />
    <glyph glyph-name="tilde" unicode="&#x2dc;" horiz-adv-x="735" 
d="M20 1184q0 130 56.5 203t163.5 73q40 0 72 -10.5t51 -26.5t37.5 -34.5t31.5 -34.5t31.5 -26.5t40.5 -10.5q76 0 76 125h135q0 -128 -56.5 -202.5t-162.5 -74.5q-47 0 -83 15t-57.5 36.5t-39 43t-39 36.5t-46.5 15q-75 0 -75 -127h-136z" />
    <glyph glyph-name="uni2000" unicode="&#x2000;" horiz-adv-x="942" 
 />
    <glyph glyph-name="uni2001" unicode="&#x2001;" horiz-adv-x="1884" 
 />
    <glyph glyph-name="uni2002" unicode="&#x2002;" horiz-adv-x="942" 
 />
    <glyph glyph-name="uni2003" unicode="&#x2003;" horiz-adv-x="1884" 
 />
    <glyph glyph-name="uni2004" unicode="&#x2004;" horiz-adv-x="628" 
 />
    <glyph glyph-name="uni2005" unicode="&#x2005;" horiz-adv-x="471" 
 />
    <glyph glyph-name="uni2006" unicode="&#x2006;" horiz-adv-x="314" 
 />
    <glyph glyph-name="uni2007" unicode="&#x2007;" horiz-adv-x="314" 
 />
    <glyph glyph-name="uni2008" unicode="&#x2008;" horiz-adv-x="235" 
 />
    <glyph glyph-name="uni2009" unicode="&#x2009;" horiz-adv-x="376" 
 />
    <glyph glyph-name="uni200A" unicode="&#x200a;" horiz-adv-x="104" 
 />
    <glyph glyph-name="uni2010" unicode="&#x2010;" horiz-adv-x="747" 
d="M51 434v195h645v-195h-645z" />
    <glyph glyph-name="uni2011" unicode="&#x2011;" horiz-adv-x="747" 
d="M51 434v195h645v-195h-645z" />
    <glyph glyph-name="figuredash" unicode="&#x2012;" horiz-adv-x="747" 
d="M51 434v195h645v-195h-645z" />
    <glyph glyph-name="endash" unicode="&#x2013;" horiz-adv-x="1054" 
d="M51 434v195h953v-195h-953z" />
    <glyph glyph-name="emdash" unicode="&#x2014;" horiz-adv-x="1443" 
d="M51 434v195h1342v-195h-1342z" />
    <glyph glyph-name="quoteleft" unicode="&#x2018;" horiz-adv-x="407" 
d="M63 1135q0 187 158 374l68 -24q-56 -109 -68 -232q54 -6 88.5 -42.5t34.5 -90.5q0 -57 -41 -97t-98 -40q-62 0 -102 42t-40 110z" />
    <glyph glyph-name="quoteright" unicode="&#x2019;" horiz-adv-x="407" 
d="M63 1356q0 58 40.5 98.5t99.5 40.5q61 0 101 -42.5t40 -109.5q0 -193 -160 -376l-65 24q52 103 67 232q-54 6 -88.5 42.5t-34.5 90.5z" />
    <glyph glyph-name="quotesinglbase" unicode="&#x201a;" horiz-adv-x="407" 
d="M63 121q0 57 40 96t100 39q61 0 101 -42t40 -110q0 -191 -160 -374l-65 24q52 101 67 234q-55 6 -89 42t-34 91z" />
    <glyph glyph-name="quotedblleft" unicode="&#x201c;" horiz-adv-x="804" 
d="M63 1135q0 187 158 374l68 -24q-56 -109 -68 -232q54 -6 88.5 -42.5t34.5 -90.5q0 -57 -41 -97t-98 -40q-62 0 -102 42t-40 110zM459 1135q0 188 157 374l68 -24q-56 -109 -68 -232q54 -6 88.5 -42.5t34.5 -90.5q0 -57 -41 -97t-98 -40q-62 0 -101.5 42t-39.5 110z" />
    <glyph glyph-name="quotedblright" unicode="&#x201d;" horiz-adv-x="804" 
d="M63 1356q0 58 40.5 98.5t99.5 40.5q61 0 101 -42.5t40 -109.5q0 -193 -160 -376l-65 24q52 103 67 232q-54 6 -88.5 42.5t-34.5 90.5zM459 1356q0 57 41 98t98 41q61 0 101 -42.5t40 -109.5q0 -195 -159 -376l-66 24q53 106 68 232q-54 6 -88.5 42.5t-34.5 90.5z" />
    <glyph glyph-name="quotedblbase" unicode="&#x201e;" horiz-adv-x="813" 
d="M63 121q0 57 40 96t100 39q61 0 101 -42t40 -110q0 -191 -160 -374l-65 24q52 101 67 234q-55 6 -89 42t-34 91zM469 121q0 57 39.5 96t99.5 39q61 0 101.5 -42t40.5 -110q0 -191 -160 -374l-66 24q53 103 68 234q-55 6 -89 42t-34 91z" />
    <glyph glyph-name="bullet" unicode="&#x2022;" horiz-adv-x="727" 
d="M74 530q0 125 82 207q84 84 206 84q123 0 207 -84t84 -207q0 -122 -84 -206q-82 -82 -207 -82q-124 0 -206 82t-82 206z" />
    <glyph glyph-name="ellipsis" unicode="&#x2026;" horiz-adv-x="1347" 
d="M72 121q0 62 41 100q41 41 102 41t102 -41q43 -38 43 -100t-43 -103q-41 -41 -102 -41t-102 41t-41 103zM528 121q0 62 41 100q43 41 104.5 41t102.5 -41q43 -38 43 -100t-43 -103q-41 -41 -102.5 -41t-104.5 41q-41 41 -41 103zM987 121q0 62 41 100q43 41 104.5 41
t102.5 -41q43 -38 43 -100t-43 -103q-41 -41 -102.5 -41t-104.5 41q-41 41 -41 103z" />
    <glyph glyph-name="uni202F" unicode="&#x202f;" horiz-adv-x="376" 
 />
    <glyph glyph-name="guilsinglleft" unicode="&#x2039;" horiz-adv-x="552" 
d="M25 496v34l290 383h211l-301 -401l301 -399h-211z" />
    <glyph glyph-name="guilsinglright" unicode="&#x203a;" horiz-adv-x="552" 
d="M25 113l303 399l-303 401h213l288 -383v-34l-288 -383h-213z" />
    <glyph glyph-name="uni205F" unicode="&#x205f;" horiz-adv-x="471" 
 />
    <glyph glyph-name="Euro" unicode="&#x20ac;" horiz-adv-x="1230" 
d="M31 453v168h139q-2 20 -2 98q0 79 2 102h-139v168h164q51 224 185 347.5t329 123.5q415 0 491 -430h-248q-27 215 -243 215q-203 0 -277 -256h283v-168h-309q-5 -58 -5 -102q0 -78 2 -98h312v-168h-283q71 -265 277 -265q102 0 164 56.5t79 161.5h248
q-48 -218 -166.5 -325.5t-324.5 -107.5q-197 0 -330.5 126t-183.5 354h-164z" />
    <glyph glyph-name="trademark" unicode="&#x2122;" horiz-adv-x="1269" 
d="M45 1296v138h440v-138h-145v-436h-147v436h-148zM557 860v574h176l131 -340l13 -33l8 33l135 340h174v-574h-147v316l-19 -58l-100 -258h-105l-100 258l-18 58v-316h-148z" />
    <glyph glyph-name="uni25FC" unicode="&#x25fc;" horiz-adv-x="1034" 
d="M0 0v1034h1034v-1034h-1034z" />
    </font>
</defs>
</svg>
